<svg xmlns="http://www.w3.org/2000/svg" xmlns:xlink="http://www.w3.org/1999/xlink" width="153" zoomAndPan="magnify" viewBox="0 0 115.5 43.499998" height="57" preserveAspectRatio="xMidYMid meet" version="1.0"><defs><clipPath id="656df3b558"><path d="M 67 0 L 97.992188 0 L 97.992188 26 L 67 26 Z M 67 0 " clip-rule="nonzero"/></clipPath><clipPath id="bb559b49da"><path d="M 16.429688 17 L 74 17 L 74 39 L 16.429688 39 Z M 16.429688 17 " clip-rule="nonzero"/></clipPath></defs><g clip-path="url(#656df3b558)"><path fill="#e25a1c" d="M 90.863281 21.808594 L 90.722656 21.507812 L 87.65625 15.640625 C 87.601562 15.566406 87.582031 15.480469 87.589844 15.390625 C 87.601562 15.296875 87.640625 15.21875 87.707031 15.160156 L 92.554688 9.40625 C 92.621094 9.332031 92.664062 9.246094 92.683594 9.148438 L 91.269531 9.519531 L 85.394531 11.109375 C 85.210938 11.160156 85.128906 11.105469 85.039062 10.953125 L 81.691406 5.316406 C 81.632812 5.207031 81.550781 5.117188 81.445312 5.042969 L 81.167969 6.542969 L 80.238281 11.84375 L 80.140625 12.414062 C 80.125 12.597656 80.035156 12.664062 79.871094 12.71875 L 72.953125 14.925781 C 72.859375 14.960938 72.753906 15 72.644531 15.101562 L 78.332031 17.382812 L 78.164062 17.515625 L 74.628906 19.832031 C 74.488281 19.925781 74.375 19.9375 74.214844 19.863281 L 69.984375 17.957031 C 69.351562 17.671875 68.78125 17.292969 68.335938 16.742188 C 67.332031 15.503906 67.53125 14.09375 68.867188 13.230469 C 69.316406 12.953125 69.792969 12.734375 70.296875 12.574219 L 77.09375 10.394531 C 77.285156 10.332031 77.371094 10.246094 77.410156 10.039062 L 78.339844 4.738281 C 78.507812 3.804688 78.597656 2.828125 79.050781 1.960938 C 79.234375 1.628906 79.433594 1.304688 79.683594 1.027344 C 80.582031 0.015625 81.839844 -0.0234375 82.789062 0.9375 C 83.113281 1.261719 83.386719 1.644531 83.625 2.039062 L 86.734375 7.246094 C 86.769531 7.339844 86.832031 7.40625 86.921875 7.441406 C 87.011719 7.480469 87.101562 7.476562 87.1875 7.433594 L 94.773438 5.398438 C 95.292969 5.257812 95.824219 5.207031 96.359375 5.308594 C 97.523438 5.53125 98.035156 6.429688 97.640625 7.566406 C 97.460938 8.085938 97.148438 8.523438 96.800781 8.9375 L 91.519531 15.242188 C 91.375 15.414062 91.371094 15.539062 91.472656 15.726562 L 94.628906 21.777344 C 94.882812 22.257812 95.074219 22.761719 95.078125 23.316406 C 95.09375 24.578125 94.179688 25.605469 92.9375 25.789062 C 92.246094 25.882812 91.597656 25.746094 90.949219 25.542969 L 86.1875 24.078125 C 86.035156 24.054688 85.960938 23.964844 85.957031 23.8125 L 85.382812 20.425781 C 85.375 20.394531 85.386719 20.359375 85.390625 20.292969 L 90.859375 21.816406 " fill-opacity="1" fill-rule="evenodd"/></g><path fill="#3c3a3e" d="M 87.769531 38.265625 L 83.480469 38.261719 C 83.300781 38.277344 83.164062 38.207031 83.078125 38.046875 L 77.777344 29.933594 L 76.695312 38.246094 L 72.949219 38.246094 L 73.082031 37.164062 L 75.234375 20.625 C 75.246094 20.53125 75.292969 20.457031 75.363281 20.402344 L 79.25 17.878906 C 79.265625 17.867188 79.292969 17.863281 79.359375 17.84375 L 78.191406 26.839844 L 78.238281 26.871094 L 84.367188 20.007812 L 84.96875 23.523438 C 85 23.695312 84.957031 23.804688 84.84375 23.921875 L 80.914062 28.09375 L 80.730469 28.28125 L 80.851562 28.472656 L 87.621094 38.070312 C 87.660156 38.125 87.71875 38.160156 87.769531 38.222656 L 87.769531 38.273438 M 43.382812 29.960938 C 43.324219 29.664062 43.285156 29.230469 43.15625 28.828125 C 42.527344 26.871094 40.542969 25.800781 38.488281 26.28125 C 36.234375 26.8125 34.621094 28.605469 34.390625 30.925781 C 34.21875 32.644531 35.132812 34.304688 36.835938 34.925781 C 38.210938 35.425781 39.53125 35.214844 40.757812 34.472656 C 42.386719 33.484375 43.265625 32.023438 43.382812 29.957031 Z M 33.484375 37.21875 L 33.164062 39.644531 L 32.757812 42.808594 C 32.742188 42.933594 32.703125 42.996094 32.574219 42.996094 L 29.488281 42.992188 C 29.464844 42.992188 29.441406 42.976562 29.394531 42.964844 L 29.582031 41.46875 L 30.269531 36.222656 L 31.078125 30.226562 C 31.675781 26.707031 34.628906 23.683594 38.09375 22.921875 C 40.105469 22.480469 42.027344 22.6875 43.78125 23.828125 C 45.53125 24.96875 46.535156 26.632812 46.761719 28.699219 C 47.085938 31.640625 46.015625 34.082031 43.949219 36.101562 C 42.589844 37.429688 40.964844 38.269531 39.09375 38.554688 C 37.164062 38.847656 35.347656 38.523438 33.730469 37.375 C 33.667969 37.332031 33.605469 37.296875 33.503906 37.230469 " fill-opacity="1" fill-rule="evenodd"/><g clip-path="url(#bb559b49da)"><path fill="#3c3a3e" d="M 31.804688 20.5 L 28.421875 23.042969 L 27.894531 22.203125 C 27.410156 21.519531 26.808594 21.007812 25.933594 20.945312 C 25.195312 20.875 24.578125 21.121094 24.085938 21.679688 C 23.644531 22.167969 23.585938 22.855469 24 23.402344 C 24.457031 24.003906 24.957031 24.578125 25.464844 25.136719 L 28.03125 27.882812 C 28.796875 28.726562 29.40625 29.675781 29.59375 30.835938 C 29.816406 32.210938 29.542969 33.519531 28.902344 34.730469 C 27.699219 36.964844 25.832031 38.265625 23.355469 38.671875 C 22.261719 38.851562 21.167969 38.8125 20.101562 38.496094 C 18.683594 38.074219 17.695312 37.136719 17.066406 35.8125 C 16.839844 35.34375 16.667969 34.847656 16.464844 34.347656 L 20.132812 32.363281 L 20.246094 32.632812 C 20.453125 33.050781 20.613281 33.5 20.890625 33.890625 C 21.65625 35.039062 22.894531 35.390625 24.148438 34.820312 C 24.476562 34.671875 24.777344 34.476562 25.046875 34.234375 C 25.855469 33.507812 26.007812 32.496094 25.417969 31.585938 C 25.074219 31.0625 24.644531 30.589844 24.214844 30.121094 L 21.195312 26.757812 C 20.519531 25.96875 20.0625 25.050781 19.917969 23.992188 C 19.761719 22.84375 19.988281 21.753906 20.582031 20.785156 C 22.058594 18.375 24.203125 17.117188 27.035156 17.222656 C 28.652344 17.28125 29.941406 18.042969 30.941406 19.316406 L 31.816406 20.488281 M 59.199219 33.445312 L 58.648438 37.65625 C 58.640625 37.726562 58.582031 37.820312 58.527344 37.851562 C 55.734375 39.15625 52.058594 38.972656 49.765625 36.34375 C 48.535156 34.929688 48.007812 33.253906 48.09375 31.386719 C 48.273438 27.066406 51.820312 23.296875 56.046875 22.769531 C 58.523438 22.460938 60.695312 23.136719 62.375 25.082031 C 63.515625 26.40625 64.042969 27.980469 63.964844 29.734375 C 63.914062 30.886719 63.734375 32.03125 63.59375 33.191406 L 62.960938 38.0625 C 62.953125 38.121094 62.941406 38.175781 62.929688 38.25 L 59.597656 38.25 L 59.730469 37.144531 L 60.449219 31.519531 C 60.582031 30.347656 60.5 29.1875 59.96875 28.105469 C 59.414062 26.953125 58.460938 26.34375 57.21875 26.210938 C 54.648438 25.933594 52.203125 27.742188 51.652344 30.296875 C 51.289062 31.984375 51.863281 33.601562 53.191406 34.496094 C 54.488281 35.367188 55.878906 35.371094 57.289062 34.804688 C 58.007812 34.519531 58.617188 34.066406 59.199219 33.453125 M 73.257812 23.101562 L 72.804688 26.597656 C 72.097656 26.597656 71.40625 26.59375 70.714844 26.601562 C 70.152344 26.605469 69.640625 26.96875 69.472656 27.5 C 69.40625 27.707031 69.382812 27.929688 69.355469 28.152344 L 68.304688 36.214844 L 68.042969 38.257812 L 64.566406 38.257812 L 64.757812 36.742188 L 65.4375 31.519531 L 66.042969 27.003906 C 66.355469 24.992188 68.339844 23.207031 70.347656 23.117188 L 73.257812 23.109375 " fill-opacity="1" fill-rule="evenodd"/></g><path fill="#3c3a3e" d="M 36.460938 18.007812 L 37.324219 18.007812 L 37.121094 16.699219 Z M 37.457031 18.859375 L 36.023438 18.859375 L 35.570312 19.761719 L 34.554688 19.761719 L 36.792969 15.523438 L 37.773438 15.523438 L 38.535156 19.75 L 37.59375 19.75 L 37.457031 18.847656 " fill-opacity="1" fill-rule="nonzero"/><path fill="#3c3a3e" d="M 42.589844 16.382812 L 42.078125 16.382812 L 41.90625 17.359375 L 42.417969 17.359375 C 42.722656 17.359375 42.972656 17.152344 42.972656 16.769531 C 42.972656 16.511719 42.816406 16.382812 42.589844 16.382812 Z M 41.351562 15.542969 L 42.691406 15.542969 C 43.394531 15.542969 43.894531 15.964844 43.894531 16.691406 C 43.894531 17.605469 43.253906 18.21875 42.34375 18.21875 L 41.765625 18.21875 L 41.496094 19.769531 L 40.621094 19.769531 L 41.359375 15.539062 " fill-opacity="1" fill-rule="nonzero"/><path fill="#3c3a3e" d="M 46.855469 18.007812 L 47.71875 18.007812 L 47.515625 16.699219 Z M 47.851562 18.859375 L 46.417969 18.859375 L 45.964844 19.761719 L 44.949219 19.761719 L 47.1875 15.523438 L 48.167969 15.523438 L 48.929688 19.75 L 47.988281 19.75 L 47.851562 18.847656 " fill-opacity="1" fill-rule="nonzero"/><path fill="#3c3a3e" d="M 53.519531 19.609375 C 53.21875 19.75 52.902344 19.824219 52.570312 19.828125 C 51.464844 19.828125 50.769531 18.988281 50.769531 17.9375 C 50.769531 16.59375 51.878906 15.460938 53.21875 15.460938 C 53.550781 15.460938 53.851562 15.542969 54.097656 15.679688 L 53.976562 16.695312 C 53.789062 16.488281 53.492188 16.34375 53.125 16.34375 C 52.363281 16.34375 51.6875 17.042969 51.6875 17.839844 C 51.6875 18.457031 52.066406 18.933594 52.671875 18.933594 C 53.03125 18.933594 53.355469 18.820312 53.636719 18.59375 L 53.519531 19.597656 M 58.859375 18.054688 L 57.039062 18.054688 L 56.742188 19.757812 L 55.871094 19.757812 L 56.609375 15.53125 L 57.480469 15.53125 L 57.1875 17.210938 L 59.007812 17.210938 L 59.304688 15.53125 L 60.175781 15.53125 L 59.4375 19.757812 L 58.566406 19.757812 L 58.859375 18.054688 M 62.066406 19.757812 L 62.800781 15.53125 L 65.113281 15.53125 L 64.964844 16.371094 L 63.527344 16.371094 L 63.378906 17.191406 L 64.710938 17.191406 L 64.5625 18.042969 L 63.222656 18.042969 L 63.074219 18.898438 L 64.523438 18.898438 L 64.375 19.75 L 62.054688 19.75 " fill-opacity="1" fill-rule="nonzero"/></svg>