<svg xmlns="http://www.w3.org/2000/svg" xmlns:xlink="http://www.w3.org/1999/xlink" width="500" zoomAndPan="magnify" viewBox="0 0 375 374.999991" height="500" preserveAspectRatio="xMidYMid meet" version="1.0"><defs><clipPath id="3874c26d57"><path d="M 215 130.140625 L 297 130.140625 L 297 200 L 215 200 Z M 215 130.140625 " clip-rule="nonzero"/></clipPath><clipPath id="e235f47848"><path d="M 112 177 L 270 177 L 270 244.890625 L 112 244.890625 Z M 112 177 " clip-rule="nonzero"/></clipPath><clipPath id="ca8060e6a8"><path d="M 77.582031 176 L 231 176 L 231 234 L 77.582031 234 Z M 77.582031 176 " clip-rule="nonzero"/></clipPath></defs><g clip-path="url(#3874c26d57)"><path fill="#e25a1c" d="M 278.117188 188.332031 L 277.738281 187.53125 L 269.484375 171.871094 C 269.335938 171.671875 269.273438 171.449219 269.300781 171.203125 C 269.328125 170.957031 269.433594 170.753906 269.621094 170.589844 L 282.675781 155.238281 C 282.859375 155.039062 282.972656 154.808594 283.027344 154.546875 L 279.214844 155.542969 L 263.386719 159.78125 C 262.898438 159.914062 262.671875 159.769531 262.429688 159.363281 L 253.40625 144.332031 C 253.25 144.035156 253.03125 143.789062 252.75 143.601562 L 252.003906 147.601562 L 249.496094 161.742188 L 249.234375 163.269531 C 249.195312 163.753906 248.945312 163.933594 248.503906 164.074219 L 229.863281 169.972656 C 229.617188 170.058594 229.328125 170.171875 229.03125 170.433594 L 244.355469 176.527344 L 243.90625 176.882812 L 234.375 183.058594 C 233.996094 183.304688 233.695312 183.339844 233.269531 183.148438 L 221.863281 178.058594 C 220.15625 177.296875 218.625 176.285156 217.429688 174.820312 C 214.726562 171.507812 215.261719 167.746094 218.863281 165.449219 C 220.070312 164.703125 221.355469 164.117188 222.710938 163.695312 L 241.023438 157.871094 C 241.535156 157.714844 241.769531 157.484375 241.871094 156.925781 L 244.378906 142.789062 C 244.832031 140.292969 245.074219 137.6875 246.296875 135.378906 C 246.792969 134.488281 247.328125 133.621094 248 132.875 C 250.425781 130.183594 253.808594 130.078125 256.371094 132.644531 C 257.234375 133.507812 257.980469 134.53125 258.625 135.582031 L 266.996094 149.476562 C 267.039062 149.59375 267.105469 149.699219 267.191406 149.789062 C 267.28125 149.878906 267.382812 149.949219 267.5 149.996094 C 267.613281 150.042969 267.734375 150.066406 267.863281 150.0625 C 267.988281 150.058594 268.105469 150.03125 268.222656 149.976562 L 288.652344 144.546875 C 290.058594 144.171875 291.480469 144.035156 292.925781 144.308594 C 296.070312 144.898438 297.441406 147.292969 296.378906 150.332031 C 295.894531 151.714844 295.058594 152.882812 294.121094 153.988281 L 279.890625 170.8125 C 279.5 171.269531 279.492188 171.597656 279.761719 172.109375 L 288.269531 188.25 C 288.945312 189.539062 289.464844 190.875 289.476562 192.351562 C 289.511719 195.71875 287.054688 198.46875 283.714844 198.960938 C 281.84375 199.210938 280.101562 198.835938 278.351562 198.292969 L 265.519531 194.382812 C 265.34375 194.359375 265.199219 194.28125 265.082031 194.148438 C 264.964844 194.011719 264.90625 193.859375 264.902344 193.679688 L 263.351562 184.644531 C 263.335938 184.5625 263.363281 184.46875 263.378906 184.289062 L 278.113281 188.359375 " fill-opacity="1" fill-rule="evenodd"/></g><g clip-path="url(#e235f47848)"><path fill="#3c3a3e" d="M 269.789062 232.25 L 258.226562 232.238281 C 258.003906 232.257812 257.796875 232.214844 257.601562 232.109375 C 257.40625 232.003906 257.253906 231.855469 257.144531 231.660156 L 242.863281 210.015625 L 239.949219 232.191406 L 229.859375 232.191406 L 230.207031 229.308594 L 236.011719 185.175781 C 236.050781 184.929688 236.164062 184.730469 236.363281 184.578125 L 246.828125 177.84375 C 246.875 177.8125 246.953125 177.808594 247.125 177.757812 L 243.980469 201.761719 L 244.101562 201.84375 L 260.617188 183.527344 L 262.242188 192.910156 C 262.328125 193.371094 262.203125 193.660156 261.898438 193.976562 L 251.320312 205.101562 L 250.820312 205.601562 L 251.144531 206.113281 L 269.382812 231.722656 C 269.492188 231.875 269.652344 231.972656 269.789062 232.136719 L 269.789062 232.269531 M 150.195312 210.082031 C 150.042969 209.296875 149.933594 208.136719 149.582031 207.0625 C 147.894531 201.84375 142.546875 198.984375 137.007812 200.273438 C 130.933594 201.683594 126.59375 206.464844 125.964844 212.664062 C 125.5 217.25 127.96875 221.671875 132.5625 223.332031 C 136.257812 224.667969 139.820312 224.109375 143.125 222.125 C 147.511719 219.492188 149.886719 215.585938 150.203125 210.082031 Z M 123.523438 229.449219 L 122.660156 235.929688 L 121.570312 244.371094 C 121.527344 244.699219 121.425781 244.871094 121.074219 244.871094 L 112.761719 244.855469 C 112.699219 244.855469 112.636719 244.820312 112.511719 244.78125 L 113.019531 240.792969 L 114.863281 226.792969 L 117.042969 210.792969 C 118.652344 201.40625 126.609375 193.339844 135.949219 191.300781 C 141.363281 190.128906 146.542969 190.675781 151.269531 193.722656 C 155.984375 196.761719 158.6875 201.203125 159.304688 206.722656 C 160.175781 214.570312 157.289062 221.085938 151.71875 226.472656 C 148.0625 230.011719 143.6875 232.257812 138.636719 233.019531 C 133.4375 233.804688 128.546875 232.9375 124.1875 229.867188 C 124.027344 229.753906 123.855469 229.65625 123.578125 229.480469 " fill-opacity="1" fill-rule="evenodd"/></g><g clip-path="url(#ca8060e6a8)"><path fill="#3c3a3e" d="M 119.003906 184.839844 L 109.890625 191.628906 L 108.464844 189.390625 C 107.160156 187.566406 105.535156 186.199219 103.183594 186.035156 C 102.246094 185.945312 101.335938 186.074219 100.460938 186.417969 C 99.585938 186.761719 98.835938 187.285156 98.207031 187.992188 C 97.011719 189.289062 96.859375 191.125 97.976562 192.585938 C 99.203125 194.195312 100.546875 195.722656 101.921875 197.210938 L 108.835938 204.539062 C 110.894531 206.796875 112.535156 209.332031 113.039062 212.417969 C 113.644531 216.085938 112.910156 219.582031 111.175781 222.808594 C 107.9375 228.777344 102.910156 232.246094 96.234375 233.328125 C 93.289062 233.804688 90.347656 233.710938 87.46875 232.863281 C 83.652344 231.742188 80.992188 229.234375 79.289062 225.699219 C 78.683594 224.453125 78.222656 223.132812 77.675781 221.789062 L 87.558594 216.496094 L 87.855469 217.214844 C 88.417969 218.335938 88.851562 219.535156 89.601562 220.570312 C 91.664062 223.636719 94.996094 224.574219 98.378906 223.054688 C 99.261719 222.65625 100.070312 222.132812 100.796875 221.484375 C 102.972656 219.550781 103.382812 216.855469 101.792969 214.417969 C 100.863281 213.023438 99.707031 211.765625 98.550781 210.511719 L 90.417969 201.535156 C 88.597656 199.433594 87.367188 196.980469 86.980469 194.164062 C 86.554688 191.089844 87.167969 188.1875 88.765625 185.601562 C 92.738281 179.167969 98.519531 175.816406 106.15625 176.09375 C 110.511719 176.253906 113.980469 178.289062 116.671875 181.679688 L 119.03125 184.808594 M 192.808594 219.382812 L 191.324219 230.625 C 191.300781 230.8125 191.152344 231.0625 190.996094 231.136719 C 183.476562 234.625 173.570312 234.136719 167.394531 227.117188 C 164.078125 223.347656 162.660156 218.871094 162.894531 213.894531 C 163.375 202.367188 172.925781 192.304688 184.320312 190.898438 C 190.992188 190.074219 196.84375 191.882812 201.363281 197.066406 C 204.441406 200.601562 205.863281 204.796875 205.65625 209.476562 C 205.515625 212.554688 205.03125 215.617188 204.652344 218.703125 L 202.945312 231.703125 C 202.925781 231.859375 202.894531 232.011719 202.855469 232.203125 L 193.886719 232.203125 L 194.242188 229.261719 L 196.183594 214.246094 C 196.539062 211.121094 196.3125 208.023438 194.886719 205.132812 C 193.390625 202.058594 190.824219 200.429688 187.476562 200.078125 C 180.550781 199.34375 173.957031 204.160156 172.476562 210.984375 C 171.5 215.488281 173.039062 219.804688 176.625 222.191406 C 180.117188 224.519531 183.859375 224.523438 187.667969 223.015625 C 189.597656 222.25 191.242188 221.039062 192.804688 219.40625 M 230.691406 191.777344 L 229.464844 201.113281 C 227.5625 201.113281 225.695312 201.105469 223.832031 201.121094 C 222.324219 201.132812 220.941406 202.105469 220.488281 203.519531 C 220.316406 204.074219 220.246094 204.667969 220.171875 205.265625 L 217.34375 226.773438 L 216.640625 232.222656 L 207.273438 232.222656 L 207.785156 228.179688 L 209.617188 214.246094 L 211.253906 202.195312 C 212.09375 196.824219 217.433594 192.0625 222.84375 191.820312 L 230.6875 191.800781 " fill-opacity="1" fill-rule="evenodd"/></g><path fill="#3c3a3e" d="M 131.546875 178.1875 L 133.871094 178.1875 L 133.320312 174.695312 Z M 134.234375 180.460938 L 130.371094 180.460938 L 129.144531 182.867188 L 126.40625 182.867188 L 132.445312 171.558594 L 135.082031 171.558594 L 137.136719 182.84375 L 134.601562 182.84375 L 134.234375 180.4375 " fill-opacity="1" fill-rule="nonzero"/><path fill="#3c3a3e" d="M 148.054688 173.851562 L 146.679688 173.851562 L 146.21875 176.460938 L 147.59375 176.460938 C 148.421875 176.460938 149.085938 175.910156 149.085938 174.882812 C 149.085938 174.203125 148.671875 173.851562 148.058594 173.851562 Z M 144.726562 171.609375 L 148.335938 171.609375 C 150.230469 171.609375 151.578125 172.738281 151.578125 174.675781 C 151.578125 177.113281 149.851562 178.757812 147.398438 178.757812 L 145.839844 178.757812 L 145.109375 182.890625 L 142.757812 182.890625 L 144.746094 171.605469 " fill-opacity="1" fill-rule="nonzero"/><path fill="#3c3a3e" d="M 159.550781 178.1875 L 161.875 178.1875 L 161.324219 174.695312 Z M 162.238281 180.460938 L 158.375 180.460938 L 157.148438 182.867188 L 154.410156 182.867188 L 160.449219 171.558594 L 163.085938 171.558594 L 165.140625 182.84375 L 162.605469 182.84375 L 162.242188 180.4375 " fill-opacity="1" fill-rule="nonzero"/><path fill="#3c3a3e" d="M 177.507812 182.464844 C 176.699219 182.84375 175.847656 183.039062 174.953125 183.046875 C 171.972656 183.046875 170.097656 180.800781 170.097656 178.003906 C 170.097656 174.417969 173.085938 171.398438 176.699219 171.398438 C 177.59375 171.398438 178.40625 171.613281 179.066406 171.980469 L 178.734375 174.6875 C 178.234375 174.136719 177.4375 173.757812 176.445312 173.757812 C 174.390625 173.757812 172.566406 175.617188 172.566406 177.746094 C 172.566406 179.390625 173.59375 180.664062 175.222656 180.664062 C 176.191406 180.660156 177.058594 180.355469 177.820312 179.75 L 177.503906 182.4375 M 191.898438 178.316406 L 186.988281 178.316406 L 186.191406 182.863281 L 183.839844 182.863281 L 185.828125 171.578125 L 188.183594 171.578125 L 187.382812 176.066406 L 192.292969 176.066406 L 193.089844 171.578125 L 195.445312 171.578125 L 193.457031 182.863281 L 191.101562 182.863281 L 191.898438 178.316406 M 200.53125 182.863281 L 202.519531 171.582031 L 208.746094 171.582031 L 208.347656 173.824219 L 204.472656 173.824219 L 204.074219 176.015625 L 207.65625 176.015625 L 207.257812 178.289062 L 203.652344 178.289062 L 203.253906 180.5625 L 207.148438 180.5625 L 206.75 182.835938 L 200.503906 182.835938 " fill-opacity="1" fill-rule="nonzero"/></svg>