<svg xmlns="http://www.w3.org/2000/svg" xmlns:xlink="http://www.w3.org/1999/xlink" width="96" zoomAndPan="magnify" viewBox="0 0 72 72" height="96" preserveAspectRatio="xMidYMid meet" version="1.0"><defs><clipPath id="5f4c189677"><path d="M 0 5.628906 L 72 5.628906 L 72 66.378906 L 0 66.378906 Z M 0 5.628906 " clip-rule="nonzero"/></clipPath></defs><rect x="-7.2" width="86.4" fill="#ffffff" y="-7.2" height="86.4" fill-opacity="1"/><rect x="-7.2" width="86.4" fill="#ffffff" y="-7.2" height="86.4" fill-opacity="1"/><g clip-path="url(#5f4c189677)"><path fill="#364548" d="M 10.886719 54.605469 L 10.886719 50 C 10.886719 49.394531 11.261719 48.910156 11.890625 48.910156 L 12.0625 48.910156 C 12.6875 48.910156 13.066406 49.394531 13.066406 50 L 13.066406 59.699219 C 13.066406 62.0625 11.898438 63.945312 9.863281 65.140625 C 8.914062 65.707031 7.886719 65.984375 6.78125 65.984375 L 6.347656 65.984375 C 3.984375 65.984375 2.105469 64.8125 0.90625 62.777344 C 0.339844 61.828125 0.0625 60.800781 0.0664062 59.699219 L 0.0664062 59.265625 C 0.0664062 56.898438 1.234375 55.019531 3.269531 53.816406 C 4.21875 53.253906 5.246094 52.972656 6.347656 52.976562 L 6.78125 52.976562 C 8.382812 52.976562 9.738281 53.597656 10.886719 54.605469 Z M 2.246094 59.480469 C 2.246094 61.191406 3.074219 62.472656 4.570312 63.292969 C 5.175781 63.625 5.832031 63.800781 6.523438 63.800781 C 8.199219 63.800781 9.441406 63.015625 10.300781 61.589844 C 10.699219 60.929688 10.882812 60.207031 10.882812 59.4375 C 10.882812 57.957031 10.179688 56.800781 8.992188 55.941406 C 8.265625 55.421875 7.453125 55.160156 6.566406 55.160156 C 4.738281 55.160156 3.421875 56.085938 2.632812 57.726562 C 2.367188 58.28125 2.246094 58.867188 2.246094 59.480469 Z M 20.632812 52.980469 L 20.933594 52.980469 C 23.460938 52.980469 25.382812 54.207031 26.601562 56.410156 C 27.085938 57.292969 27.347656 58.257812 27.347656 59.265625 L 27.347656 59.699219 C 27.347656 62.0625 26.183594 63.949219 24.144531 65.144531 C 23.199219 65.699219 22.15625 65.984375 21.0625 65.984375 L 20.632812 65.984375 C 18.265625 65.984375 16.386719 64.816406 15.1875 62.78125 C 14.625 61.832031 14.34375 60.804688 14.347656 59.699219 L 14.347656 59.265625 C 14.347656 56.902344 15.519531 55.027344 17.550781 53.820312 C 18.5 53.253906 19.527344 52.972656 20.632812 52.980469 Z M 16.527344 59.480469 C 16.527344 61.144531 17.34375 62.359375 18.742188 63.21875 C 19.398438 63.621094 20.121094 63.800781 20.890625 63.800781 C 22.53125 63.800781 23.742188 62.972656 24.582031 61.589844 C 24.984375 60.929688 25.167969 60.207031 25.167969 59.4375 C 25.167969 57.894531 24.425781 56.71875 23.15625 55.863281 C 22.457031 55.390625 21.691406 55.15625 20.847656 55.160156 C 19.019531 55.160156 17.707031 56.085938 16.917969 57.726562 C 16.648438 58.28125 16.527344 58.867188 16.527344 59.480469 Z M 36.414062 55.335938 C 36.085938 55.183594 35.46875 55.128906 35.113281 55.117188 C 33.292969 55.046875 31.972656 56.074219 31.199219 57.683594 C 30.933594 58.238281 30.808594 58.824219 30.808594 59.4375 C 30.808594 61.304688 31.792969 62.613281 33.457031 63.410156 C 34.066406 63.703125 34.851562 63.757812 35.515625 63.757812 C 36.101562 63.757812 36.929688 63.398438 37.449219 63.152344 L 37.539062 63.109375 L 37.941406 63.109375 L 37.988281 63.121094 C 38.484375 63.222656 38.859375 63.535156 38.859375 64.070312 L 38.859375 64.285156 C 38.859375 65.613281 36.429688 65.917969 35.503906 65.984375 C 32.242188 66.210938 29.792969 64.414062 28.863281 61.296875 C 28.699219 60.757812 28.628906 60.21875 28.628906 59.652344 L 28.628906 59.222656 C 28.628906 56.855469 29.800781 54.984375 31.828125 53.777344 C 32.777344 53.210938 33.804688 52.929688 34.910156 52.933594 L 35.34375 52.933594 C 36.507812 52.933594 37.578125 53.265625 38.535156 53.917969 L 38.617188 53.972656 L 38.664062 54.054688 C 38.769531 54.226562 38.859375 54.425781 38.859375 54.632812 L 38.859375 54.847656 C 38.859375 55.402344 38.441406 55.703125 37.9375 55.800781 L 37.898438 55.808594 L 37.769531 55.808594 C 37.441406 55.808594 36.703125 55.46875 36.414062 55.332031 Z M 43.488281 56.8125 L 46.046875 54.285156 C 46.285156 54.050781 47.191406 53.066406 47.550781 53.066406 L 47.941406 53.066406 L 47.984375 53.074219 C 48.484375 53.179688 48.855469 53.492188 48.855469 54.027344 L 48.855469 54.242188 C 48.855469 54.609375 48.429688 55.03125 48.191406 55.285156 C 47.691406 55.816406 47.164062 56.332031 46.652344 56.851562 L 44.015625 59.527344 L 47.410156 62.949219 C 47.722656 63.265625 48.03125 63.582031 48.339844 63.902344 C 48.445312 64.015625 48.605469 64.15625 48.699219 64.316406 C 48.796875 64.464844 48.855469 64.632812 48.855469 64.808594 L 48.855469 65.035156 L 48.84375 65.085938 C 48.71875 65.585938 48.40625 65.988281 47.851562 65.988281 L 47.679688 65.988281 C 47.320312 65.988281 46.910156 65.578125 46.664062 65.34375 C 46.15625 64.863281 45.664062 64.359375 45.164062 63.871094 L 43.488281 62.226562 L 43.488281 64.851562 C 43.488281 65.457031 43.109375 65.945312 42.484375 65.945312 L 42.316406 65.945312 C 41.6875 65.945312 41.308594 65.457031 41.308594 64.851562 L 41.308594 50.046875 C 41.308594 49.441406 41.6875 48.957031 42.316406 48.957031 L 42.484375 48.957031 C 43.109375 48.957031 43.488281 49.441406 43.488281 50.046875 L 43.488281 56.816406 Z M 70.671875 53.066406 L 70.886719 53.066406 C 71.542969 53.066406 71.980469 53.507812 71.980469 54.15625 C 71.980469 55.058594 71.117188 55.292969 70.367188 55.292969 C 69.390625 55.292969 68.453125 55.882812 67.777344 56.550781 C 66.933594 57.378906 66.570312 58.441406 66.570312 59.613281 L 66.570312 64.894531 C 66.570312 65.5 66.191406 65.984375 65.5625 65.984375 L 65.390625 65.984375 C 64.765625 65.984375 64.386719 65.5 64.386719 64.894531 L 64.386719 59.308594 C 64.386719 57.164062 65.429688 55.414062 67.171875 54.1875 C 68.214844 53.453125 69.402344 53.066406 70.671875 53.066406 Z M 55.171875 63.53125 C 55.964844 63.808594 56.867188 63.769531 57.683594 63.625 C 58.101562 63.449219 59.164062 62.984375 59.554688 63.054688 L 59.617188 63.0625 L 59.675781 63.089844 C 59.914062 63.207031 60.140625 63.371094 60.261719 63.613281 C 60.550781 64.183594 60.410156 64.757812 59.851562 65.082031 L 59.664062 65.191406 C 57.597656 66.386719 55.394531 66.21875 53.332031 65.105469 C 52.347656 64.570312 51.59375 63.78125 51.035156 62.816406 L 50.90625 62.589844 C 49.578125 60.289062 49.757812 57.871094 51.253906 55.679688 C 51.773438 54.925781 52.449219 54.339844 53.238281 53.882812 L 53.539062 53.710938 C 55.484375 52.585938 57.574219 52.664062 59.574219 53.652344 C 60.652344 54.183594 61.523438 54.972656 62.121094 56.015625 L 62.230469 56.203125 C 62.667969 56.957031 62.101562 57.617188 61.519531 58.066406 C 60.839844 58.589844 60.15625 59.222656 59.507812 59.777344 Z M 53.296875 62.214844 L 59.855469 56.574219 C 59.417969 56.019531 58.683594 55.621094 58.058594 55.382812 C 56.800781 54.90625 55.5625 55.066406 54.40625 55.730469 C 52.898438 56.605469 52.253906 57.992188 52.308594 59.722656 C 52.332031 60.402344 52.515625 61.058594 52.878906 61.636719 C 53.003906 61.839844 53.144531 62.03125 53.300781 62.214844 Z M 41.53125 18.5 L 47.964844 18.5 L 47.964844 25.078125 L 51.21875 25.078125 C 52.722656 25.078125 54.265625 24.8125 55.691406 24.328125 C 56.390625 24.09375 57.175781 23.761719 57.863281 23.34375 C 56.957031 22.160156 56.492188 20.660156 56.355469 19.183594 C 56.171875 17.175781 56.574219 14.5625 57.933594 12.988281 L 58.609375 12.207031 L 59.417969 12.855469 C 61.445312 14.484375 63.152344 16.769531 63.453125 19.363281 C 65.898438 18.644531 68.769531 18.8125 70.921875 20.058594 L 71.804688 20.566406 L 71.339844 21.476562 C 69.519531 25.035156 65.710938 26.136719 61.984375 25.941406 C 56.414062 39.820312 44.285156 46.394531 29.574219 46.394531 C 21.972656 46.394531 15.003906 43.550781 11.03125 36.808594 L 10.96875 36.695312 L 10.390625 35.519531 C 9.046875 32.550781 8.601562 29.300781 8.902344 26.050781 L 8.996094 25.078125 L 14.496094 25.078125 L 14.496094 18.5 L 20.933594 18.5 L 20.933594 12.0625 L 33.804688 12.0625 L 33.804688 5.625 L 41.527344 5.625 L 41.527344 18.5 " fill-opacity="1" fill-rule="evenodd"/></g><path fill="#22a0c8" d="M 62.378906 20.9375 C 62.808594 17.582031 60.300781 14.949219 58.742188 13.695312 C 56.949219 15.769531 56.671875 21.207031 59.484375 23.496094 C 57.914062 24.890625 54.605469 26.15625 51.21875 26.15625 L 9.96875 26.15625 C 9.640625 29.695312 10.261719 32.953125 11.679688 35.738281 L 12.148438 36.597656 C 12.445312 37.101562 12.769531 37.589844 13.121094 38.058594 C 14.816406 38.167969 16.378906 38.203125 17.8125 38.171875 C 20.621094 38.109375 22.914062 37.777344 24.652344 37.175781 C 24.78125 37.136719 24.90625 37.148438 25.023438 37.207031 C 25.144531 37.265625 25.226562 37.359375 25.269531 37.488281 C 25.3125 37.613281 25.308594 37.738281 25.25 37.859375 C 25.195312 37.980469 25.101562 38.066406 24.976562 38.113281 C 24.746094 38.191406 24.507812 38.269531 24.257812 38.339844 C 22.886719 38.734375 21.421875 38.992188 19.527344 39.109375 C 19.640625 39.113281 19.410156 39.125 19.410156 39.125 C 19.34375 39.128906 19.261719 39.140625 19.199219 39.144531 C 18.453125 39.1875 17.648438 39.195312 16.828125 39.195312 C 15.925781 39.195312 15.042969 39.175781 14.050781 39.125 L 14.023438 39.144531 C 17.457031 43.007812 22.832031 45.324219 29.570312 45.324219 C 43.824219 45.324219 55.914062 39.003906 61.269531 24.8125 C 65.066406 25.203125 68.71875 24.234375 70.378906 20.992188 C 67.734375 19.464844 64.332031 19.953125 62.375 20.9375 " fill-opacity="1" fill-rule="evenodd"/><path fill="#37b1d9" d="M 62.378906 20.9375 C 62.808594 17.582031 60.300781 14.949219 58.742188 13.695312 C 56.949219 15.769531 56.671875 21.207031 59.484375 23.496094 C 57.914062 24.890625 54.605469 26.15625 51.21875 26.15625 L 12.414062 26.15625 C 12.246094 31.574219 14.253906 35.6875 17.8125 38.171875 C 20.621094 38.109375 22.917969 37.777344 24.65625 37.175781 C 24.78125 37.136719 24.90625 37.148438 25.023438 37.207031 C 25.144531 37.265625 25.226562 37.359375 25.269531 37.488281 C 25.3125 37.613281 25.308594 37.738281 25.25 37.859375 C 25.195312 37.980469 25.105469 38.066406 24.980469 38.113281 C 24.746094 38.191406 24.507812 38.269531 24.257812 38.339844 C 22.886719 38.734375 21.292969 39.027344 19.402344 39.144531 C 19.398438 39.144531 19.355469 39.101562 19.355469 39.101562 C 24.207031 41.589844 31.242188 41.578125 39.304688 38.480469 C 48.347656 35.007812 56.765625 28.386719 62.636719 20.816406 C 62.550781 20.855469 62.464844 20.894531 62.378906 20.9375 " fill-opacity="1" fill-rule="evenodd"/><path fill="#1b81a5" d="M 10.046875 30.453125 C 10.300781 32.347656 10.859375 34.125 11.679688 35.738281 L 12.148438 36.597656 C 12.445312 37.101562 12.769531 37.589844 13.121094 38.058594 C 14.820312 38.167969 16.382812 38.203125 17.8125 38.171875 C 20.625 38.109375 22.917969 37.777344 24.65625 37.175781 C 24.78125 37.136719 24.90625 37.148438 25.027344 37.207031 C 25.144531 37.265625 25.226562 37.359375 25.269531 37.488281 C 25.316406 37.613281 25.308594 37.738281 25.25 37.859375 C 25.195312 37.980469 25.105469 38.066406 24.980469 38.113281 C 24.75 38.191406 24.507812 38.269531 24.257812 38.339844 C 22.890625 38.734375 21.304688 39.011719 19.410156 39.128906 C 19.34375 39.132812 19.230469 39.132812 19.167969 39.136719 C 18.421875 39.175781 17.625 39.203125 16.800781 39.203125 C 15.867188 39.207031 14.929688 39.183594 13.992188 39.136719 C 17.425781 43 22.835938 45.320312 29.570312 45.320312 C 41.777344 45.320312 52.394531 40.6875 58.554688 30.449219 L 10.050781 30.449219 " fill-opacity="1" fill-rule="evenodd"/><path fill="#1d91b4" d="M 12.785156 30.453125 C 13.515625 33.78125 15.265625 36.394531 17.8125 38.171875 C 20.625 38.109375 22.917969 37.777344 24.65625 37.175781 C 24.78125 37.136719 24.90625 37.148438 25.027344 37.207031 C 25.144531 37.265625 25.226562 37.359375 25.269531 37.488281 C 25.316406 37.613281 25.308594 37.738281 25.25 37.859375 C 25.195312 37.980469 25.105469 38.066406 24.980469 38.113281 C 24.75 38.191406 24.507812 38.269531 24.257812 38.339844 C 22.890625 38.734375 21.269531 39.011719 19.375 39.128906 C 24.226562 41.617188 31.242188 41.582031 39.304688 38.480469 C 44.183594 36.605469 48.878906 33.816406 53.089844 30.453125 L 12.785156 30.453125 " fill-opacity="1" fill-rule="evenodd"/><path fill="#23a3c2" d="M 15.570312 19.574219 L 21.148438 19.574219 L 21.148438 25.15625 L 15.570312 25.15625 Z M 16.035156 20.042969 L 16.472656 20.042969 L 16.472656 24.6875 L 16.03125 24.6875 L 16.03125 20.042969 Z M 16.859375 20.042969 L 17.320312 20.042969 L 17.320312 24.6875 L 16.859375 24.6875 Z M 17.707031 20.042969 L 18.164062 20.042969 L 18.164062 24.6875 L 17.707031 24.6875 Z M 18.550781 20.042969 L 19.007812 20.042969 L 19.007812 24.6875 L 18.550781 24.6875 Z M 19.398438 20.042969 L 19.855469 20.042969 L 19.855469 24.6875 L 19.398438 24.6875 Z M 20.242188 20.042969 L 20.683594 20.042969 L 20.683594 24.6875 L 20.242188 24.6875 Z M 22.003906 13.140625 L 27.582031 13.140625 L 27.582031 18.71875 L 22.003906 18.71875 Z M 22.46875 13.605469 L 22.910156 13.605469 L 22.910156 18.253906 L 22.46875 18.253906 Z M 23.296875 13.605469 L 23.753906 13.605469 L 23.753906 18.253906 L 23.296875 18.253906 Z M 24.140625 13.605469 L 24.597656 13.605469 L 24.597656 18.253906 L 24.140625 18.253906 Z M 24.988281 13.605469 L 25.445312 13.605469 L 25.445312 18.253906 L 24.988281 18.253906 Z M 25.832031 13.605469 L 26.289062 13.605469 L 26.289062 18.253906 L 25.832031 18.253906 Z M 26.675781 13.605469 L 27.117188 13.605469 L 27.117188 18.253906 L 26.675781 18.253906 Z M 26.675781 13.605469 " fill-opacity="1" fill-rule="evenodd"/><path fill="#34bbde" d="M 22.003906 19.574219 L 27.582031 19.574219 L 27.582031 25.15625 L 22.003906 25.15625 Z M 22.46875 20.042969 L 22.910156 20.042969 L 22.910156 24.6875 L 22.46875 24.6875 Z M 23.296875 20.042969 L 23.753906 20.042969 L 23.753906 24.6875 L 23.296875 24.6875 Z M 24.140625 20.042969 L 24.601562 20.042969 L 24.601562 24.6875 L 24.140625 24.6875 Z M 24.988281 20.042969 L 25.445312 20.042969 L 25.445312 24.6875 L 24.988281 24.6875 Z M 25.832031 20.042969 L 26.289062 20.042969 L 26.289062 24.6875 L 25.832031 24.6875 Z M 26.675781 20.042969 L 27.117188 20.042969 L 27.117188 24.6875 L 26.675781 24.6875 Z M 26.675781 20.042969 " fill-opacity="1" fill-rule="evenodd"/><path fill="#23a3c2" d="M 28.441406 19.574219 L 34.019531 19.574219 L 34.019531 25.15625 L 28.441406 25.15625 Z M 28.90625 20.042969 L 29.34375 20.042969 L 29.34375 24.6875 L 28.90625 24.6875 Z M 29.730469 20.042969 L 30.191406 20.042969 L 30.191406 24.6875 L 29.730469 24.6875 Z M 30.578125 20.042969 L 31.035156 20.042969 L 31.035156 24.6875 L 30.578125 24.6875 Z M 31.421875 20.042969 L 31.878906 20.042969 L 31.878906 24.6875 L 31.425781 24.6875 L 31.425781 20.042969 Z M 32.265625 20.042969 L 32.726562 20.042969 L 32.726562 24.6875 L 32.265625 24.6875 Z M 33.113281 20.042969 L 33.550781 20.042969 L 33.550781 24.6875 L 33.113281 24.6875 Z M 33.113281 20.042969 " fill-opacity="1" fill-rule="evenodd"/><path fill="#34bbde" d="M 28.441406 13.140625 L 34.019531 13.140625 L 34.019531 18.71875 L 28.441406 18.71875 Z M 28.90625 13.605469 L 29.34375 13.605469 L 29.34375 18.253906 L 28.90625 18.253906 Z M 29.730469 13.605469 L 30.191406 13.605469 L 30.191406 18.253906 L 29.730469 18.253906 Z M 30.578125 13.605469 L 31.035156 13.605469 L 31.035156 18.253906 L 30.578125 18.253906 Z M 31.421875 13.605469 L 31.878906 13.605469 L 31.878906 18.253906 L 31.425781 18.253906 L 31.425781 13.605469 Z M 32.265625 13.605469 L 32.726562 13.605469 L 32.726562 18.253906 L 32.265625 18.253906 Z M 33.113281 13.605469 L 33.550781 13.605469 L 33.550781 18.253906 L 33.113281 18.253906 Z M 34.875 19.574219 L 40.453125 19.574219 L 40.453125 25.15625 L 34.878906 25.15625 L 34.878906 19.574219 Z M 35.339844 20.042969 L 35.78125 20.042969 L 35.78125 24.6875 L 35.34375 24.6875 L 35.34375 20.042969 Z M 36.167969 20.042969 L 36.625 20.042969 L 36.625 24.6875 L 36.167969 24.6875 Z M 37.011719 20.042969 L 37.46875 20.042969 L 37.46875 24.6875 L 37.011719 24.6875 Z M 37.859375 20.042969 L 38.316406 20.042969 L 38.316406 24.6875 L 37.859375 24.6875 Z M 38.703125 20.042969 L 39.160156 20.042969 L 39.160156 24.6875 L 38.703125 24.6875 Z M 39.546875 20.042969 L 39.988281 20.042969 L 39.988281 24.6875 L 39.546875 24.6875 Z M 39.546875 20.042969 " fill-opacity="1" fill-rule="evenodd"/><path fill="#23a3c2" d="M 34.878906 13.140625 L 40.453125 13.140625 L 40.453125 18.71875 L 34.875 18.71875 L 34.875 13.140625 Z M 35.34375 13.605469 L 35.78125 13.605469 L 35.78125 18.253906 L 35.34375 18.253906 Z M 36.167969 13.605469 L 36.628906 13.605469 L 36.628906 18.253906 L 36.167969 18.253906 Z M 37.015625 13.605469 L 37.472656 13.605469 L 37.472656 18.253906 L 37.015625 18.253906 Z M 37.859375 13.605469 L 38.316406 13.605469 L 38.316406 18.253906 L 37.859375 18.253906 Z M 38.703125 13.605469 L 39.164062 13.605469 L 39.164062 18.253906 L 38.703125 18.253906 Z M 39.550781 13.605469 L 39.988281 13.605469 L 39.988281 18.253906 L 39.550781 18.253906 Z M 39.550781 13.605469 " fill-opacity="1" fill-rule="evenodd"/><path fill="#34bbde" d="M 34.878906 6.699219 L 40.453125 6.699219 L 40.453125 12.277344 L 34.875 12.277344 L 34.875 6.699219 Z M 35.34375 7.164062 L 35.78125 7.164062 L 35.78125 11.8125 L 35.34375 11.8125 Z M 36.167969 7.164062 L 36.628906 7.164062 L 36.628906 11.8125 L 36.167969 11.8125 Z M 37.015625 7.164062 L 37.472656 7.164062 L 37.472656 11.8125 L 37.015625 11.8125 Z M 37.859375 7.164062 L 38.316406 7.164062 L 38.316406 11.8125 L 37.859375 11.8125 Z M 38.703125 7.164062 L 39.164062 7.164062 L 39.164062 11.8125 L 38.703125 11.8125 Z M 39.550781 7.164062 L 39.988281 7.164062 L 39.988281 11.8125 L 39.550781 11.8125 Z M 39.550781 7.164062 " fill-opacity="1" fill-rule="evenodd"/><path fill="#23a3c2" d="M 41.3125 19.574219 L 46.890625 19.574219 L 46.890625 25.15625 L 41.3125 25.15625 Z M 41.777344 20.042969 L 42.214844 20.042969 L 42.214844 24.6875 L 41.777344 24.6875 Z M 42.601562 20.042969 L 43.0625 20.042969 L 43.0625 24.6875 L 42.601562 24.6875 Z M 43.449219 20.042969 L 43.90625 20.042969 L 43.90625 24.6875 L 43.449219 24.6875 Z M 44.292969 20.042969 L 44.75 20.042969 L 44.75 24.6875 L 44.292969 24.6875 Z M 45.140625 20.042969 L 45.597656 20.042969 L 45.597656 24.6875 L 45.140625 24.6875 Z M 45.984375 20.042969 L 46.425781 20.042969 L 46.425781 24.6875 L 45.984375 24.6875 Z M 45.984375 20.042969 " fill-opacity="1" fill-rule="evenodd"/><path fill="#d3ecec" d="M 27.234375 34.199219 C 27.441406 34.195312 27.636719 34.234375 27.828125 34.3125 C 28.019531 34.386719 28.1875 34.5 28.335938 34.644531 C 28.480469 34.789062 28.59375 34.957031 28.675781 35.144531 C 28.753906 35.335938 28.792969 35.53125 28.792969 35.738281 C 28.792969 35.945312 28.753906 36.144531 28.675781 36.332031 C 28.59375 36.523438 28.480469 36.691406 28.335938 36.835938 C 28.1875 36.980469 28.019531 37.089844 27.828125 37.167969 C 27.636719 37.242188 27.4375 37.28125 27.234375 37.277344 C 27.03125 37.273438 26.835938 37.234375 26.652344 37.15625 C 26.464844 37.074219 26.300781 36.964844 26.160156 36.820312 C 26.015625 36.675781 25.90625 36.511719 25.832031 36.324219 C 25.753906 36.136719 25.714844 35.941406 25.714844 35.738281 C 25.714844 35.535156 25.753906 35.339844 25.832031 35.152344 C 25.90625 34.96875 26.015625 34.800781 26.160156 34.65625 C 26.300781 34.511719 26.464844 34.402344 26.652344 34.324219 C 26.835938 34.242188 27.03125 34.203125 27.234375 34.199219 " fill-opacity="1" fill-rule="evenodd"/><path fill="#364548" d="M 27.234375 34.636719 C 27.371094 34.636719 27.503906 34.660156 27.632812 34.710938 C 27.433594 34.824219 27.363281 34.996094 27.425781 35.214844 C 27.484375 35.4375 27.628906 35.550781 27.855469 35.550781 C 28.027344 35.550781 28.175781 35.457031 28.25 35.316406 C 28.3125 35.460938 28.339844 35.613281 28.335938 35.773438 C 28.332031 35.933594 28.292969 36.082031 28.222656 36.226562 C 28.152344 36.367188 28.054688 36.488281 27.933594 36.589844 C 27.8125 36.691406 27.671875 36.761719 27.519531 36.804688 C 27.367188 36.84375 27.210938 36.851562 27.054688 36.824219 C 26.898438 36.800781 26.753906 36.742188 26.621094 36.65625 C 26.492188 36.566406 26.382812 36.457031 26.296875 36.320312 C 26.214844 36.1875 26.164062 36.039062 26.140625 35.882812 C 26.121094 35.726562 26.132812 35.570312 26.179688 35.417969 C 26.226562 35.265625 26.300781 35.132812 26.40625 35.011719 C 26.511719 34.894531 26.632812 34.800781 26.777344 34.734375 C 26.921875 34.667969 27.074219 34.636719 27.234375 34.636719 M 0.015625 31.011719 L 71.597656 31.011719 C 70.039062 30.617188 66.667969 30.082031 67.222656 28.039062 C 64.390625 31.316406 57.554688 30.339844 55.828125 28.722656 C 53.910156 31.507812 42.726562 30.449219 41.945312 28.277344 C 39.539062 31.105469 32.078125 31.105469 29.667969 28.277344 C 28.890625 30.445312 17.707031 31.507812 15.785156 28.722656 C 14.0625 30.339844 7.230469 31.316406 4.390625 28.039062 C 4.949219 30.082031 1.574219 30.617188 0.015625 31.011719 " fill-opacity="1" fill-rule="evenodd"/><path fill="#bdd9d7" d="M 31.324219 45.292969 C 27.515625 43.484375 25.421875 41.027344 24.257812 38.34375 C 22.84375 38.746094 21.140625 39.003906 19.164062 39.117188 C 18.417969 39.15625 17.636719 39.179688 16.8125 39.179688 C 15.867188 39.179688 14.867188 39.152344 13.820312 39.09375 C 17.3125 42.585938 21.613281 45.277344 29.574219 45.328125 C 30.160156 45.328125 30.746094 45.316406 31.324219 45.292969 " fill-opacity="1" fill-rule="evenodd"/><path fill="#d3ecec" d="M 25.671875 40.816406 C 25.144531 40.097656 24.632812 39.199219 24.257812 38.335938 C 22.84375 38.742188 21.140625 39 19.164062 39.113281 C 20.523438 39.847656 22.464844 40.53125 25.671875 40.816406 " fill-opacity="1" fill-rule="evenodd"/></svg>