<svg xmlns="http://www.w3.org/2000/svg" xmlns:xlink="http://www.w3.org/1999/xlink" width="500" zoomAndPan="magnify" viewBox="0 0 375 374.999991" height="500" preserveAspectRatio="xMidYMid meet" version="1.0"><defs><clipPath id="f59c0c5737"><path d="M 112.5 124.226562 L 262.5 124.226562 L 262.5 250.976562 L 112.5 250.976562 Z M 112.5 124.226562 " clip-rule="nonzero"/></clipPath><clipPath id="e7be0ca472"><path d="M 112.5 170 L 262 170 L 262 190 L 112.5 190 Z M 112.5 170 " clip-rule="nonzero"/></clipPath></defs><g clip-path="url(#f59c0c5737)"><path fill="#364548" d="M 135.175781 226.414062 L 135.175781 216.804688 C 135.175781 215.542969 135.964844 214.527344 137.269531 214.527344 L 137.628906 214.527344 C 138.933594 214.527344 139.71875 215.542969 139.71875 216.804688 L 139.71875 237.035156 C 139.71875 241.96875 137.285156 245.894531 133.046875 248.398438 C 131.066406 249.570312 128.929688 250.15625 126.628906 250.148438 L 125.726562 250.148438 C 120.800781 250.148438 116.886719 247.710938 114.386719 243.464844 C 113.210938 241.484375 112.628906 239.339844 112.636719 237.035156 L 112.636719 236.136719 C 112.636719 231.199219 115.070312 227.277344 119.308594 224.769531 C 121.285156 223.59375 123.425781 223.007812 125.726562 223.015625 L 126.628906 223.015625 C 129.960938 223.015625 132.785156 224.3125 135.175781 226.414062 Z M 117.179688 236.585938 C 117.179688 240.152344 118.902344 242.832031 122.019531 244.539062 C 123.28125 245.230469 124.648438 245.601562 126.089844 245.601562 C 129.582031 245.601562 132.171875 243.957031 133.957031 240.988281 C 134.789062 239.609375 135.175781 238.097656 135.175781 236.496094 C 135.175781 233.40625 133.710938 230.996094 131.230469 229.203125 C 129.722656 228.117188 128.027344 227.574219 126.175781 227.574219 C 122.371094 227.574219 119.628906 229.5 117.984375 232.921875 C 117.429688 234.078125 117.175781 235.308594 117.175781 236.585938 Z M 155.484375 223.019531 L 156.113281 223.019531 C 161.378906 223.019531 165.382812 225.578125 167.917969 230.179688 C 168.933594 232.023438 169.476562 234.03125 169.476562 236.136719 L 169.476562 237.039062 C 169.476562 241.972656 167.046875 245.902344 162.800781 248.398438 C 160.832031 249.554688 158.660156 250.152344 156.382812 250.152344 L 155.484375 250.152344 C 150.554688 250.152344 146.640625 247.714844 144.140625 243.46875 C 142.964844 241.488281 142.382812 239.34375 142.390625 237.039062 L 142.390625 236.136719 C 142.390625 231.199219 144.835938 227.289062 149.0625 224.773438 C 151.039062 223.59375 153.179688 223.007812 155.484375 223.019531 Z M 146.933594 236.585938 C 146.933594 240.050781 148.632812 242.589844 151.546875 244.382812 C 152.914062 245.222656 154.417969 245.601562 156.023438 245.601562 C 159.4375 245.601562 161.960938 243.867188 163.714844 240.984375 C 164.550781 239.609375 164.929688 238.097656 164.929688 236.496094 C 164.929688 233.277344 163.382812 230.820312 160.738281 229.039062 C 159.289062 228.050781 157.6875 227.5625 155.933594 227.574219 C 152.125 227.574219 149.386719 229.5 147.742188 232.921875 C 147.1875 234.078125 146.933594 235.308594 146.933594 236.585938 Z M 188.363281 227.9375 C 187.679688 227.617188 186.394531 227.507812 185.652344 227.480469 C 181.855469 227.335938 179.109375 229.476562 177.5 232.832031 C 176.941406 233.988281 176.6875 235.214844 176.6875 236.496094 C 176.6875 240.394531 178.730469 243.121094 182.199219 244.785156 C 183.46875 245.394531 185.109375 245.507812 186.496094 245.507812 C 187.714844 245.507812 189.4375 244.761719 190.519531 244.246094 L 190.707031 244.15625 L 191.546875 244.15625 L 191.640625 244.175781 C 192.675781 244.390625 193.453125 245.046875 193.453125 246.160156 L 193.453125 246.613281 C 193.453125 249.382812 188.398438 250.015625 186.46875 250.152344 C 179.667969 250.625 174.570312 246.878906 172.628906 240.375 C 172.292969 239.246094 172.140625 238.125 172.140625 236.945312 L 172.140625 236.046875 C 172.140625 231.109375 174.585938 227.199219 178.8125 224.6875 C 180.789062 223.5 182.929688 222.914062 185.230469 222.925781 L 186.132812 222.925781 C 188.554688 222.925781 190.785156 223.613281 192.785156 224.980469 L 192.949219 225.09375 L 193.050781 225.265625 C 193.269531 225.617188 193.453125 226.039062 193.453125 226.464844 L 193.453125 226.917969 C 193.453125 228.078125 192.585938 228.703125 191.539062 228.90625 L 191.453125 228.921875 L 191.183594 228.921875 C 190.503906 228.921875 188.964844 228.21875 188.359375 227.933594 Z M 203.101562 231.019531 L 208.429688 225.742188 C 208.929688 225.253906 210.816406 223.199219 211.5625 223.199219 L 212.375 223.199219 L 212.46875 223.21875 C 213.503906 223.433594 214.28125 224.09375 214.28125 225.207031 L 214.28125 225.65625 C 214.28125 226.417969 213.390625 227.304688 212.902344 227.832031 C 211.855469 228.9375 210.757812 230.011719 209.691406 231.097656 L 204.199219 236.679688 L 211.269531 243.816406 C 211.921875 244.476562 212.566406 245.140625 213.207031 245.8125 C 213.429688 246.050781 213.765625 246.339844 213.953125 246.675781 C 214.15625 246.984375 214.28125 247.332031 214.28125 247.703125 L 214.28125 248.175781 L 214.253906 248.28125 C 214 249.320312 213.34375 250.160156 212.195312 250.160156 L 211.832031 250.160156 C 211.082031 250.160156 210.230469 249.308594 209.714844 248.820312 C 208.660156 247.816406 207.628906 246.765625 206.589844 245.742188 L 203.101562 242.308594 L 203.101562 247.792969 C 203.101562 249.054688 202.3125 250.070312 201.007812 250.070312 L 200.65625 250.070312 C 199.351562 250.070312 198.5625 249.054688 198.5625 247.792969 L 198.5625 216.898438 C 198.5625 215.636719 199.351562 214.628906 200.65625 214.628906 L 201.007812 214.628906 C 202.3125 214.628906 203.101562 215.636719 203.101562 216.898438 L 203.101562 231.023438 Z M 259.730469 223.199219 L 260.183594 223.199219 C 261.546875 223.199219 262.457031 224.121094 262.457031 225.476562 C 262.457031 227.359375 260.65625 227.84375 259.101562 227.84375 C 257.0625 227.84375 255.113281 229.082031 253.707031 230.46875 C 251.945312 232.203125 251.183594 234.417969 251.183594 236.859375 L 251.183594 247.878906 C 251.183594 249.140625 250.398438 250.152344 249.089844 250.152344 L 248.734375 250.152344 C 247.425781 250.152344 246.640625 249.140625 246.640625 247.878906 L 246.640625 236.226562 C 246.640625 231.753906 248.8125 228.101562 252.445312 225.539062 C 254.613281 224.007812 257.089844 223.203125 259.738281 223.203125 Z M 227.4375 245.035156 C 229.09375 245.613281 230.976562 245.53125 232.671875 245.234375 C 233.542969 244.863281 235.761719 243.894531 236.578125 244.039062 L 236.703125 244.058594 L 236.820312 244.117188 C 237.320312 244.359375 237.792969 244.703125 238.050781 245.210938 C 238.644531 246.398438 238.359375 247.597656 237.191406 248.273438 L 236.800781 248.496094 C 232.492188 250.988281 227.90625 250.644531 223.609375 248.316406 C 221.558594 247.203125 219.984375 245.554688 218.828125 243.539062 L 218.554688 243.070312 C 215.789062 238.269531 216.160156 233.222656 219.28125 228.65625 C 220.359375 227.078125 221.765625 225.863281 223.414062 224.90625 L 224.035156 224.546875 C 228.09375 222.199219 232.445312 222.363281 236.613281 224.421875 C 238.855469 225.527344 240.671875 227.179688 241.921875 229.351562 L 242.148438 229.742188 C 243.058594 231.320312 241.878906 232.695312 240.664062 233.632812 C 239.253906 234.726562 237.828125 236.042969 236.476562 237.207031 L 227.441406 245.035156 Z M 223.535156 242.289062 L 237.199219 230.519531 C 236.285156 229.367188 234.753906 228.535156 233.457031 228.039062 C 230.835938 227.039062 228.253906 227.375 225.847656 228.761719 C 222.703125 230.582031 221.363281 233.480469 221.480469 237.085938 C 221.527344 238.507812 221.910156 239.875 222.660156 241.082031 C 222.925781 241.507812 223.222656 241.910156 223.542969 242.289062 Z M 199.019531 151.082031 L 212.429688 151.082031 L 212.429688 164.808594 L 219.207031 164.808594 C 222.335938 164.808594 225.558594 164.25 228.523438 163.246094 C 229.980469 162.75 231.613281 162.0625 233.050781 161.1875 C 231.160156 158.714844 230.191406 155.589844 229.90625 152.507812 C 229.519531 148.316406 230.367188 142.863281 233.195312 139.582031 L 234.605469 137.949219 L 236.285156 139.304688 C 240.507812 142.707031 244.070312 147.46875 244.695312 152.882812 C 249.789062 151.382812 255.765625 151.734375 260.253906 154.332031 L 262.09375 155.394531 L 261.125 157.289062 C 257.332031 164.714844 249.394531 167.015625 241.636719 166.605469 C 230.03125 195.5625 204.757812 209.28125 174.113281 209.28125 C 158.28125 209.28125 143.753906 203.351562 135.484375 189.28125 L 135.347656 189.046875 L 134.144531 186.589844 C 131.347656 180.398438 130.417969 173.613281 131.050781 166.835938 L 131.238281 164.804688 L 142.703125 164.804688 L 142.703125 151.082031 L 156.109375 151.082031 L 156.109375 137.652344 L 182.925781 137.652344 L 182.925781 124.21875 L 199.015625 124.21875 L 199.015625 151.082031 " fill-opacity="1" fill-rule="evenodd"/></g><path fill="#22a0c8" d="M 242.453125 156.167969 C 243.355469 149.167969 238.125 143.671875 234.882812 141.0625 C 231.144531 145.386719 230.566406 156.730469 236.425781 161.503906 C 233.15625 164.417969 226.261719 167.054688 219.203125 167.054688 L 133.269531 167.054688 C 132.582031 174.4375 133.875 181.234375 136.832031 187.050781 L 137.808594 188.84375 C 138.429688 189.894531 139.105469 190.910156 139.835938 191.886719 C 143.367188 192.113281 146.625 192.191406 149.605469 192.125 C 155.460938 191.996094 160.242188 191.304688 163.863281 190.046875 C 164.128906 189.964844 164.386719 189.984375 164.632812 190.113281 C 164.882812 190.238281 165.054688 190.433594 165.144531 190.695312 C 165.234375 190.960938 165.222656 191.21875 165.105469 191.472656 C 164.988281 191.722656 164.796875 191.902344 164.539062 192 C 164.054688 192.167969 163.554688 192.324219 163.035156 192.472656 C 160.183594 193.296875 157.125 193.839844 153.179688 194.082031 C 153.414062 194.085938 152.9375 194.117188 152.933594 194.117188 C 152.800781 194.125 152.632812 194.144531 152.496094 194.152344 C 150.945312 194.242188 149.269531 194.257812 147.554688 194.257812 C 145.679688 194.257812 143.835938 194.222656 141.773438 194.117188 L 141.714844 194.152344 C 148.867188 202.214844 160.066406 207.046875 174.101562 207.046875 C 203.800781 207.046875 228.988281 193.859375 240.144531 164.253906 C 248.058594 165.070312 255.664062 163.046875 259.121094 156.28125 C 253.613281 153.097656 246.523438 154.113281 242.445312 156.167969 " fill-opacity="1" fill-rule="evenodd"/><path fill="#37b1d9" d="M 242.453125 156.167969 C 243.355469 149.167969 238.125 143.671875 234.882812 141.0625 C 231.144531 145.386719 230.566406 156.730469 236.425781 161.503906 C 233.15625 164.417969 226.261719 167.054688 219.203125 167.054688 L 138.359375 167.054688 C 138.007812 178.359375 142.195312 186.9375 149.605469 192.125 L 149.609375 192.125 C 155.464844 191.996094 160.242188 191.304688 163.863281 190.046875 C 164.128906 189.964844 164.386719 189.984375 164.636719 190.113281 C 164.882812 190.238281 165.054688 190.433594 165.144531 190.695312 C 165.238281 190.960938 165.222656 191.21875 165.105469 191.472656 C 164.988281 191.722656 164.800781 191.902344 164.539062 192 C 164.058594 192.167969 163.554688 192.324219 163.039062 192.472656 L 163.035156 192.472656 C 160.183594 193.296875 156.863281 193.910156 152.917969 194.152344 C 152.917969 194.152344 152.824219 194.0625 152.820312 194.0625 C 162.929688 199.253906 177.582031 199.230469 194.386719 192.769531 C 213.226562 185.519531 230.757812 171.707031 242.996094 155.910156 C 242.816406 155.992188 242.636719 156.078125 242.457031 156.167969 " fill-opacity="1" fill-rule="evenodd"/><path fill="#1b81a5" d="M 133.433594 176.023438 C 133.960938 179.976562 135.121094 183.679688 136.835938 187.050781 L 137.8125 188.84375 C 138.429688 189.894531 139.105469 190.910156 139.839844 191.886719 C 143.371094 192.113281 146.628906 192.191406 149.609375 192.128906 C 155.464844 191.996094 160.242188 191.304688 163.863281 190.046875 C 164.132812 189.964844 164.386719 189.988281 164.636719 190.113281 C 164.886719 190.238281 165.054688 190.433594 165.148438 190.695312 C 165.238281 190.960938 165.226562 191.21875 165.109375 191.472656 C 164.992188 191.726562 164.800781 191.902344 164.542969 192 C 164.058594 192.167969 163.558594 192.324219 163.039062 192.472656 C 160.1875 193.296875 156.882812 193.875 152.9375 194.117188 C 152.800781 194.128906 152.566406 194.128906 152.429688 194.136719 C 150.878906 194.222656 149.21875 194.277344 147.503906 194.277344 C 145.554688 194.28125 143.601562 194.234375 141.652344 194.136719 C 148.804688 202.195312 160.078125 207.039062 174.105469 207.039062 C 199.53125 207.039062 221.652344 197.375 234.492188 176.015625 L 133.4375 176.015625 " fill-opacity="1" fill-rule="evenodd"/><path fill="#1d91b4" d="M 139.132812 176.023438 C 140.652344 182.964844 144.304688 188.417969 149.609375 192.128906 C 155.464844 191.996094 160.242188 191.304688 163.863281 190.046875 C 164.132812 189.964844 164.386719 189.988281 164.636719 190.113281 C 164.886719 190.238281 165.054688 190.433594 165.148438 190.695312 C 165.238281 190.960938 165.226562 191.21875 165.109375 191.472656 C 164.992188 191.726562 164.800781 191.902344 164.542969 192 C 164.058594 192.167969 163.558594 192.324219 163.039062 192.472656 C 160.1875 193.296875 156.8125 193.875 152.867188 194.117188 C 162.972656 199.3125 177.585938 199.238281 194.382812 192.773438 C 204.546875 188.859375 214.328125 183.039062 223.105469 176.023438 L 139.136719 176.023438 " fill-opacity="1" fill-rule="evenodd"/><path fill="#23a3c2" d="M 144.933594 153.328125 L 156.554688 153.328125 L 156.554688 164.964844 L 144.933594 164.964844 Z M 145.902344 154.296875 L 146.820312 154.296875 L 146.820312 163.992188 L 145.898438 163.992188 L 145.898438 154.296875 Z M 147.625 154.296875 L 148.582031 154.296875 L 148.582031 163.992188 L 147.625 163.992188 Z M 149.386719 154.296875 L 150.339844 154.296875 L 150.339844 163.992188 L 149.386719 163.992188 Z M 151.148438 154.296875 L 152.101562 154.296875 L 152.101562 163.992188 L 151.148438 163.992188 Z M 152.910156 154.296875 L 153.863281 154.296875 L 153.863281 163.992188 L 152.910156 163.992188 Z M 154.667969 154.296875 L 155.585938 154.296875 L 155.585938 163.992188 L 154.667969 163.992188 Z M 158.34375 139.894531 L 169.964844 139.894531 L 169.964844 151.535156 L 158.34375 151.535156 Z M 159.3125 140.867188 L 160.226562 140.867188 L 160.226562 150.566406 L 159.3125 150.566406 Z M 161.035156 140.867188 L 161.988281 140.867188 L 161.988281 150.566406 L 161.035156 150.566406 Z M 162.796875 140.867188 L 163.75 140.867188 L 163.75 150.566406 L 162.796875 150.566406 Z M 164.554688 140.867188 L 165.511719 140.867188 L 165.511719 150.566406 L 164.554688 150.566406 Z M 166.316406 140.867188 L 167.269531 140.867188 L 167.269531 150.566406 L 166.316406 150.566406 Z M 168.078125 140.867188 L 168.996094 140.867188 L 168.996094 150.566406 L 168.078125 150.566406 Z M 168.078125 140.867188 " fill-opacity="1" fill-rule="evenodd"/><path fill="#34bbde" d="M 158.34375 153.328125 L 169.964844 153.328125 L 169.964844 164.964844 L 158.34375 164.964844 Z M 159.3125 154.296875 L 160.226562 154.296875 L 160.226562 163.992188 L 159.3125 163.992188 Z M 161.035156 154.296875 L 161.988281 154.296875 L 161.988281 163.992188 L 161.035156 163.992188 Z M 162.796875 154.296875 L 163.75 154.296875 L 163.75 163.992188 L 162.796875 163.992188 Z M 164.558594 154.296875 L 165.511719 154.296875 L 165.511719 163.992188 L 164.558594 163.992188 Z M 166.316406 154.296875 L 167.273438 154.296875 L 167.273438 163.992188 L 166.316406 163.992188 Z M 168.078125 154.296875 L 168.996094 154.296875 L 168.996094 163.992188 L 168.078125 163.992188 Z M 168.078125 154.296875 " fill-opacity="1" fill-rule="evenodd"/><path fill="#23a3c2" d="M 171.75 153.328125 L 183.371094 153.328125 L 183.371094 164.964844 L 171.75 164.964844 Z M 172.71875 154.296875 L 173.632812 154.296875 L 173.632812 163.992188 L 172.71875 163.992188 Z M 174.441406 154.296875 L 175.394531 154.296875 L 175.394531 163.992188 L 174.441406 163.992188 Z M 176.203125 154.296875 L 177.15625 154.296875 L 177.15625 163.992188 L 176.203125 163.992188 Z M 177.964844 154.296875 L 178.917969 154.296875 L 178.917969 163.992188 L 177.972656 163.992188 L 177.972656 154.296875 Z M 179.722656 154.296875 L 180.679688 154.296875 L 180.679688 163.992188 L 179.722656 163.992188 Z M 181.484375 154.296875 L 182.402344 154.296875 L 182.402344 163.992188 L 181.484375 163.992188 Z M 181.484375 154.296875 " fill-opacity="1" fill-rule="evenodd"/><path fill="#34bbde" d="M 171.75 139.894531 L 183.371094 139.894531 L 183.371094 151.535156 L 171.75 151.535156 Z M 172.71875 140.867188 L 173.632812 140.867188 L 173.632812 150.566406 L 172.71875 150.566406 Z M 174.441406 140.867188 L 175.394531 140.867188 L 175.394531 150.566406 L 174.441406 150.566406 Z M 176.203125 140.867188 L 177.15625 140.867188 L 177.15625 150.566406 L 176.203125 150.566406 Z M 177.964844 140.867188 L 178.917969 140.867188 L 178.917969 150.566406 L 177.972656 150.566406 L 177.972656 140.867188 Z M 179.722656 140.867188 L 180.679688 140.867188 L 180.679688 150.566406 L 179.722656 150.566406 Z M 181.484375 140.867188 L 182.402344 140.867188 L 182.402344 150.566406 L 181.484375 150.566406 Z M 185.15625 153.328125 L 196.777344 153.328125 L 196.777344 164.964844 L 185.167969 164.964844 L 185.167969 153.328125 Z M 186.125 154.296875 L 187.042969 154.296875 L 187.042969 163.992188 L 186.132812 163.992188 L 186.132812 154.296875 Z M 187.851562 154.296875 L 188.804688 154.296875 L 188.804688 163.992188 L 187.851562 163.992188 Z M 189.609375 154.296875 L 190.5625 154.296875 L 190.5625 163.992188 L 189.609375 163.992188 Z M 191.371094 154.296875 L 192.324219 154.296875 L 192.324219 163.992188 L 191.371094 163.992188 Z M 193.132812 154.296875 L 194.085938 154.296875 L 194.085938 163.992188 L 193.132812 163.992188 Z M 194.894531 154.296875 L 195.808594 154.296875 L 195.808594 163.992188 L 194.894531 163.992188 Z M 194.894531 154.296875 " fill-opacity="1" fill-rule="evenodd"/><path fill="#23a3c2" d="M 185.160156 139.894531 L 196.78125 139.894531 L 196.78125 151.535156 L 185.160156 151.535156 Z M 186.128906 140.867188 L 187.046875 140.867188 L 187.046875 150.566406 L 186.128906 150.566406 Z M 187.851562 140.867188 L 188.804688 140.867188 L 188.804688 150.566406 L 187.851562 150.566406 Z M 189.613281 140.867188 L 190.566406 140.867188 L 190.566406 150.566406 L 189.613281 150.566406 Z M 191.375 140.867188 L 192.328125 140.867188 L 192.328125 150.566406 L 191.375 150.566406 Z M 193.136719 140.867188 L 194.089844 140.867188 L 194.089844 150.566406 L 193.136719 150.566406 Z M 194.894531 140.867188 L 195.8125 140.867188 L 195.8125 150.566406 L 194.894531 150.566406 Z M 194.894531 140.867188 " fill-opacity="1" fill-rule="evenodd"/><path fill="#34bbde" d="M 185.160156 126.460938 L 196.78125 126.460938 L 196.78125 138.101562 L 185.160156 138.101562 Z M 186.128906 127.429688 L 187.046875 127.429688 L 187.046875 137.128906 L 186.128906 137.128906 Z M 187.851562 127.429688 L 188.804688 127.429688 L 188.804688 137.128906 L 187.851562 137.128906 Z M 189.613281 127.429688 L 190.566406 127.429688 L 190.566406 137.128906 L 189.613281 137.128906 Z M 191.375 127.429688 L 192.328125 127.429688 L 192.328125 137.128906 L 191.375 137.128906 Z M 193.136719 127.429688 L 194.089844 127.429688 L 194.089844 137.128906 L 193.136719 137.128906 Z M 194.894531 127.429688 L 195.8125 127.429688 L 195.8125 137.128906 L 194.894531 137.128906 Z M 194.894531 127.429688 " fill-opacity="1" fill-rule="evenodd"/><path fill="#23a3c2" d="M 198.566406 153.328125 L 210.183594 153.328125 L 210.183594 164.964844 L 198.566406 164.964844 Z M 199.53125 154.296875 L 200.449219 154.296875 L 200.449219 163.992188 L 199.53125 163.992188 Z M 201.257812 154.296875 L 202.210938 154.296875 L 202.210938 163.992188 L 201.257812 163.992188 Z M 203.019531 154.296875 L 203.972656 154.296875 L 203.972656 163.992188 L 203.019531 163.992188 Z M 204.777344 154.296875 L 205.730469 154.296875 L 205.730469 163.992188 L 204.777344 163.992188 Z M 206.539062 154.296875 L 207.492188 154.296875 L 207.492188 163.992188 L 206.539062 163.992188 Z M 208.300781 154.296875 L 209.21875 154.296875 L 209.21875 163.992188 L 208.300781 163.992188 Z M 208.300781 154.296875 " fill-opacity="1" fill-rule="evenodd"/><path fill="#d3ecec" d="M 169.238281 183.835938 C 169.664062 183.832031 170.078125 183.910156 170.476562 184.070312 C 170.875 184.230469 171.226562 184.460938 171.53125 184.761719 C 171.835938 185.066406 172.074219 185.414062 172.238281 185.808594 C 172.402344 186.207031 172.484375 186.621094 172.484375 187.050781 C 172.484375 187.480469 172.402344 187.890625 172.238281 188.289062 C 172.070312 188.683594 171.835938 189.035156 171.53125 189.335938 C 171.226562 189.636719 170.875 189.867188 170.476562 190.027344 C 170.078125 190.1875 169.664062 190.265625 169.234375 190.261719 C 168.8125 190.253906 168.410156 190.167969 168.023438 190.003906 C 167.632812 189.835938 167.292969 189.605469 166.996094 189.304688 C 166.699219 189.003906 166.472656 188.65625 166.3125 188.265625 C 166.152344 187.875 166.074219 187.46875 166.074219 187.046875 C 166.074219 186.625 166.152344 186.21875 166.3125 185.828125 C 166.472656 185.4375 166.703125 185.09375 166.996094 184.792969 C 167.292969 184.492188 167.636719 184.257812 168.023438 184.09375 C 168.410156 183.929688 168.816406 183.84375 169.238281 183.835938 " fill-opacity="1" fill-rule="evenodd"/><g clip-path="url(#e7be0ca472)"><path fill="#364548" d="M 169.238281 184.746094 C 169.523438 184.746094 169.800781 184.800781 170.066406 184.902344 C 169.882812 185.011719 169.753906 185.160156 169.671875 185.355469 C 169.589844 185.554688 169.578125 185.753906 169.632812 185.957031 C 169.6875 186.164062 169.800781 186.328125 169.964844 186.457031 C 170.132812 186.589844 170.324219 186.652344 170.535156 186.652344 C 170.890625 186.652344 171.199219 186.457031 171.359375 186.167969 C 171.484375 186.472656 171.542969 186.789062 171.53125 187.121094 C 171.519531 187.453125 171.441406 187.765625 171.296875 188.0625 C 171.152344 188.359375 170.949219 188.613281 170.695312 188.824219 C 170.441406 189.035156 170.152344 189.183594 169.832031 189.269531 C 169.515625 189.355469 169.191406 189.371094 168.863281 189.316406 C 168.539062 189.261719 168.238281 189.144531 167.964844 188.960938 C 167.6875 188.777344 167.464844 188.542969 167.289062 188.261719 C 167.113281 187.980469 167.003906 187.675781 166.960938 187.347656 C 166.917969 187.019531 166.945312 186.699219 167.039062 186.382812 C 167.136719 186.0625 167.292969 185.78125 167.511719 185.53125 C 167.730469 185.285156 167.988281 185.089844 168.289062 184.953125 C 168.589844 184.816406 168.90625 184.75 169.238281 184.75 M 112.53125 177.183594 L 261.664062 177.183594 C 258.417969 176.359375 251.390625 175.246094 252.550781 170.980469 C 246.644531 177.824219 232.40625 175.785156 228.8125 172.410156 C 224.8125 178.222656 201.515625 176.011719 199.890625 171.484375 C 194.871094 177.378906 179.328125 177.378906 174.3125 171.484375 C 172.683594 176.007812 149.390625 178.222656 145.386719 172.410156 C 141.792969 175.785156 127.5625 177.824219 121.652344 170.984375 C 122.808594 175.246094 115.78125 176.359375 112.53125 177.183594 " fill-opacity="1" fill-rule="evenodd"/></g><path fill="#bdd9d7" d="M 177.761719 206.984375 C 169.820312 203.210938 165.464844 198.082031 163.039062 192.480469 C 160.089844 193.324219 156.542969 193.863281 152.425781 194.09375 C 150.875 194.179688 149.242188 194.226562 147.53125 194.226562 C 145.554688 194.226562 143.472656 194.167969 141.289062 194.050781 C 148.570312 201.335938 157.527344 206.953125 174.113281 207.054688 C 175.335938 207.054688 176.550781 207.03125 177.761719 206.984375 " fill-opacity="1" fill-rule="evenodd"/><path fill="#d3ecec" d="M 165.984375 197.640625 C 164.886719 196.144531 163.816406 194.269531 163.039062 192.472656 C 160.089844 193.316406 156.542969 193.855469 152.421875 194.085938 C 155.253906 195.625 159.300781 197.050781 165.988281 197.640625 " fill-opacity="1" fill-rule="evenodd"/></svg>