<svg xmlns="http://www.w3.org/2000/svg" xmlns:xlink="http://www.w3.org/1999/xlink" width="500" zoomAndPan="magnify" viewBox="0 0 375 374.999991" height="500" preserveAspectRatio="xMidYMid meet" version="1.0"><defs><clipPath id="3d7bd38161"><path d="M 118 131.316406 L 262.5 131.316406 L 262.5 243.816406 L 118 243.816406 Z M 118 131.316406 " clip-rule="nonzero"/></clipPath><clipPath id="b0cb2de449"><path d="M 112.5 167 L 117 167 L 117 174 L 112.5 174 Z M 112.5 167 " clip-rule="nonzero"/></clipPath><clipPath id="2b868d8659"><path d="M 177 131.316406 L 183 131.316406 L 183 137 L 177 137 Z M 177 131.316406 " clip-rule="nonzero"/></clipPath><clipPath id="84ec5ad6de"><path d="M 176 131.316406 L 189 131.316406 L 189 143 L 176 143 Z M 176 131.316406 " clip-rule="nonzero"/></clipPath></defs><path fill="#ffff00" d="M 167.867188 155.992188 L 157.941406 157.605469 L 148.882812 161.582031 L 141.1875 166.425781 L 133.867188 175.371094 L 129.730469 179.757812 L 125.730469 181.234375 L 124.675781 178.644531 L 126.523438 175.972656 L 126.941406 172.203125 L 128.179688 172.253906 L 129.53125 173.488281 L 129.167969 169.648438 L 127.667969 168.640625 L 127.710938 167.179688 L 124.160156 169.191406 L 120.941406 172.996094 L 120.269531 176.390625 L 121.644531 179.113281 L 122.929688 183.734375 L 125.539062 184.972656 L 128.285156 184.839844 L 130.890625 183.324219 L 129.152344 192.148438 L 130.890625 201.960938 L 128.976562 206.492188 L 122.714844 213.246094 L 123.828125 217.285156 L 126.792969 221.964844 L 132.390625 225.902344 L 135.355469 226.3125 L 138.65625 226.425781 L 136.597656 234.882812 L 144.167969 237.992188 L 153.597656 239.234375 L 156.824219 237.125 L 157.070312 231.40625 L 160.671875 225.441406 L 160.917969 220.71875 L 169.605469 221.339844 L 177.667969 220.597656 L 169.605469 225.441406 L 170.972656 231.277344 L 176.058594 239.234375 L 181.019531 241.34375 L 184.992188 239.730469 L 186.605469 236.5 L 194.917969 230.164062 L 196.527344 231.53125 L 209.5625 232.027344 L 212.167969 229.914062 L 212.414062 226.183594 L 211.546875 224.570312 L 210.925781 214.507812 L 206.582031 205.8125 L 207.324219 201.960938 L 209.929688 203.328125 L 217.253906 210.160156 L 220.851562 210.410156 L 224.820312 208.796875 L 228.796875 205.8125 L 230.78125 199.351562 L 242.445312 200.097656 L 249.515625 197.363281 L 255.226562 192.023438 L 259.320312 184.316406 L 260.3125 175.25 L 259.441406 164.6875 L 257.210938 155.246094 L 254.972656 152.265625 L 251.875 151.269531 L 246.414062 157.234375 L 241.449219 158.972656 L 237.109375 151.765625 L 232.765625 147.792969 L 230.40625 146.300781 L 220.972656 138.472656 L 213.410156 134.371094 L 205.839844 133.75 L 197.027344 135.242188 L 189.332031 138.097656 L 184 142.449219 L 179.777344 147.542969 L 175.4375 148.785156 L 167.867188 155.992188 " fill-opacity="1" fill-rule="nonzero"/><path fill="#ffffcc" d="M 139.078125 178.414062 C 130.574219 188.34375 132.460938 200.390625 134.820312 212.183594 C 133.5625 209.007812 132.304688 205.824219 131.046875 202.640625 C 130.582031 199.726562 130.117188 196.808594 129.65625 193.894531 C 129.789062 190.910156 129.917969 187.925781 130.054688 184.945312 C 131.246094 182.09375 132.4375 179.246094 133.628906 176.394531 C 135.414062 173.742188 137.203125 171.09375 138.988281 168.441406 C 141.769531 166.121094 144.550781 163.800781 147.332031 161.480469 C 150.375 160.222656 153.421875 158.960938 156.464844 157.703125 C 160.039062 157.238281 163.617188 156.777344 167.191406 156.3125 C 163.878906 160.089844 160.570312 163.867188 157.261719 167.644531 C 149.289062 170.234375 144.585938 171.980469 139.078125 178.414062 " fill-opacity="1" fill-rule="nonzero"/><path fill="#ffffcc" d="M 179.105469 148.15625 C 173.195312 153.933594 169.964844 158.289062 166.203125 165.050781 C 163.511719 169.886719 160.496094 174.542969 157.664062 179.3125 C 156.234375 181.726562 156.101562 183.75 155.671875 186.535156 C 154.28125 184.878906 152.890625 183.222656 151.5 181.566406 C 152.164062 179.574219 152.824219 177.585938 153.488281 175.597656 C 155.738281 171.554688 157.988281 167.511719 160.238281 163.46875 C 165.007812 158.765625 169.773438 154.058594 174.535156 149.351562 C 176.058594 148.953125 177.582031 148.558594 179.105469 148.15625 " fill-opacity="1" fill-rule="nonzero"/><path fill="#ffffcc" d="M 208.304688 133.84375 C 203.566406 135.617188 195.703125 136.203125 195.160156 141.644531 C 194.765625 145.507812 195.453125 147.449219 197.777344 151.539062 C 192.03125 145.585938 190.609375 146.507812 179.5 148.355469 C 181.09375 146.105469 182.679688 143.851562 184.269531 141.597656 C 187.050781 139.875 189.832031 138.148438 192.613281 136.425781 C 196.183594 135.632812 199.761719 134.835938 203.339844 134.039062 C 204.988281 133.972656 206.644531 133.910156 208.304688 133.839844 " fill-opacity="1" fill-rule="nonzero"/><path fill="#cccc00" d="M 221.367188 207.441406 C 222.941406 208.414062 222.90625 209.117188 222.640625 209.785156 C 223.890625 209.289062 225.128906 208.789062 226.371094 208.292969 C 227.179688 207.207031 227.980469 206.128906 228.789062 205.042969 C 229.386719 203.503906 229.984375 201.960938 230.582031 200.414062 C 229.820312 199.839844 229.054688 199.265625 228.292969 198.6875 C 224.953125 199.117188 221.613281 199.546875 218.273438 199.972656 C 218.027344 200.648438 217.777344 201.320312 217.523438 201.996094 C 217.601562 202.957031 217.671875 203.917969 217.742188 204.878906 C 218.0625 205.449219 218.378906 206.015625 218.703125 206.585938 C 219.199219 206.832031 219.695312 207.085938 220.195312 207.332031 C 220.582031 207.367188 220.972656 207.40625 221.367188 207.441406 " fill-opacity="1" fill-rule="nonzero"/><path fill="#cccc00" d="M 220.433594 190.289062 C 215.410156 191.738281 215.453125 192.136719 213.964844 197.125 C 215.925781 193.980469 217.371094 192.394531 220.433594 190.289062 " fill-opacity="1" fill-rule="nonzero"/><path fill="#cccc00" d="M 253.820312 152.960938 C 252.929688 153.371094 252.058594 153.570312 251.503906 154.386719 C 250.300781 156.148438 249.269531 157.628906 247.285156 158.863281 C 246.285156 159.488281 245.25 159.890625 244.1875 160.222656 C 243.304688 160.496094 242.777344 160.25 242.027344 160.789062 C 242.472656 160.867188 242.917969 160.945312 243.363281 161.023438 L 246.304688 161.023438 C 247.507812 160.277344 248.714844 159.527344 249.925781 158.78125 C 250.636719 158.035156 251.351562 157.289062 252.058594 156.542969 C 252.644531 155.347656 253.234375 154.152344 253.820312 152.960938 " fill-opacity="1" fill-rule="nonzero"/><path fill="#cccc00" d="M 173.835938 164.117188 C 171.855469 169.53125 170.132812 174.167969 167.140625 179.070312 C 170.972656 174.933594 173.296875 171.417969 175.496094 166.738281 C 176.347656 164.921875 176.511719 162.789062 178.886719 163.582031 C 178.992188 165.398438 179.375 167.210938 179.484375 169.023438 C 180.765625 159.808594 184.386719 155.957031 192.804688 152.378906 C 190.421875 152.664062 188.042969 152.949219 185.660156 153.234375 C 183.425781 153.730469 181.1875 154.230469 178.953125 154.726562 C 177.84375 156.328125 176.746094 157.929688 175.644531 159.527344 C 175.039062 161.058594 174.4375 162.585938 173.835938 164.117188 " fill-opacity="1" fill-rule="nonzero"/><path fill="#cccc00" d="M 190.140625 163.902344 C 191.957031 172.457031 194.566406 180.667969 195.703125 189.355469 C 196.441406 195 196.523438 197.714844 193.683594 202.585938 C 190.578125 202.382812 188.660156 202.734375 185.65625 203.71875 C 173.71875 207.640625 166.871094 213.398438 158.824219 201.789062 C 161.390625 203.003906 163.960938 204.210938 166.53125 205.425781 C 168.359375 205.066406 170.191406 204.703125 172.019531 204.347656 C 175.257812 202.457031 178.488281 200.578125 181.722656 198.6875 C 184.246094 198.191406 186.761719 197.691406 189.285156 197.195312 C 190.105469 193.78125 190.917969 190.363281 191.738281 186.953125 C 191.136719 182.433594 190.527344 177.917969 189.925781 173.398438 C 189.855469 171.265625 189.785156 169.132812 189.714844 167 C 189.855469 165.964844 190 164.933594 190.140625 163.902344 " fill-opacity="1" fill-rule="nonzero"/><path fill="#cccc00" d="M 210.710938 216.828125 C 209.703125 223.78125 213.015625 227.515625 211.644531 229.433594 C 211.253906 229.976562 210.734375 230.925781 210.140625 231.183594 C 208.046875 232.109375 205.160156 231.007812 204.953125 231.554688 L 198.027344 231.554688 C 197.101562 231.160156 196.175781 230.773438 195.253906 230.382812 C 196.675781 228.710938 198.097656 227.035156 199.519531 225.363281 C 200.902344 222.34375 202.289062 219.320312 203.671875 216.292969 C 204.5625 213.234375 205.453125 210.179688 206.335938 207.121094 L 207.722656 207.121094 C 208.71875 210.355469 209.714844 213.589844 210.710938 216.828125 " fill-opacity="1" fill-rule="nonzero"/><path fill="#cccc00" d="M 199.0625 196.625 C 199.625 199.78125 200.605469 200.53125 202.085938 203.585938 C 201.101562 208.566406 199.515625 214.496094 197.605469 218.890625 C 196.804688 220.742188 196.152344 221.769531 194.738281 223.199219 C 192.34375 225.621094 189.917969 227.730469 187.207031 229.832031 C 185.25 231.335938 183.886719 230.582031 181.476562 230.242188 C 180.449219 232.097656 180.164062 233.136719 178.277344 234.082031 C 175.375 235.535156 172.773438 232.402344 170.496094 230.558594 C 172.140625 233.132812 173.789062 235.703125 175.433594 238.277344 L 178.839844 241.480469 C 179.800781 241.621094 180.761719 241.761719 181.722656 241.90625 C 182.996094 241.121094 184.28125 240.339844 185.554688 239.554688 C 186.230469 238.277344 186.910156 236.996094 187.582031 235.714844 C 189.003906 234.648438 190.421875 233.582031 191.84375 232.515625 C 193.582031 231.019531 195.328125 229.527344 197.066406 228.03125 C 198.167969 226.464844 199.269531 224.90625 200.371094 223.339844 C 201.363281 221.488281 202.359375 219.640625 203.355469 217.789062 C 204.632812 213.949219 205.914062 210.109375 207.191406 206.261719 C 207.296875 204.808594 207.402344 203.351562 207.511719 201.890625 C 205.914062 201.179688 204.316406 200.464844 202.710938 199.757812 C 201.539062 198.652344 200.234375 197.726562 199.0625 196.625 " fill-opacity="1" fill-rule="nonzero"/><path fill="#cccc00" d="M 160.832031 218.855469 C 166.210938 218.855469 171.890625 218.558594 176.820312 216.292969 C 178.214844 214.203125 179.589844 212.488281 181.292969 210.644531 C 179.742188 213.574219 179.257812 215.238281 178.839844 218.539062 C 178.308594 219.320312 177.773438 220.097656 177.242188 220.882812 C 173.195312 220.988281 169.144531 221.09375 165.09375 221.207031 C 163.78125 221.058594 162.464844 220.917969 161.152344 220.777344 C 161.007812 220.632812 160.867188 220.492188 160.726562 220.351562 C 160.761719 219.851562 160.796875 219.355469 160.832031 218.855469 " fill-opacity="1" fill-rule="nonzero"/><path fill="#cccc00" d="M 160.085938 215.121094 C 159.945312 213.859375 159.808594 212.59375 159.667969 211.335938 C 158.75 216.867188 158.96875 220.585938 156.425781 225.546875 C 154.523438 227.75 152.179688 229.761719 149.5 230.832031 C 149.726562 232.191406 149.792969 233.042969 149.664062 234.039062 C 149.191406 237.628906 142.023438 236.042969 139.074219 235.898438 C 143.804688 237.117188 148.535156 238.335938 153.265625 239.554688 C 154.332031 239.128906 155.394531 238.707031 156.460938 238.277344 C 156.816406 236.214844 157.171875 234.152344 157.527344 232.085938 C 158.523438 230.242188 159.519531 228.386719 160.511719 226.542969 C 160.691406 225.398438 160.867188 224.261719 161.046875 223.125 C 160.726562 220.457031 160.40625 217.789062 160.085938 215.121094 " fill-opacity="1" fill-rule="nonzero"/><path fill="#cccc00" d="M 152.09375 183.859375 C 151.945312 186.550781 151.769531 187.671875 152.957031 190.054688 C 154.464844 193.074219 156.316406 195.917969 157.953125 198.898438 C 158.132812 196.914062 158.308594 194.917969 158.488281 192.925781 C 156.355469 189.902344 154.222656 186.878906 152.09375 183.859375 " fill-opacity="1" fill-rule="nonzero"/><path fill="#cccc00" d="M 130.214844 204.199219 C 129.753906 205.183594 129.292969 206.164062 128.832031 207.148438 C 130.101562 211.433594 131.230469 214.144531 133.648438 217.882812 C 133.226562 219.402344 132.910156 220.0625 131.941406 221.300781 C 129.816406 220.972656 127.925781 220.878906 125.769531 220.882812 C 128.148438 222.730469 130.53125 224.582031 132.910156 226.429688 C 134.082031 226.21875 135.253906 226.007812 136.425781 225.792969 C 137.597656 224.617188 138.773438 223.445312 139.945312 222.273438 C 138.273438 219.675781 136.605469 217.078125 134.933594 214.484375 C 133.363281 211.054688 131.789062 207.628906 130.214844 204.199219 " fill-opacity="1" fill-rule="nonzero"/><path fill="#cccc00" d="M 253.839844 151.542969 C 255.285156 158.070312 257.15625 164.097656 256.984375 170.785156 C 256.773438 178.992188 255.171875 189.355469 247.578125 194.304688 C 239.078125 199.84375 229.09375 197.222656 219.765625 194.847656 L 231.167969 199.546875 C 234.722656 199.722656 238.277344 199.898438 241.824219 200.078125 C 244.242188 199.363281 246.660156 198.652344 249.070312 197.945312 C 250.957031 196.378906 252.835938 194.8125 254.722656 193.25 C 256.144531 190.257812 257.5625 187.273438 258.984375 184.285156 C 259.519531 180.835938 260.050781 177.382812 260.582031 173.933594 C 260.15625 170.554688 259.726562 167.175781 259.308594 163.796875 C 258.523438 160.453125 257.738281 157.109375 256.960938 153.765625 C 255.917969 153.023438 254.875 152.285156 253.839844 151.542969 " fill-opacity="1" fill-rule="nonzero"/><path fill="#cccc00" d="M 126.945312 171.003906 C 123.085938 173.519531 121.570312 174.625 121.992188 179.285156 C 122.378906 180.683594 122.761719 182.078125 123.148438 183.476562 C 123.691406 183.84375 124.234375 184.214844 124.78125 184.582031 C 125.453125 184.808594 126.128906 185.03125 126.800781 185.257812 C 128.019531 184.96875 129.238281 184.679688 130.457031 184.390625 C 131.082031 182.449219 131.707031 180.507812 132.332031 178.5625 C 130.601562 179.414062 128.867188 180.265625 127.136719 181.117188 L 125.9375 181.117188 C 125.488281 180.425781 125.039062 179.734375 124.589844 179.046875 C 125.132812 178.242188 125.679688 177.441406 126.226562 176.636719 C 126.511719 175.113281 126.800781 173.589844 127.089844 172.0625 C 127.457031 172.175781 127.828125 172.289062 128.195312 172.398438 C 128.644531 172.753906 129.09375 173.105469 129.542969 173.460938 C 129.476562 172.65625 129.414062 171.855469 129.351562 171.050781 C 129.046875 170.539062 128.742188 170.027344 128.4375 169.511719 C 128.132812 169.253906 127.828125 169 127.523438 168.742188 C 127.332031 169.496094 127.136719 170.25 126.945312 171.003906 " fill-opacity="1" fill-rule="nonzero"/><path fill="#cccc00" d="M 213.550781 134.265625 C 216.972656 137.453125 221.179688 140.222656 223.917969 144.113281 C 224.976562 145.621094 226.15625 146.390625 223.902344 148.519531 C 226.285156 147.839844 227.175781 147.910156 229.082031 148.144531 C 232.554688 148.5625 235.804688 153.507812 236.015625 157.046875 C 235.972656 157.378906 235.050781 158.128906 232.367188 158.871094 C 232.316406 158.976562 230.851562 158.671875 230.886719 158.773438 C 231.167969 159.535156 231.535156 159.652344 232.109375 160.011719 C 232.234375 160.859375 232.308594 162.171875 232.890625 163.101562 C 234.582031 163.070312 236.230469 163.253906 237.882812 163.582031 C 238.4375 164.507812 238.355469 165.433594 238.3125 166.355469 C 238.949219 166.25 239.585938 166.144531 240.226562 166.039062 C 240.050781 164.578125 239.875 163.121094 239.699219 161.664062 C 240.265625 160.703125 240.835938 159.742188 241.402344 158.78125 C 240.582031 156.933594 239.769531 155.082031 238.949219 153.234375 C 237.386719 151.738281 235.820312 150.246094 234.257812 148.75 C 234.113281 148.742188 233.960938 148.738281 233.808594 148.730469 C 232.050781 147.648438 230.296875 146.570312 228.53125 145.488281 C 225.667969 143.140625 222.800781 140.792969 219.929688 138.441406 C 217.804688 137.050781 215.675781 135.660156 213.550781 134.265625 " fill-opacity="1" fill-rule="nonzero"/><path fill="#cccc00" d="M 219.316406 160.558594 C 219.140625 160.875 218.867188 161.378906 218.515625 161.730469 C 219.941406 163.082031 220.644531 163.988281 221.15625 165.898438 C 219.546875 166.699219 217.929688 167.503906 216.320312 168.304688 C 214.953125 169.613281 213.585938 170.925781 212.21875 172.234375 C 210.421875 171.265625 209.976562 170.523438 209.109375 168.675781 C 208.097656 168.945312 207.136719 169.203125 206.300781 168.894531 C 206.832031 168.898438 207.15625 168.765625 207.6875 168.4375 C 208.554688 167.535156 209.421875 166.632812 210.292969 165.730469 C 211.828125 164.566406 213.363281 163.402344 214.894531 162.238281 C 215.898438 161.910156 216.90625 161.582031 217.90625 161.257812 C 218.292969 161.097656 218.9375 160.714844 219.316406 160.558594 " fill-opacity="1" fill-rule="nonzero"/><path fill="#cccc00" d="M 223.773438 165.378906 C 218.636719 168.144531 213.726562 170.925781 211.101562 176.183594 C 211.101562 169.511719 217.789062 166.578125 223.773438 165.378906 " fill-opacity="1" fill-rule="nonzero"/><path fill="#cccc00" d="M 210.082031 152.257812 C 206.269531 154.859375 203.578125 160.109375 203.910156 165.226562 C 202.675781 160.796875 203.117188 156.609375 206.925781 153.550781 C 207.566406 153.238281 208.210938 152.921875 208.855469 152.609375 C 209.261719 152.492188 209.671875 152.375 210.082031 152.257812 " fill-opacity="1" fill-rule="nonzero"/><g clip-path="url(#3d7bd38161)"><path fill="#000000" d="M 261.367188 164.335938 C 260.671875 159.972656 259.53125 155.738281 257.9375 152.691406 C 257.742188 152.320312 257.449219 151.945312 257.085938 151.582031 C 256.296875 150.804688 255.125 150.066406 253.921875 149.648438 C 252.636719 149.207031 251.292969 149.117188 250.21875 149.679688 C 249.9375 149.824219 249.679688 150.011719 249.453125 150.246094 C 248.757812 150.953125 248.171875 151.808594 247.585938 152.664062 C 246.933594 153.617188 246.28125 154.578125 245.496094 155.246094 C 244.585938 156.027344 243.445312 156.5 242.375 156.929688 C 241.90625 155.789062 241.359375 154.746094 240.753906 153.769531 C 240.015625 152.597656 239.183594 151.5 238.265625 150.402344 C 237.507812 149.507812 236.78125 148.835938 235.992188 148.234375 C 235.195312 147.628906 234.386719 147.117188 233.4375 146.527344 C 230.902344 144.9375 228.75 143.042969 226.546875 141.109375 C 225.546875 140.230469 224.539062 139.34375 223.550781 138.527344 C 218.308594 134.203125 213.421875 132.105469 208.199219 131.777344 C 203.003906 131.449219 197.523438 132.875 191.046875 135.605469 C 187.925781 136.921875 185.601562 138.476562 183.582031 140.347656 C 181.652344 142.136719 180.015625 144.195312 178.214844 146.597656 C 177.164062 146.671875 176.234375 146.828125 175.285156 147.207031 C 174.242188 147.625 173.191406 148.304688 171.929688 149.417969 C 171.035156 150.207031 170.183594 151 169.355469 151.800781 C 168.582031 152.550781 167.828125 153.316406 167.085938 154.085938 C 161.195312 155.035156 156.394531 156.082031 152.09375 157.75 C 147.695312 159.453125 143.820312 161.800781 139.839844 165.335938 C 138.214844 166.777344 136.804688 168.304688 135.574219 169.921875 C 134.363281 171.507812 133.324219 173.179688 132.417969 174.9375 C 131.621094 175.820312 130.820312 176.710938 129.957031 177.492188 C 129.117188 178.25 128.21875 178.890625 127.214844 179.277344 C 126.628906 179.503906 126.386719 179.636719 126.359375 179.625 C 126.332031 179.609375 126.316406 179.523438 126.273438 179.359375 C 127.71875 177.980469 127.945312 175.953125 128.078125 173.9375 C 128.253906 174.148438 128.417969 174.402344 128.589844 174.667969 C 128.78125 174.964844 128.976562 175.269531 129.210938 175.566406 L 130.191406 176.804688 L 130.535156 175.257812 C 130.824219 173.964844 131.042969 172.238281 130.707031 170.746094 C 130.488281 169.773438 130.039062 168.910156 129.253906 168.296875 C 129.328125 168.101562 129.402344 167.921875 129.46875 167.742188 C 129.714844 167.113281 129.96875 166.464844 130.183594 165.855469 L 130.609375 164.644531 L 129.34375 164.863281 C 127.660156 165.15625 124.046875 167.144531 121.5 169.792969 C 120.554688 170.773438 119.738281 171.859375 119.207031 173 C 118.652344 174.1875 118.402344 175.425781 118.617188 176.667969 C 118.804688 177.753906 119.347656 178.820312 120.332031 179.824219 C 120.511719 180.550781 120.679688 181.179688 120.855469 181.746094 C 121.058594 182.394531 121.277344 182.96875 121.550781 183.539062 C 122.292969 185.082031 123.472656 186.023438 124.839844 186.464844 C 125.941406 186.816406 127.15625 186.835938 128.347656 186.574219 C 128.117188 187.921875 127.96875 189.332031 127.910156 190.875 C 127.835938 192.886719 127.910156 195.113281 128.132812 197.691406 C 128.179688 198.261719 128.253906 198.882812 128.347656 199.5625 C 128.429688 200.144531 128.527344 200.707031 128.632812 201.269531 C 128.410156 201.878906 128.183594 202.488281 127.960938 203.097656 C 127.613281 204.042969 127.265625 204.992188 126.921875 205.933594 C 126.15625 206.691406 125.394531 207.449219 124.632812 208.203125 C 123.917969 208.90625 123.207031 209.617188 122.496094 210.324219 C 122.433594 210.382812 122.195312 210.613281 121.976562 210.824219 C 120.535156 212.214844 120.25 212.488281 120.65625 214.941406 C 120.910156 216.433594 121.402344 217.960938 122.171875 219.425781 C 122.878906 220.773438 123.828125 222.085938 125.050781 223.3125 C 126.574219 224.839844 129.066406 226.742188 131.679688 227.730469 C 133.171875 228.300781 134.710938 228.582031 136.15625 228.347656 C 136.082031 228.570312 136.011719 228.792969 135.929688 229.015625 C 135.703125 229.644531 135.449219 230.277344 135.167969 230.890625 C 133.398438 234.777344 135.214844 236.8125 138.046875 238.101562 C 139.460938 238.746094 141.140625 239.1875 142.703125 239.597656 C 143.023438 239.679688 143.34375 239.761719 143.746094 239.871094 C 145.597656 240.371094 148.792969 241.292969 151.714844 241.480469 C 154.902344 241.679688 157.777344 241.023438 158.546875 238.15625 C 158.851562 237.019531 159.027344 236.148438 159.101562 235.300781 C 159.167969 234.507812 159.140625 233.710938 159.050781 232.71875 C 159.957031 230.703125 160.34375 230.136719 161.007812 229.164062 C 161.136719 228.972656 161.296875 228.738281 161.34375 228.667969 C 162.054688 227.613281 162.390625 226.863281 162.511719 226.019531 C 162.625 225.203125 162.527344 224.390625 162.382812 223.148438 C 162.367188 223.03125 162.34375 222.859375 162.316406 222.632812 C 164.179688 222.871094 166.019531 223 167.847656 223.011719 C 168.777344 223.019531 169.707031 222.988281 170.632812 222.941406 C 170.398438 223.058594 170.164062 223.183594 169.910156 223.3125 C 169.796875 223.371094 169.679688 223.429688 169.566406 223.492188 C 167.101562 224.757812 167 227.15625 167.769531 229.625 C 168.464844 231.851562 169.894531 234.128906 170.792969 235.511719 C 172.679688 238.417969 174.476562 240.886719 176.65625 242.222656 C 178.945312 243.625 181.558594 243.789062 184.929688 241.964844 C 186.644531 241.035156 187.183594 240.082031 187.914062 238.804688 C 188.136719 238.417969 188.382812 237.992188 188.660156 237.574219 C 189.367188 237.105469 191.128906 235.644531 192.863281 234.214844 C 193.449219 233.730469 194.039062 233.242188 194.707031 232.695312 C 195.164062 233.039062 195.714844 233.273438 196.382812 233.429688 C 197.25 233.636719 198.285156 233.730469 199.519531 233.816406 C 200.453125 233.886719 203.472656 233.886719 205.421875 233.886719 L 206.828125 233.886719 C 208.84375 233.898438 210.46875 233.792969 211.699219 233.097656 C 213.011719 232.351562 213.789062 231.03125 213.960938 228.667969 C 214.035156 227.621094 214.046875 226.976562 213.902344 226.3125 C 213.765625 225.699219 213.496094 225.132812 213.046875 224.3125 C 213.015625 223.292969 212.988281 222.273438 212.964844 221.246094 C 212.933594 220.167969 212.90625 219.085938 212.875 218 C 212.839844 216.722656 212.699219 215.683594 212.441406 214.664062 C 212.183594 213.648438 211.816406 212.675781 211.332031 211.503906 C 210.996094 210.714844 210.726562 209.984375 210.464844 209.277344 L 209.753906 209.535156 L 209.867188 209.492188 L 210.464844 209.277344 L 210.464844 209.269531 C 210.042969 208.132812 209.625 207.027344 209.039062 205.839844 C 209.082031 205.613281 209.117188 205.367188 209.15625 205.101562 C 209.53125 205.464844 209.90625 205.824219 210.28125 206.1875 L 211.9375 207.789062 C 213.199219 209 214.355469 210.113281 215.714844 210.914062 C 217.113281 211.746094 218.695312 212.226562 220.738281 212.125 C 222.875 212.027344 225.164062 211.125 227.050781 209.734375 C 228.871094 208.386719 230.335938 206.566406 230.949219 204.558594 C 231.125 203.972656 231.300781 203.390625 231.476562 202.808594 C 231.617188 202.347656 231.757812 201.882812 231.898438 201.414062 C 234.902344 201.925781 238.125 202.089844 241.230469 201.765625 C 244.230469 201.449219 247.132812 200.683594 249.632812 199.351562 C 253.3125 197.386719 256.0625 194.492188 258.042969 191.054688 L 258.046875 191.054688 C 260.261719 187.21875 261.496094 182.695312 261.972656 178.039062 C 262.347656 174.308594 262.140625 169.230469 261.367188 164.335938 Z M 222.496094 195.710938 C 220.769531 195.128906 219.5625 194.28125 218.046875 193.320312 C 218.457031 195.1875 218.648438 197.160156 218.097656 199.023438 C 217.21875 201.976562 215.808594 206.816406 219.820312 207.707031 C 221.34375 208.046875 222.035156 208 224.1875 206.886719 C 222.449219 207.277344 221.566406 207.183594 220.371094 206.960938 C 219.289062 206.761719 218.707031 206.070312 218.402344 205.253906 C 218.785156 205.53125 219.40625 205.675781 220.457031 205.933594 C 223.433594 206.652344 226.261719 205.21875 226.816406 203.15625 C 227.140625 201.949219 227.085938 201.316406 227.765625 199.675781 C 228.378906 199.867188 229.019531 200.039062 229.667969 200.195312 C 229.304688 201.398438 228.9375 202.597656 228.566406 203.800781 C 227.613281 206.921875 223.890625 209.433594 220.605469 209.375 C 217.570312 209.324219 215.644531 207.417969 213.550781 205.554688 C 212.101562 204.265625 210.714844 203.035156 209.332031 201.8125 C 205.558594 200.617188 202.53125 199.222656 199.023438 196.625 C 201.515625 199.5625 203.210938 201.1875 206.691406 202.652344 C 206.183594 207.824219 204.390625 211.59375 202.859375 216.539062 C 202.167969 218.773438 196.699219 227.742188 195.183594 228.617188 C 194.105469 229.238281 187.335938 234.949219 186.066406 235.699219 C 185.117188 236.960938 184.285156 238.707031 182.855469 239.457031 C 178.511719 241.753906 175.726562 237.351562 173.390625 233.636719 C 172.324219 231.941406 169.367188 227.0625 171.941406 225.691406 C 174.378906 224.402344 175.742188 223.480469 178.230469 221.847656 C 178.59375 222.515625 179.222656 223.152344 179.628906 223.820312 C 179.535156 223.09375 179.449219 222.367188 179.355469 221.636719 C 179.191406 220.316406 179.199219 219.25 179.304688 217.917969 C 179.410156 216.632812 179.507812 215.351562 179.605469 214.066406 C 179.234375 215.367188 178.488281 216.675781 178.113281 217.984375 C 177.960938 218.503906 177.839844 218.925781 177.769531 219.320312 C 172.195312 220.457031 166.65625 220.53125 161.078125 219.535156 C 160.722656 217.464844 160.289062 215.308594 159.925781 213.765625 C 159.816406 215.496094 159.886719 220.28125 159.878906 222.960938 C 159.871094 225.027344 159.785156 225.746094 158.714844 227.507812 C 157.714844 229.15625 157.292969 229.53125 155.890625 232.328125 C 156.007812 234.085938 156.011719 235.253906 155.542969 236.925781 C 154.765625 239.703125 146.925781 237.550781 144.855469 236.984375 C 142.308594 236.285156 137.042969 235.246094 138.367188 231.847656 C 139.53125 228.851562 140.269531 225.699219 140.839844 221.511719 C 136.171875 214.78125 131.832031 205.554688 131 197.382812 C 130.355469 191.03125 130.742188 187.128906 132.113281 183.246094 C 134.285156 177.097656 137.328125 171.773438 142.207031 167.484375 C 148.789062 161.703125 154.9375 159.382812 164.570312 157.914062 C 162.253906 160.507812 159.960938 163.253906 157.464844 166.199219 C 154.9375 169.179688 153.433594 172.1875 151.828125 175.449219 C 149.609375 179.949219 149.660156 181.664062 152.597656 185.617188 C 155.132812 189.019531 156.5 190.550781 157.605469 193.886719 C 156.691406 195.777344 156.359375 197.363281 156.054688 199.945312 C 159.15625 203.339844 161.460938 205.664062 164.472656 206.378906 C 167.429688 207.085938 169.894531 206.949219 172.539062 205.59375 C 178.40625 202.585938 183.839844 198.707031 190.460938 198.546875 C 193.53125 191.003906 193.21875 184.703125 191.75 177.40625 C 190.742188 172.421875 190.339844 167.703125 190.03125 162.625 C 188.789062 167.855469 188.554688 172.457031 189.472656 177.667969 C 190.585938 183.949219 191.445312 190.890625 188.359375 196.410156 C 182.371094 196.867188 177.234375 200.519531 171.835938 203.316406 C 169.671875 204.441406 167.410156 204.550781 165.011719 203.890625 C 162.78125 203.28125 161.277344 201.800781 158.875 199.027344 C 158.839844 196.246094 159.464844 194.960938 160.742188 192.441406 C 162.792969 188.386719 165.058594 184.617188 167.542969 180.636719 C 164.5 184.3125 161.617188 187.382812 159.222656 191.078125 C 158.308594 188.472656 157 187.144531 154.832031 184.203125 C 152.710938 181.332031 152.492188 180.074219 154.074219 176.75 C 155.667969 173.410156 157.015625 170.476562 159.726562 167.546875 C 164.410156 162.484375 168.699219 156.847656 173.824219 151.859375 C 176.605469 149.152344 177.726562 149.246094 181.417969 148.6875 C 184.753906 148.179688 188.003906 147.542969 191.40625 146.753906 C 188.121094 147.058594 184.941406 147.171875 181.738281 147.25 C 181.703125 147.253906 181.675781 147.253906 181.640625 147.253906 C 184.789062 143.226562 186.617188 140.984375 191.734375 138.757812 C 204.320312 133.28125 212.324219 132.691406 222.222656 141.015625 C 224.78125 143.171875 227.023438 145.269531 229.621094 147.128906 C 228.679688 147.210938 227.863281 147.378906 226.792969 147.800781 C 228.097656 147.550781 229.609375 147.800781 230.96875 148.046875 C 231.347656 148.296875 231.742188 148.539062 232.140625 148.773438 C 233.972656 149.855469 235.015625 150.453125 236.253906 152.1875 C 237.566406 154.015625 238.660156 155.84375 239.628906 157.859375 C 238.996094 157.632812 238.460938 157.441406 237.996094 157.300781 C 237.644531 157.140625 237.269531 157.039062 236.863281 156.996094 C 236.074219 156.921875 235.3125 157.117188 234.679688 157.507812 C 234.65625 157.519531 234.628906 157.53125 234.605469 157.542969 C 233.589844 158.039062 232.015625 158.601562 230.960938 158.773438 C 231.5 158.957031 232.691406 159.027344 233.246094 158.804688 C 233.320312 158.777344 233.398438 158.753906 233.480469 158.734375 C 233.222656 159.164062 233.058594 159.652344 233.011719 160.183594 C 232.941406 160.882812 233.082031 161.554688 233.386719 162.136719 L 233.386719 162.144531 C 233.480469 162.367188 233.613281 162.574219 233.761719 162.722656 C 233.28125 162.898438 232.789062 163.101562 232.28125 163.324219 C 234.628906 162.964844 236.746094 162.902344 239.035156 163.207031 C 239.1875 163.929688 239.339844 164.695312 239.480469 165.472656 C 239.195312 165.496094 238.914062 165.515625 238.625 165.539062 C 238.609375 165.542969 238.578125 165.542969 238.5625 165.546875 C 237.472656 164.679688 236.265625 164.824219 234.621094 165.203125 C 229.605469 166.347656 230.78125 169.164062 228.472656 173.410156 C 230.867188 170.480469 230.691406 167.410156 234.597656 166.484375 C 235.507812 166.269531 236.125 166 236.742188 166.089844 C 235.632812 166.648438 234.675781 167.574219 234.292969 168.648438 C 233.222656 171.679688 233.890625 174.234375 232.714844 177.0625 C 234.171875 174.535156 234.257812 172.0625 235.566406 169.402344 C 236.03125 168.445312 237.765625 166.914062 238.835938 166.890625 C 239.128906 166.886719 239.421875 166.878906 239.714844 166.875 C 239.972656 168.558594 240.125 170.230469 240.027344 171.617188 C 239.84375 174.148438 239.1875 177.90625 238.796875 179.34375 C 240.121094 177.640625 240.71875 174.042969 241.296875 171.503906 C 241.90625 168.867188 241.753906 165.699219 241.21875 162.863281 C 240.496094 158.972656 244.5 159.605469 246.824219 157.769531 C 248.527344 156.421875 249.703125 154.269531 251.273438 152.746094 C 252.824219 151.234375 255.273438 153.453125 255.882812 154.933594 C 258.527344 161.351562 259.734375 171.445312 259.039062 177.914062 C 258.253906 185.175781 254.75 193.097656 248.359375 196.671875 C 240.203125 201.226562 230.59375 198.441406 222.496094 195.710938 Z M 210.914062 227.953125 C 210.644531 230.945312 209.648438 231.144531 207.019531 231.097656 C 205.828125 231.078125 201.078125 231.054688 199.871094 230.949219 C 198.167969 230.804688 197.214844 230.652344 196.691406 230.265625 C 199.367188 228.292969 203.917969 220.175781 204.800781 217.378906 C 205.738281 214.425781 206.769531 211.84375 207.53125 209.113281 C 207.882812 210.253906 208.15625 211.386719 208.671875 212.59375 C 209.519531 214.625 209.941406 215.878906 210 218.046875 C 210.066406 220.339844 210.128906 222.632812 210.195312 224.921875 C 210.925781 226.214844 211.042969 226.488281 210.914062 227.953125 Z M 130.347656 205.261719 C 132.046875 211.152344 134.945312 216.9375 138.15625 221.800781 C 138.15625 221.828125 138.152344 221.859375 138.152344 221.886719 C 137.953125 222.71875 137.71875 223.535156 137.230469 224.191406 C 134.9375 227.261719 129.101562 222.753906 127.410156 221.023438 C 125.5625 219.136719 124.328125 216.902344 124.035156 214.804688 C 123.820312 213.273438 124.027344 213.238281 125.09375 212.15625 C 126.53125 210.703125 127.96875 209.242188 129.402344 207.789062 C 129.71875 206.945312 130.035156 206.105469 130.347656 205.261719 Z M 127.101562 168.234375 C 126.667969 169.171875 126.355469 169.882812 126.148438 170.613281 C 125.230469 173.777344 126.5625 176.601562 123.691406 178.894531 C 125.039062 181.621094 124.976562 182.707031 128.113281 181.449219 C 129.324219 180.960938 130.320312 180.28125 131.210938 179.476562 C 130.789062 180.574219 130.394531 181.707031 130.023438 182.878906 C 129.960938 183.074219 129.902344 183.269531 129.84375 183.460938 C 127.601562 184.414062 124.652344 185.019531 123.523438 182.660156 C 122.976562 181.515625 122.664062 180.390625 122.265625 178.941406 C 118.570312 175.109375 124.09375 170.050781 127.101562 168.234375 Z M 128.917969 172.296875 C 128.460938 171.839844 128.097656 171.527344 127.507812 171.597656 C 127.558594 171.210938 127.621094 170.835938 127.714844 170.484375 C 127.761719 170.304688 127.8125 170.128906 127.867188 169.949219 C 128.632812 170.394531 128.832031 171.203125 128.917969 172.296875 Z M 239.683594 157.984375 C 239.824219 158.277344 239.960938 158.578125 240.09375 158.878906 C 239.984375 158.960938 239.878906 159.046875 239.777344 159.140625 C 239.597656 158.710938 239.332031 158.328125 239.003906 158.003906 C 239.222656 157.996094 239.449219 157.988281 239.683594 157.984375 Z M 133.035156 175.375 L 133.03125 175.375 Z M 121.007812 179.445312 L 121.011719 179.445312 Z M 161.429688 221.753906 Z M 194.726562 231.707031 L 194.722656 231.707031 Z M 208.257812 205.953125 Z M 127.480469 179.980469 L 127.457031 179.917969 Z M 257.375 190.675781 L 257.394531 190.6875 Z M 257.375 190.675781 " fill-opacity="1" fill-rule="nonzero"/></g><path fill="#000000" d="M 114.449219 179.0625 C 115.039062 172.398438 116.332031 169.519531 121.0625 164.503906 C 115.128906 168.6875 113.648438 170.589844 114.449219 179.0625 " fill-opacity="1" fill-rule="nonzero"/><g clip-path="url(#b0cb2de449)"><path fill="#000000" d="M 112.921875 173.617188 C 113.574219 170.617188 114.183594 169.484375 116.027344 167.023438 C 113.03125 169.121094 112.640625 169.980469 112.921875 173.617188 " fill-opacity="1" fill-rule="nonzero"/></g><g clip-path="url(#2b868d8659)"><path fill="#000000" d="M 182.503906 131.808594 C 178.957031 132.664062 178.277344 133.324219 177.210938 136.808594 C 178.910156 134.257812 179.894531 133.425781 182.503906 131.808594 " fill-opacity="1" fill-rule="nonzero"/></g><g clip-path="url(#84ec5ad6de)"><path fill="#000000" d="M 188.113281 131.300781 C 181.066406 133.027344 178.992188 134.257812 176.652344 142.4375 C 179.625 136.445312 181.878906 134.242188 188.113281 131.300781 " fill-opacity="1" fill-rule="nonzero"/></g><path fill="#000000" d="M 203.292969 161.113281 C 204.039062 157.78125 205.375 154.570312 210.546875 152.085938 C 203.695312 153.804688 202.40625 156.683594 203.292969 161.113281 " fill-opacity="1" fill-rule="nonzero"/><path fill="#000000" d="M 246.882812 161.34375 C 250.941406 159.894531 252.894531 156.628906 253.867188 152.789062 C 252.273438 156.007812 249.828125 158.699219 246.496094 160.351562 C 244.710938 161.234375 243.570312 160.925781 241.578125 160.738281 C 243.605469 161.320312 244.890625 162.054688 246.882812 161.34375 " fill-opacity="1" fill-rule="nonzero"/><path fill="#000000" d="M 219.246094 164.609375 C 218.703125 163.472656 217.753906 162.660156 216.660156 162.257812 C 217.652344 161.726562 218.632812 161.167969 219.394531 160.472656 C 217.160156 161.507812 214.5625 161.257812 212.640625 162.550781 C 210.957031 163.695312 208.625 167.3125 206.910156 168.847656 C 208.152344 168.363281 209.351562 167.527344 210.453125 166.648438 C 210.457031 167.304688 210.597656 167.964844 210.898438 168.59375 C 211.347656 169.53125 212.066406 170.246094 212.921875 170.695312 C 212.308594 171.511719 211.792969 172.421875 211.425781 173.433594 C 214.691406 169.558594 219.429688 166.628906 223.882812 165.378906 C 222.636719 165.359375 221.167969 165.59375 219.660156 166.085938 C 219.609375 165.585938 219.46875 165.089844 219.246094 164.609375 " fill-opacity="1" fill-rule="nonzero"/><path fill="#000000" d="M 214.542969 193.898438 C 214.386719 194.902344 214.171875 196.152344 214.007812 197.152344 C 214.433594 196.015625 214.941406 194.695312 215.433594 193.613281 C 215.960938 192.46875 216.253906 192.359375 217.367188 191.753906 C 218.152344 191.324219 219.585938 190.734375 220.371094 190.304688 C 219.5625 190.441406 218.109375 190.738281 217.296875 190.878906 C 215.136719 191.242188 214.878906 191.765625 214.542969 193.898438 " fill-opacity="1" fill-rule="nonzero"/><path fill="#000000" d="M 177.574219 155.148438 C 175.0625 157.632812 172.621094 166.164062 171.84375 169.574219 C 173.074219 166.738281 176.148438 158.808594 178.5 156.792969 C 179.152344 156.234375 179.605469 155.890625 180.097656 155.644531 C 178.40625 158.476562 178.535156 159.179688 179.128906 162.976562 C 179.628906 159.117188 180.960938 157.628906 183.148438 154.746094 C 185.542969 154.144531 187.785156 153.425781 190.246094 152.464844 C 187.476562 152.777344 184.707031 153.066406 181.933594 153.328125 C 179.601562 153.550781 179.226562 153.511719 177.574219 155.148438 " fill-opacity="1" fill-rule="nonzero"/><path fill="#ffffcc" d="M 211.792969 169.667969 C 211.335938 168.707031 211.746094 167.550781 212.707031 167.09375 C 213.667969 166.636719 214.820312 167.046875 215.277344 168.007812 C 215.324219 168.097656 215.359375 168.191406 215.382812 168.285156 C 214.46875 168.964844 213.625 169.765625 212.921875 170.699219 C 212.449219 170.507812 212.027344 170.160156 211.792969 169.667969 " fill-opacity="1" fill-rule="nonzero"/><path fill="#ffffcc" d="M 233.238281 161.359375 C 233.316406 160.5625 233.996094 159.976562 234.785156 160.054688 C 235.582031 160.132812 236.167969 160.84375 236.089844 161.636719 C 236.074219 161.804688 236.027344 161.964844 235.960938 162.109375 C 235.238281 162.234375 234.511719 162.445312 233.761719 162.722656 C 233.445312 162.402344 233.199219 161.816406 233.238281 161.359375 " fill-opacity="1" fill-rule="nonzero"/></svg>