<svg xmlns="http://www.w3.org/2000/svg" xmlns:xlink="http://www.w3.org/1999/xlink" width="96" zoomAndPan="magnify" viewBox="0 0 72 72" height="96" preserveAspectRatio="xMidYMid meet" version="1.0"><defs><clipPath id="a6233d0276"><path d="M 3 9.40625 L 71.75 9.40625 L 71.75 62.65625 L 3 62.65625 Z M 3 9.40625 " clip-rule="nonzero"/></clipPath><clipPath id="3d0ff91833"><path d="M 0.5 26 L 3 26 L 3 30 L 0.5 30 Z M 0.5 26 " clip-rule="nonzero"/></clipPath><clipPath id="de231a7c16"><path d="M 31 9.40625 L 34 9.40625 L 34 13 L 31 13 Z M 31 9.40625 " clip-rule="nonzero"/></clipPath><clipPath id="0e81cbf839"><path d="M 30 9.40625 L 37 9.40625 L 37 15 L 30 15 Z M 30 9.40625 " clip-rule="nonzero"/></clipPath></defs><rect x="-7.2" width="86.4" fill="#ffffff" y="-7.2" height="86.4" fill-opacity="1"/><rect x="-7.2" width="86.4" fill="#ffffff" y="-7.2" height="86.4" fill-opacity="1"/><path fill="#ffff00" d="M 26.800781 21.085938 L 22.082031 21.851562 L 17.78125 23.730469 L 14.125 26.027344 L 10.648438 30.257812 L 8.683594 32.335938 L 6.785156 33.035156 L 6.28125 31.808594 L 7.160156 30.542969 L 7.359375 28.757812 L 7.945312 28.785156 L 8.589844 29.367188 L 8.414062 27.550781 L 7.703125 27.074219 L 7.726562 26.382812 L 6.035156 27.335938 L 4.507812 29.132812 L 4.1875 30.742188 L 4.84375 32.03125 L 5.453125 34.21875 L 6.691406 34.804688 L 7.996094 34.742188 L 9.234375 34.023438 L 8.410156 38.199219 L 9.234375 42.84375 L 8.324219 44.988281 L 5.351562 48.1875 L 5.878906 50.097656 L 7.289062 52.3125 L 9.945312 54.175781 L 11.355469 54.371094 L 12.921875 54.425781 L 11.945312 58.429688 L 15.539062 59.898438 L 20.019531 60.488281 L 21.554688 59.488281 L 21.671875 56.78125 L 23.378906 53.957031 L 23.5 51.722656 L 27.625 52.019531 L 31.457031 51.664062 L 27.625 53.957031 L 28.273438 56.722656 L 30.691406 60.488281 L 33.046875 61.484375 L 34.933594 60.722656 L 35.699219 59.195312 L 39.648438 56.195312 L 40.414062 56.839844 L 46.605469 57.078125 L 47.84375 56.074219 L 47.960938 54.308594 L 47.546875 53.546875 L 47.253906 48.78125 L 45.1875 44.667969 L 45.542969 42.84375 L 46.78125 43.492188 L 50.257812 46.726562 L 51.96875 46.84375 L 53.851562 46.082031 L 55.742188 44.667969 L 56.683594 41.609375 L 62.222656 41.960938 L 65.585938 40.667969 L 68.296875 38.140625 L 70.238281 34.492188 L 70.714844 30.199219 L 70.296875 25.203125 L 69.238281 20.734375 L 68.175781 19.320312 L 66.707031 18.851562 L 64.109375 21.671875 L 61.75 22.496094 L 59.691406 19.085938 L 57.628906 17.203125 L 56.507812 16.5 L 52.027344 12.792969 L 48.433594 10.851562 L 44.835938 10.558594 L 40.648438 11.265625 L 36.996094 12.617188 L 34.460938 14.675781 L 32.457031 17.085938 L 30.394531 17.675781 L 26.800781 21.085938 " fill-opacity="1" fill-rule="nonzero"/><path fill="#ffffcc" d="M 13.121094 31.699219 C 9.082031 36.398438 9.980469 42.101562 11.101562 47.683594 C 10.503906 46.179688 9.90625 44.671875 9.308594 43.167969 C 9.089844 41.789062 8.867188 40.40625 8.648438 39.027344 C 8.710938 37.613281 8.773438 36.203125 8.835938 34.789062 C 9.402344 33.441406 9.96875 32.09375 10.535156 30.742188 C 11.382812 29.488281 12.234375 28.234375 13.082031 26.976562 C 14.402344 25.878906 15.722656 24.78125 17.042969 23.683594 C 18.492188 23.089844 19.9375 22.492188 21.382812 21.894531 C 23.082031 21.675781 24.78125 21.457031 26.476562 21.238281 C 24.90625 23.027344 23.332031 24.8125 21.761719 26.601562 C 17.972656 27.828125 15.738281 28.652344 13.121094 31.699219 " fill-opacity="1" fill-rule="nonzero"/><path fill="#ffffcc" d="M 32.136719 17.378906 C 29.332031 20.113281 27.796875 22.171875 26.007812 25.375 C 24.730469 27.664062 23.296875 29.867188 21.953125 32.125 C 21.273438 33.269531 21.210938 34.226562 21.007812 35.542969 C 20.34375 34.757812 19.683594 33.976562 19.023438 33.191406 C 19.339844 32.25 19.652344 31.308594 19.96875 30.367188 C 21.039062 28.453125 22.105469 26.539062 23.175781 24.625 C 25.441406 22.398438 27.703125 20.171875 29.96875 17.941406 C 30.691406 17.753906 31.414062 17.566406 32.136719 17.378906 " fill-opacity="1" fill-rule="nonzero"/><path fill="#ffffcc" d="M 46.007812 10.601562 C 43.757812 11.441406 40.023438 11.71875 39.761719 14.296875 C 39.578125 16.125 39.902344 17.042969 41.007812 18.980469 C 38.277344 16.160156 37.601562 16.597656 32.324219 17.472656 C 33.082031 16.40625 33.835938 15.339844 34.589844 14.273438 C 35.910156 13.457031 37.230469 12.640625 38.554688 11.824219 C 40.25 11.449219 41.949219 11.070312 43.648438 10.695312 C 44.433594 10.664062 45.21875 10.632812 46.007812 10.601562 " fill-opacity="1" fill-rule="nonzero"/><path fill="#cccc00" d="M 52.210938 45.4375 C 52.960938 45.898438 52.945312 46.234375 52.816406 46.550781 C 53.410156 46.3125 54 46.078125 54.589844 45.839844 C 54.972656 45.328125 55.355469 44.816406 55.738281 44.304688 C 56.023438 43.574219 56.304688 42.84375 56.589844 42.113281 C 56.226562 41.839844 55.863281 41.566406 55.503906 41.296875 C 53.917969 41.5 52.328125 41.703125 50.742188 41.902344 C 50.625 42.222656 50.507812 42.542969 50.386719 42.859375 C 50.421875 43.316406 50.457031 43.769531 50.492188 44.226562 C 50.644531 44.496094 50.792969 44.765625 50.945312 45.035156 C 51.183594 45.152344 51.417969 45.269531 51.65625 45.386719 C 51.839844 45.402344 52.027344 45.421875 52.210938 45.4375 " fill-opacity="1" fill-rule="nonzero"/><path fill="#cccc00" d="M 51.769531 37.320312 C 49.382812 38.003906 49.402344 38.195312 48.695312 40.554688 C 49.628906 39.066406 50.316406 38.316406 51.769531 37.320312 " fill-opacity="1" fill-rule="nonzero"/><path fill="#cccc00" d="M 67.628906 19.652344 C 67.207031 19.847656 66.792969 19.941406 66.527344 20.328125 C 65.957031 21.160156 65.46875 21.859375 64.523438 22.445312 C 64.050781 22.742188 63.558594 22.929688 63.054688 23.089844 C 62.632812 23.21875 62.382812 23.101562 62.027344 23.355469 C 62.238281 23.394531 62.449219 23.429688 62.660156 23.46875 L 64.058594 23.46875 C 64.628906 23.113281 65.203125 22.761719 65.777344 22.40625 C 66.117188 22.054688 66.453125 21.699219 66.792969 21.347656 C 67.070312 20.78125 67.351562 20.214844 67.628906 19.652344 " fill-opacity="1" fill-rule="nonzero"/><path fill="#cccc00" d="M 29.632812 24.933594 C 28.695312 27.492188 27.875 29.691406 26.453125 32.007812 C 28.273438 30.050781 29.378906 28.386719 30.421875 26.171875 C 30.828125 25.3125 30.90625 24.304688 32.035156 24.679688 C 32.082031 25.539062 32.265625 26.394531 32.316406 27.253906 C 32.925781 22.894531 34.644531 21.070312 38.644531 19.375 C 37.511719 19.511719 36.382812 19.644531 35.25 19.78125 C 34.1875 20.015625 33.125 20.25 32.0625 20.488281 C 31.539062 21.246094 31.015625 22.003906 30.492188 22.761719 C 30.207031 23.484375 29.921875 24.207031 29.632812 24.933594 " fill-opacity="1" fill-rule="nonzero"/><path fill="#cccc00" d="M 37.378906 24.832031 C 38.242188 28.878906 39.480469 32.765625 40.023438 36.878906 C 40.371094 39.550781 40.410156 40.835938 39.0625 43.140625 C 37.589844 43.042969 36.675781 43.210938 35.25 43.675781 C 29.578125 45.535156 26.324219 48.257812 22.503906 42.765625 C 23.722656 43.339844 24.945312 43.910156 26.164062 44.484375 C 27.035156 44.316406 27.902344 44.144531 28.769531 43.972656 C 30.308594 43.082031 31.84375 42.191406 33.378906 41.296875 C 34.578125 41.058594 35.773438 40.824219 36.972656 40.589844 C 37.363281 38.972656 37.75 37.355469 38.136719 35.742188 C 37.851562 33.601562 37.5625 31.464844 37.277344 29.324219 C 37.242188 28.316406 37.210938 27.304688 37.175781 26.296875 C 37.242188 25.808594 37.3125 25.320312 37.378906 24.832031 " fill-opacity="1" fill-rule="nonzero"/><path fill="#cccc00" d="M 47.148438 49.882812 C 46.671875 53.171875 48.246094 54.941406 47.59375 55.847656 C 47.410156 56.105469 47.160156 56.554688 46.878906 56.675781 C 45.882812 57.117188 44.511719 56.59375 44.414062 56.851562 L 41.125 56.851562 C 40.6875 56.667969 40.246094 56.484375 39.808594 56.296875 C 40.484375 55.507812 41.160156 54.710938 41.835938 53.921875 C 42.492188 52.492188 43.152344 51.0625 43.808594 49.628906 C 44.230469 48.179688 44.652344 46.734375 45.074219 45.285156 L 45.730469 45.285156 C 46.203125 46.816406 46.675781 48.351562 47.148438 49.882812 " fill-opacity="1" fill-rule="nonzero"/><path fill="#cccc00" d="M 41.617188 40.320312 C 41.886719 41.8125 42.347656 42.167969 43.054688 43.613281 C 42.585938 45.972656 41.832031 48.777344 40.925781 50.859375 C 40.542969 51.734375 40.234375 52.222656 39.5625 52.898438 C 38.425781 54.042969 37.273438 55.042969 35.984375 56.035156 C 35.058594 56.75 34.410156 56.390625 33.261719 56.230469 C 32.777344 57.109375 32.640625 57.601562 31.746094 58.046875 C 30.363281 58.738281 29.128906 57.253906 28.046875 56.378906 C 28.828125 57.597656 29.609375 58.816406 30.394531 60.035156 L 32.011719 61.550781 C 32.46875 61.617188 32.921875 61.683594 33.378906 61.753906 C 33.984375 61.378906 34.59375 61.011719 35.203125 60.640625 C 35.519531 60.035156 35.84375 59.425781 36.164062 58.824219 C 36.839844 58.316406 37.511719 57.8125 38.1875 57.308594 C 39.015625 56.601562 39.84375 55.890625 40.667969 55.183594 C 41.191406 54.445312 41.714844 53.707031 42.238281 52.964844 C 42.710938 52.085938 43.183594 51.214844 43.65625 50.335938 C 44.261719 48.519531 44.871094 46.703125 45.476562 44.882812 C 45.527344 44.191406 45.578125 43.503906 45.632812 42.8125 C 44.871094 42.476562 44.113281 42.136719 43.351562 41.800781 C 42.792969 41.28125 42.175781 40.839844 41.617188 40.320312 " fill-opacity="1" fill-rule="nonzero"/><path fill="#cccc00" d="M 23.457031 50.84375 C 26.011719 50.84375 28.710938 50.699219 31.050781 49.628906 C 31.714844 48.636719 32.367188 47.828125 33.175781 46.953125 C 32.441406 48.339844 32.207031 49.128906 32.011719 50.691406 C 31.757812 51.0625 31.503906 51.429688 31.253906 51.800781 C 29.332031 51.851562 27.40625 51.902344 25.480469 51.953125 C 24.859375 51.886719 24.234375 51.820312 23.609375 51.753906 C 23.542969 51.683594 23.472656 51.617188 23.40625 51.550781 C 23.421875 51.3125 23.441406 51.078125 23.457031 50.84375 " fill-opacity="1" fill-rule="nonzero"/><path fill="#cccc00" d="M 23.101562 49.074219 C 23.035156 48.476562 22.96875 47.878906 22.90625 47.28125 C 22.46875 49.902344 22.574219 51.660156 21.363281 54.007812 C 20.460938 55.050781 19.347656 56.003906 18.074219 56.511719 C 18.183594 57.15625 18.214844 57.558594 18.152344 58.027344 C 17.925781 59.726562 14.523438 58.976562 13.121094 58.910156 C 15.371094 59.484375 17.617188 60.0625 19.863281 60.640625 C 20.371094 60.4375 20.875 60.238281 21.382812 60.035156 C 21.550781 59.058594 21.71875 58.082031 21.886719 57.105469 C 22.359375 56.230469 22.832031 55.355469 23.304688 54.480469 C 23.390625 53.9375 23.472656 53.398438 23.558594 52.863281 C 23.40625 51.597656 23.253906 50.335938 23.101562 49.074219 " fill-opacity="1" fill-rule="nonzero"/><path fill="#cccc00" d="M 19.304688 34.277344 C 19.234375 35.550781 19.152344 36.082031 19.714844 37.207031 C 20.433594 38.636719 21.3125 39.984375 22.089844 41.394531 C 22.175781 40.457031 22.257812 39.511719 22.34375 38.570312 C 21.332031 37.136719 20.320312 35.707031 19.304688 34.277344 " fill-opacity="1" fill-rule="nonzero"/><path fill="#cccc00" d="M 8.914062 43.90625 C 8.695312 44.371094 8.476562 44.835938 8.257812 45.300781 C 8.859375 47.328125 9.394531 48.609375 10.542969 50.382812 C 10.34375 51.101562 10.195312 51.414062 9.734375 52 C 8.722656 51.84375 7.828125 51.800781 6.800781 51.800781 C 7.933594 52.675781 9.0625 53.554688 10.195312 54.425781 C 10.75 54.328125 11.308594 54.226562 11.863281 54.125 C 12.421875 53.570312 12.976562 53.015625 13.535156 52.460938 C 12.742188 51.230469 11.949219 50 11.15625 48.773438 C 10.40625 47.148438 9.660156 45.527344 8.914062 43.90625 " fill-opacity="1" fill-rule="nonzero"/><path fill="#cccc00" d="M 67.636719 18.980469 C 68.324219 22.070312 69.214844 24.921875 69.128906 28.089844 C 69.03125 31.972656 68.269531 36.878906 64.664062 39.21875 C 60.625 41.84375 55.882812 40.601562 51.453125 39.480469 L 56.867188 41.703125 C 58.554688 41.785156 60.246094 41.867188 61.929688 41.953125 C 63.078125 41.617188 64.226562 41.28125 65.371094 40.945312 C 66.269531 40.203125 67.160156 39.460938 68.058594 38.722656 C 68.734375 37.304688 69.40625 35.890625 70.082031 34.476562 C 70.335938 32.84375 70.585938 31.210938 70.839844 29.578125 C 70.636719 27.980469 70.433594 26.378906 70.234375 24.78125 C 69.863281 23.199219 69.488281 21.617188 69.121094 20.03125 C 68.625 19.683594 68.128906 19.332031 67.636719 18.980469 " fill-opacity="1" fill-rule="nonzero"/><path fill="#cccc00" d="M 7.359375 28.191406 C 5.527344 29.382812 4.804688 29.90625 5.007812 32.113281 C 5.191406 32.773438 5.375 33.433594 5.554688 34.09375 C 5.816406 34.269531 6.074219 34.445312 6.332031 34.621094 C 6.652344 34.726562 6.972656 34.832031 7.292969 34.9375 C 7.871094 34.800781 8.449219 34.664062 9.027344 34.527344 C 9.324219 33.609375 9.621094 32.691406 9.917969 31.769531 C 9.097656 32.171875 8.273438 32.574219 7.453125 32.976562 L 6.882812 32.976562 C 6.667969 32.652344 6.453125 32.324219 6.242188 32 C 6.5 31.617188 6.757812 31.238281 7.019531 30.859375 C 7.15625 30.136719 7.292969 29.414062 7.429688 28.695312 C 7.605469 28.746094 7.777344 28.800781 7.953125 28.851562 C 8.167969 29.019531 8.378906 29.1875 8.59375 29.355469 C 8.5625 28.976562 8.535156 28.59375 8.503906 28.214844 C 8.359375 27.972656 8.214844 27.730469 8.070312 27.484375 C 7.925781 27.363281 7.777344 27.242188 7.632812 27.121094 C 7.542969 27.476562 7.453125 27.835938 7.359375 28.191406 " fill-opacity="1" fill-rule="nonzero"/><path fill="#cccc00" d="M 48.5 10.804688 C 50.125 12.3125 52.121094 13.621094 53.425781 15.464844 C 53.929688 16.175781 54.488281 16.542969 53.417969 17.550781 C 54.546875 17.226562 54.972656 17.261719 55.878906 17.371094 C 57.527344 17.570312 59.070312 19.910156 59.171875 21.585938 C 59.152344 21.742188 58.710938 22.097656 57.4375 22.449219 C 57.414062 22.5 56.71875 22.355469 56.734375 22.402344 C 56.867188 22.761719 57.042969 22.820312 57.316406 22.988281 C 57.375 23.390625 57.410156 24.011719 57.683594 24.453125 C 58.488281 24.4375 59.273438 24.523438 60.058594 24.679688 C 60.320312 25.117188 60.28125 25.554688 60.261719 25.992188 C 60.5625 25.941406 60.867188 25.890625 61.171875 25.839844 C 61.085938 25.152344 61.003906 24.460938 60.921875 23.769531 C 61.191406 23.316406 61.460938 22.859375 61.730469 22.40625 C 61.339844 21.53125 60.953125 20.65625 60.5625 19.78125 C 59.820312 19.074219 59.078125 18.367188 58.335938 17.660156 C 58.265625 17.65625 58.195312 17.652344 58.121094 17.648438 C 57.289062 17.136719 56.453125 16.625 55.617188 16.113281 C 54.257812 15.003906 52.894531 13.890625 51.53125 12.78125 C 50.519531 12.121094 49.507812 11.460938 48.5 10.804688 " fill-opacity="1" fill-rule="nonzero"/><path fill="#cccc00" d="M 51.238281 23.246094 C 51.15625 23.398438 51.023438 23.636719 50.859375 23.800781 C 51.535156 24.441406 51.871094 24.871094 52.113281 25.773438 C 51.347656 26.15625 50.578125 26.535156 49.8125 26.914062 C 49.167969 27.535156 48.515625 28.15625 47.867188 28.773438 C 47.015625 28.316406 46.800781 27.964844 46.390625 27.089844 C 45.910156 27.21875 45.453125 27.339844 45.054688 27.195312 C 45.308594 27.195312 45.460938 27.132812 45.714844 26.976562 C 46.125 26.550781 46.539062 26.121094 46.953125 25.695312 C 47.679688 25.144531 48.410156 24.59375 49.136719 24.042969 C 49.613281 23.886719 50.09375 23.734375 50.566406 23.578125 C 50.75 23.503906 51.058594 23.324219 51.238281 23.246094 " fill-opacity="1" fill-rule="nonzero"/><path fill="#cccc00" d="M 53.355469 25.527344 C 50.914062 26.839844 48.582031 28.15625 47.335938 30.644531 C 47.335938 27.484375 50.511719 26.097656 53.355469 25.527344 " fill-opacity="1" fill-rule="nonzero"/><path fill="#cccc00" d="M 46.851562 19.320312 C 45.042969 20.550781 43.761719 23.035156 43.921875 25.457031 C 43.335938 23.359375 43.542969 21.378906 45.351562 19.929688 C 45.65625 19.78125 45.960938 19.632812 46.269531 19.484375 C 46.464844 19.429688 46.65625 19.375 46.851562 19.320312 " fill-opacity="1" fill-rule="nonzero"/><g clip-path="url(#a6233d0276)"><path fill="#000000" d="M 71.214844 25.035156 C 70.882812 22.972656 70.339844 20.964844 69.582031 19.523438 C 69.492188 19.347656 69.351562 19.167969 69.179688 19 C 68.804688 18.628906 68.25 18.28125 67.675781 18.085938 C 67.066406 17.875 66.425781 17.832031 65.917969 18.097656 C 65.785156 18.167969 65.664062 18.257812 65.554688 18.367188 C 65.222656 18.699219 64.945312 19.105469 64.667969 19.511719 C 64.359375 19.960938 64.046875 20.417969 63.671875 20.734375 C 63.242188 21.101562 62.699219 21.324219 62.191406 21.53125 C 61.96875 20.992188 61.710938 20.496094 61.421875 20.035156 C 61.070312 19.480469 60.675781 18.960938 60.238281 18.441406 C 59.878906 18.015625 59.535156 17.699219 59.160156 17.414062 C 58.78125 17.128906 58.398438 16.886719 57.945312 16.605469 C 56.742188 15.855469 55.71875 14.957031 54.671875 14.042969 C 54.199219 13.625 53.71875 13.207031 53.25 12.820312 C 50.761719 10.773438 48.4375 9.78125 45.957031 9.625 C 43.488281 9.46875 40.886719 10.144531 37.808594 11.4375 C 36.328125 12.058594 35.222656 12.796875 34.265625 13.679688 C 33.347656 14.527344 32.570312 15.503906 31.714844 16.640625 C 31.214844 16.675781 30.773438 16.75 30.324219 16.929688 C 29.828125 17.125 29.328125 17.445312 28.730469 17.972656 C 28.304688 18.347656 27.898438 18.722656 27.503906 19.101562 C 27.136719 19.457031 26.78125 19.820312 26.429688 20.183594 C 23.628906 20.632812 21.347656 21.128906 19.304688 21.917969 C 17.21875 22.726562 15.375 23.835938 13.484375 25.507812 C 12.710938 26.191406 12.042969 26.914062 11.457031 27.679688 C 10.882812 28.429688 10.390625 29.222656 9.960938 30.054688 C 9.582031 30.472656 9.203125 30.894531 8.792969 31.261719 C 8.390625 31.621094 7.964844 31.925781 7.488281 32.109375 C 7.210938 32.214844 7.09375 32.277344 7.082031 32.273438 C 7.070312 32.265625 7.0625 32.222656 7.042969 32.148438 C 7.726562 31.492188 7.835938 30.535156 7.898438 29.582031 C 7.980469 29.679688 8.058594 29.800781 8.140625 29.925781 C 8.234375 30.066406 8.324219 30.210938 8.4375 30.351562 L 8.902344 30.9375 L 9.066406 30.207031 C 9.203125 29.59375 9.308594 28.777344 9.148438 28.070312 C 9.042969 27.609375 8.828125 27.199219 8.457031 26.910156 C 8.492188 26.816406 8.527344 26.730469 8.558594 26.648438 C 8.675781 26.347656 8.796875 26.042969 8.898438 25.753906 L 9.101562 25.179688 L 8.5 25.285156 C 7.699219 25.421875 5.984375 26.367188 4.773438 27.617188 C 4.324219 28.082031 3.9375 28.597656 3.683594 29.136719 C 3.421875 29.699219 3.300781 30.285156 3.40625 30.875 C 3.492188 31.386719 3.75 31.890625 4.21875 32.367188 C 4.304688 32.710938 4.382812 33.007812 4.46875 33.277344 C 4.566406 33.582031 4.667969 33.855469 4.796875 34.125 C 5.148438 34.855469 5.710938 35.300781 6.359375 35.507812 C 6.882812 35.675781 7.460938 35.683594 8.027344 35.5625 C 7.917969 36.199219 7.847656 36.867188 7.820312 37.597656 C 7.785156 38.550781 7.820312 39.605469 7.925781 40.824219 C 7.945312 41.09375 7.980469 41.386719 8.027344 41.710938 C 8.066406 41.984375 8.113281 42.25 8.160156 42.515625 C 8.054688 42.804688 7.949219 43.09375 7.84375 43.382812 C 7.679688 43.828125 7.511719 44.277344 7.347656 44.726562 C 6.984375 45.082031 6.625 45.441406 6.261719 45.800781 C 5.921875 46.132812 5.585938 46.46875 5.246094 46.804688 C 5.21875 46.832031 5.105469 46.941406 5 47.039062 C 4.316406 47.699219 4.179688 47.828125 4.375 48.988281 C 4.492188 49.695312 4.726562 50.417969 5.09375 51.109375 C 5.429688 51.75 5.878906 52.371094 6.460938 52.949219 C 7.183594 53.675781 8.367188 54.574219 9.609375 55.042969 C 10.320312 55.3125 11.050781 55.445312 11.734375 55.335938 C 11.699219 55.441406 11.667969 55.546875 11.628906 55.652344 C 11.519531 55.949219 11.398438 56.246094 11.265625 56.539062 C 10.425781 58.378906 11.289062 59.339844 12.632812 59.953125 C 13.304688 60.257812 14.105469 60.464844 14.847656 60.660156 C 14.996094 60.699219 15.148438 60.738281 15.339844 60.789062 C 16.21875 61.027344 17.738281 61.460938 19.125 61.550781 C 20.640625 61.644531 22.003906 61.332031 22.371094 59.976562 C 22.515625 59.4375 22.601562 59.027344 22.636719 58.625 C 22.667969 58.25 22.652344 57.875 22.609375 57.40625 C 23.042969 56.449219 23.226562 56.179688 23.539062 55.71875 C 23.601562 55.632812 23.675781 55.519531 23.699219 55.488281 C 24.039062 54.988281 24.195312 54.632812 24.253906 54.234375 C 24.308594 53.847656 24.261719 53.460938 24.191406 52.871094 C 24.1875 52.816406 24.175781 52.738281 24.160156 52.628906 C 25.046875 52.742188 25.921875 52.804688 26.789062 52.808594 C 27.230469 52.8125 27.671875 52.796875 28.113281 52.777344 C 28 52.832031 27.890625 52.890625 27.769531 52.949219 C 27.714844 52.976562 27.660156 53.007812 27.605469 53.035156 C 26.4375 53.636719 26.386719 54.769531 26.753906 55.9375 C 27.082031 56.992188 27.761719 58.070312 28.1875 58.726562 C 29.085938 60.101562 29.9375 61.269531 30.972656 61.902344 C 32.0625 62.566406 33.300781 62.644531 34.902344 61.78125 C 35.71875 61.339844 35.976562 60.890625 36.324219 60.285156 C 36.429688 60.101562 36.546875 59.898438 36.675781 59.703125 C 37.011719 59.480469 37.847656 58.789062 38.671875 58.113281 C 38.949219 57.882812 39.230469 57.652344 39.546875 57.394531 C 39.765625 57.554688 40.027344 57.664062 40.34375 57.738281 C 40.753906 57.835938 41.25 57.882812 41.835938 57.921875 C 42.277344 57.957031 43.710938 57.957031 44.636719 57.957031 L 45.304688 57.957031 C 46.261719 57.960938 47.035156 57.914062 47.621094 57.582031 C 48.242188 57.230469 48.613281 56.605469 48.695312 55.488281 C 48.730469 54.992188 48.734375 54.683594 48.664062 54.371094 C 48.601562 54.082031 48.472656 53.8125 48.257812 53.425781 C 48.246094 52.941406 48.230469 52.460938 48.222656 51.972656 C 48.207031 51.464844 48.191406 50.949219 48.179688 50.4375 C 48.164062 49.832031 48.09375 49.339844 47.972656 48.859375 C 47.851562 48.378906 47.675781 47.917969 47.445312 47.363281 C 47.285156 46.988281 47.160156 46.644531 47.03125 46.308594 L 46.695312 46.429688 L 46.75 46.410156 L 47.03125 46.308594 L 47.03125 46.304688 C 46.832031 45.765625 46.636719 45.242188 46.355469 44.679688 C 46.375 44.574219 46.394531 44.457031 46.414062 44.332031 C 46.589844 44.503906 46.769531 44.671875 46.945312 44.84375 L 47.734375 45.601562 C 48.332031 46.175781 48.882812 46.703125 49.527344 47.082031 C 50.191406 47.476562 50.945312 47.703125 51.914062 47.65625 C 52.929688 47.609375 54.015625 47.183594 54.914062 46.523438 C 55.777344 45.886719 56.472656 45.027344 56.765625 44.074219 C 56.847656 43.796875 56.933594 43.523438 57.015625 43.246094 C 57.082031 43.027344 57.148438 42.808594 57.214844 42.585938 C 58.640625 42.828125 60.171875 42.90625 61.648438 42.753906 C 63.074219 42.601562 64.453125 42.238281 65.640625 41.609375 C 67.386719 40.679688 68.695312 39.308594 69.632812 37.683594 L 69.636719 37.683594 C 70.6875 35.867188 71.273438 33.726562 71.5 31.523438 C 71.679688 29.753906 71.582031 27.351562 71.214844 25.035156 Z M 52.75 39.886719 C 51.929688 39.613281 51.355469 39.210938 50.636719 38.753906 C 50.828125 39.640625 50.921875 40.570312 50.660156 41.453125 C 50.242188 42.851562 49.574219 45.140625 51.476562 45.5625 C 52.199219 45.726562 52.527344 45.703125 53.550781 45.175781 C 52.726562 45.363281 52.304688 45.316406 51.738281 45.210938 C 51.222656 45.117188 50.949219 44.789062 50.804688 44.402344 C 50.984375 44.535156 51.28125 44.605469 51.78125 44.726562 C 53.195312 45.066406 54.535156 44.386719 54.800781 43.410156 C 54.953125 42.839844 54.929688 42.539062 55.25 41.761719 C 55.542969 41.855469 55.847656 41.933594 56.15625 42.007812 C 55.984375 42.578125 55.808594 43.148438 55.632812 43.714844 C 55.179688 45.191406 53.410156 46.382812 51.851562 46.355469 C 50.410156 46.328125 49.496094 45.429688 48.5 44.546875 C 47.8125 43.933594 47.152344 43.351562 46.496094 42.773438 C 44.703125 42.210938 43.265625 41.546875 41.597656 40.320312 C 42.785156 41.710938 43.585938 42.476562 45.242188 43.171875 C 45 45.621094 44.148438 47.402344 43.421875 49.746094 C 43.09375 50.804688 40.496094 55.046875 39.773438 55.460938 C 39.261719 55.757812 36.046875 58.457031 35.445312 58.8125 C 34.992188 59.410156 34.597656 60.238281 33.917969 60.59375 C 31.855469 61.679688 30.53125 59.597656 29.421875 57.835938 C 28.914062 57.035156 27.511719 54.726562 28.734375 54.078125 C 29.890625 53.46875 30.539062 53.03125 31.722656 52.257812 C 31.894531 52.574219 32.191406 52.875 32.386719 53.191406 C 32.34375 52.847656 32.300781 52.503906 32.257812 52.15625 C 32.179688 51.53125 32.179688 51.027344 32.230469 50.398438 C 32.28125 49.789062 32.328125 49.183594 32.375 48.574219 C 32.199219 49.191406 31.84375 49.808594 31.667969 50.429688 C 31.59375 50.675781 31.535156 50.875 31.503906 51.0625 C 28.855469 51.597656 26.222656 51.636719 23.574219 51.164062 C 23.40625 50.183594 23.199219 49.164062 23.027344 48.433594 C 22.976562 49.25 23.007812 51.515625 23.003906 52.785156 C 23 53.765625 22.960938 54.101562 22.453125 54.9375 C 21.976562 55.71875 21.777344 55.894531 21.109375 57.21875 C 21.164062 58.050781 21.167969 58.601562 20.945312 59.394531 C 20.574219 60.710938 16.851562 59.691406 15.867188 59.421875 C 14.65625 59.089844 12.15625 58.601562 12.785156 56.992188 C 13.339844 55.574219 13.691406 54.082031 13.960938 52.097656 C 11.742188 48.914062 9.683594 44.546875 9.285156 40.675781 C 8.980469 37.671875 9.164062 35.824219 9.816406 33.988281 C 10.847656 31.074219 12.292969 28.554688 14.609375 26.527344 C 17.734375 23.789062 20.65625 22.691406 25.234375 21.996094 C 24.132812 23.222656 23.042969 24.523438 21.859375 25.917969 C 20.65625 27.328125 19.941406 28.753906 19.179688 30.296875 C 18.125 32.425781 18.148438 33.238281 19.546875 35.109375 C 20.75 36.71875 21.398438 37.445312 21.925781 39.023438 C 21.492188 39.917969 21.332031 40.667969 21.1875 41.890625 C 22.660156 43.496094 23.757812 44.597656 25.1875 44.9375 C 26.589844 45.269531 27.761719 45.207031 29.019531 44.566406 C 31.804688 43.140625 34.386719 41.304688 37.53125 41.230469 C 38.988281 37.660156 38.84375 34.675781 38.144531 31.222656 C 37.664062 28.863281 37.472656 26.628906 37.328125 24.226562 C 36.738281 26.703125 36.625 28.878906 37.0625 31.347656 C 37.589844 34.320312 38 37.605469 36.535156 40.214844 C 33.6875 40.433594 31.25 42.160156 28.683594 43.484375 C 27.65625 44.019531 26.582031 44.070312 25.441406 43.757812 C 24.382812 43.46875 23.667969 42.769531 22.527344 41.457031 C 22.511719 40.140625 22.808594 39.53125 23.414062 38.339844 C 24.390625 36.421875 25.464844 34.636719 26.644531 32.75 C 25.199219 34.492188 23.832031 35.945312 22.691406 37.695312 C 22.257812 36.460938 21.636719 35.832031 20.605469 34.441406 C 19.601562 33.082031 19.496094 32.484375 20.246094 30.914062 C 21.003906 29.332031 21.644531 27.941406 22.933594 26.554688 C 25.15625 24.160156 27.195312 21.492188 29.628906 19.132812 C 30.949219 17.847656 31.484375 17.894531 33.234375 17.628906 C 34.820312 17.390625 36.363281 17.085938 37.980469 16.714844 C 36.417969 16.859375 34.910156 16.910156 33.386719 16.949219 C 33.371094 16.949219 33.359375 16.949219 33.339844 16.949219 C 34.835938 15.042969 35.703125 13.980469 38.136719 12.929688 C 44.117188 10.335938 47.917969 10.054688 52.617188 13.996094 C 53.832031 15.019531 54.898438 16.011719 56.132812 16.890625 C 55.6875 16.929688 55.300781 17.011719 54.789062 17.210938 C 55.410156 17.089844 56.128906 17.207031 56.773438 17.328125 C 56.953125 17.441406 57.140625 17.558594 57.328125 17.667969 C 58.199219 18.183594 58.695312 18.464844 59.285156 19.285156 C 59.90625 20.152344 60.429688 21.015625 60.886719 21.96875 C 60.585938 21.863281 60.332031 21.773438 60.109375 21.707031 C 59.945312 21.628906 59.765625 21.582031 59.574219 21.5625 C 59.199219 21.527344 58.835938 21.617188 58.535156 21.804688 C 58.527344 21.808594 58.511719 21.816406 58.5 21.820312 C 58.019531 22.054688 57.269531 22.320312 56.769531 22.402344 C 57.027344 22.492188 57.589844 22.523438 57.855469 22.417969 C 57.890625 22.402344 57.925781 22.394531 57.964844 22.382812 C 57.84375 22.589844 57.765625 22.820312 57.742188 23.070312 C 57.710938 23.402344 57.777344 23.71875 57.921875 23.996094 C 57.964844 24.105469 58.03125 24.203125 58.101562 24.273438 C 57.871094 24.355469 57.636719 24.453125 57.394531 24.554688 C 58.511719 24.386719 59.519531 24.359375 60.605469 24.5 C 60.679688 24.84375 60.75 25.207031 60.816406 25.574219 C 60.679688 25.585938 60.546875 25.59375 60.410156 25.605469 C 60.402344 25.605469 60.390625 25.609375 60.378906 25.609375 C 59.863281 25.199219 59.289062 25.265625 58.507812 25.445312 C 56.125 25.988281 56.683594 27.320312 55.589844 29.332031 C 56.726562 27.945312 56.640625 26.492188 58.496094 26.050781 C 58.929688 25.949219 59.222656 25.824219 59.515625 25.867188 C 58.988281 26.132812 58.535156 26.570312 58.351562 27.078125 C 57.84375 28.511719 58.160156 29.71875 57.601562 31.058594 C 58.292969 29.863281 58.335938 28.695312 58.957031 27.433594 C 59.179688 26.980469 60.003906 26.257812 60.511719 26.246094 C 60.648438 26.242188 60.789062 26.238281 60.929688 26.238281 C 61.050781 27.035156 61.125 27.824219 61.074219 28.480469 C 60.988281 29.679688 60.679688 31.457031 60.492188 32.140625 C 61.121094 31.335938 61.402344 29.628906 61.679688 28.429688 C 61.96875 27.179688 61.894531 25.679688 61.644531 24.339844 C 61.296875 22.496094 63.199219 22.796875 64.304688 21.929688 C 65.113281 21.289062 65.671875 20.269531 66.417969 19.550781 C 67.15625 18.832031 68.316406 19.886719 68.609375 20.585938 C 69.863281 23.621094 70.4375 28.402344 70.105469 31.464844 C 69.734375 34.898438 68.070312 38.648438 65.035156 40.339844 C 61.160156 42.496094 56.59375 41.179688 52.75 39.886719 Z M 47.246094 55.148438 C 47.121094 56.5625 46.648438 56.65625 45.398438 56.636719 C 44.832031 56.628906 42.574219 56.617188 42 56.566406 C 41.191406 56.496094 40.738281 56.425781 40.492188 56.242188 C 41.761719 55.308594 43.921875 51.464844 44.34375 50.140625 C 44.789062 48.742188 45.277344 47.523438 45.640625 46.230469 C 45.804688 46.769531 45.9375 47.304688 46.183594 47.878906 C 46.585938 48.839844 46.785156 49.433594 46.8125 50.457031 C 46.84375 51.542969 46.875 52.628906 46.90625 53.714844 C 47.253906 54.324219 47.308594 54.453125 47.246094 55.148438 Z M 8.976562 44.40625 C 9.785156 47.195312 11.160156 49.933594 12.683594 52.234375 C 12.683594 52.25 12.683594 52.261719 12.683594 52.277344 C 12.589844 52.671875 12.476562 53.054688 12.246094 53.367188 C 11.15625 54.820312 8.382812 52.6875 7.582031 51.867188 C 6.703125 50.976562 6.117188 49.917969 5.976562 48.925781 C 5.875 48.199219 5.972656 48.183594 6.480469 47.671875 C 7.164062 46.980469 7.847656 46.289062 8.527344 45.601562 C 8.675781 45.203125 8.828125 44.804688 8.976562 44.40625 Z M 7.433594 26.882812 C 7.226562 27.324219 7.082031 27.660156 6.980469 28.007812 C 6.546875 29.503906 7.175781 30.839844 5.816406 31.925781 C 6.457031 33.214844 6.425781 33.730469 7.914062 33.136719 C 8.488281 32.90625 8.964844 32.582031 9.386719 32.203125 C 9.1875 32.722656 9 33.257812 8.824219 33.8125 C 8.792969 33.90625 8.765625 33.996094 8.738281 34.089844 C 7.671875 34.539062 6.269531 34.828125 5.734375 33.710938 C 5.472656 33.167969 5.328125 32.632812 5.136719 31.949219 C 3.382812 30.136719 6.003906 27.742188 7.433594 26.882812 Z M 8.296875 28.804688 C 8.082031 28.585938 7.90625 28.441406 7.628906 28.472656 C 7.652344 28.289062 7.683594 28.113281 7.726562 27.945312 C 7.75 27.859375 7.773438 27.777344 7.796875 27.691406 C 8.160156 27.902344 8.257812 28.285156 8.296875 28.804688 Z M 60.914062 22.027344 C 60.980469 22.167969 61.042969 22.308594 61.109375 22.453125 C 61.054688 22.492188 61.003906 22.53125 60.957031 22.574219 C 60.871094 22.375 60.746094 22.191406 60.589844 22.039062 C 60.695312 22.035156 60.800781 22.03125 60.914062 22.027344 Z M 10.253906 30.261719 Z M 4.539062 32.1875 Z M 23.742188 52.210938 Z M 39.558594 56.925781 L 39.554688 56.925781 Z M 45.984375 44.734375 Z M 7.613281 32.441406 L 7.601562 32.410156 Z M 69.316406 37.503906 L 69.324219 37.507812 Z M 69.316406 37.503906 " fill-opacity="1" fill-rule="nonzero"/></g><path fill="#000000" d="M 1.425781 32.003906 C 1.703125 28.851562 2.320312 27.488281 4.566406 25.113281 C 1.746094 27.097656 1.042969 27.996094 1.425781 32.003906 " fill-opacity="1" fill-rule="nonzero"/><g clip-path="url(#3d0ff91833)"><path fill="#000000" d="M 0.699219 29.429688 C 1.007812 28.007812 1.296875 27.472656 2.175781 26.308594 C 0.75 27.300781 0.566406 27.707031 0.699219 29.429688 " fill-opacity="1" fill-rule="nonzero"/></g><g clip-path="url(#de231a7c16)"><path fill="#000000" d="M 33.753906 9.640625 C 32.066406 10.042969 31.746094 10.355469 31.238281 12.007812 C 32.042969 10.796875 32.511719 10.40625 33.753906 9.640625 " fill-opacity="1" fill-rule="nonzero"/></g><g clip-path="url(#0e81cbf839)"><path fill="#000000" d="M 36.417969 9.398438 C 33.066406 10.21875 32.082031 10.800781 30.972656 14.671875 C 32.382812 11.835938 33.453125 10.789062 36.417969 9.398438 " fill-opacity="1" fill-rule="nonzero"/></g><path fill="#000000" d="M 43.625 23.511719 C 43.980469 21.933594 44.617188 20.414062 47.070312 19.238281 C 43.816406 20.050781 43.207031 21.414062 43.625 23.511719 " fill-opacity="1" fill-rule="nonzero"/><path fill="#000000" d="M 64.332031 23.621094 C 66.261719 22.933594 67.1875 21.386719 67.652344 19.570312 C 66.894531 21.09375 65.730469 22.367188 64.148438 23.148438 C 63.300781 23.566406 62.757812 23.421875 61.8125 23.332031 C 62.773438 23.609375 63.386719 23.957031 64.332031 23.621094 " fill-opacity="1" fill-rule="nonzero"/><path fill="#000000" d="M 51.207031 25.164062 C 50.945312 24.628906 50.496094 24.242188 49.976562 24.050781 C 50.449219 23.800781 50.914062 23.535156 51.273438 23.207031 C 50.214844 23.699219 48.980469 23.578125 48.066406 24.191406 C 47.265625 24.730469 46.160156 26.445312 45.34375 27.171875 C 45.933594 26.941406 46.503906 26.546875 47.027344 26.128906 C 47.03125 26.441406 47.097656 26.753906 47.238281 27.050781 C 47.453125 27.496094 47.796875 27.832031 48.203125 28.046875 C 47.910156 28.429688 47.664062 28.863281 47.488281 29.339844 C 49.042969 27.507812 51.292969 26.121094 53.40625 25.527344 C 52.816406 25.519531 52.117188 25.628906 51.402344 25.863281 C 51.378906 25.628906 51.3125 25.390625 51.207031 25.164062 " fill-opacity="1" fill-rule="nonzero"/><path fill="#000000" d="M 48.972656 39.027344 C 48.898438 39.503906 48.792969 40.09375 48.714844 40.570312 C 48.917969 40.03125 49.160156 39.40625 49.394531 38.894531 C 49.644531 38.351562 49.785156 38.300781 50.3125 38.011719 C 50.683594 37.8125 51.367188 37.53125 51.738281 37.328125 C 51.355469 37.390625 50.664062 37.535156 50.277344 37.601562 C 49.253906 37.773438 49.128906 38.019531 48.972656 39.027344 " fill-opacity="1" fill-rule="nonzero"/><path fill="#000000" d="M 31.410156 20.6875 C 30.21875 21.863281 29.058594 25.898438 28.6875 27.515625 C 29.273438 26.171875 30.730469 22.417969 31.851562 21.464844 C 32.160156 21.199219 32.375 21.039062 32.609375 20.921875 C 31.804688 22.261719 31.867188 22.597656 32.148438 24.390625 C 32.386719 22.566406 33.019531 21.859375 34.058594 20.496094 C 35.195312 20.210938 36.261719 19.871094 37.429688 19.417969 C 36.113281 19.566406 34.796875 19.699219 33.480469 19.824219 C 32.371094 19.929688 32.195312 19.914062 31.410156 20.6875 " fill-opacity="1" fill-rule="nonzero"/><path fill="#ffffcc" d="M 47.664062 27.558594 C 47.449219 27.105469 47.640625 26.558594 48.097656 26.34375 C 48.554688 26.125 49.101562 26.320312 49.320312 26.773438 C 49.339844 26.816406 49.359375 26.859375 49.371094 26.902344 C 48.9375 27.226562 48.535156 27.605469 48.203125 28.046875 C 47.976562 27.957031 47.777344 27.792969 47.664062 27.558594 " fill-opacity="1" fill-rule="nonzero"/><path fill="#ffffcc" d="M 57.851562 23.625 C 57.886719 23.25 58.210938 22.972656 58.585938 23.007812 C 58.964844 23.046875 59.242188 23.382812 59.207031 23.757812 C 59.199219 23.835938 59.175781 23.914062 59.144531 23.980469 C 58.800781 24.039062 58.457031 24.140625 58.101562 24.273438 C 57.949219 24.121094 57.832031 23.84375 57.851562 23.625 " fill-opacity="1" fill-rule="nonzero"/></svg>