<svg xmlns="http://www.w3.org/2000/svg" xmlns:xlink="http://www.w3.org/1999/xlink" width="96" zoomAndPan="magnify" viewBox="0 0 72 72" height="96" preserveAspectRatio="xMidYMid meet" version="1.0"><defs><clipPath id="1fc1466fce"><path d="M 5.367188 27 L 66.867188 27 L 66.867188 44 L 5.367188 44 Z M 5.367188 27 " clip-rule="nonzero"/></clipPath></defs><rect x="-7.2" width="86.4" fill="#ffffff" y="-7.2" height="86.4" fill-opacity="1"/><rect x="-7.2" width="86.4" fill="#ffffff" y="-7.2" height="86.4" fill-opacity="1"/><g clip-path="url(#1fc1466fce)"><path fill="#4e4e4e" d="M 7.894531 37.609375 L 7.894531 29.753906 L 9.613281 29.753906 L 9.613281 38.210938 C 9.691406 38.890625 9.632812 39.582031 9.4375 40.242188 C 9.246094 40.898438 8.917969 41.511719 8.484375 42.042969 C 7.671875 42.742188 6.628906 43.117188 5.558594 43.105469 L 5.378906 41.824219 C 6.070312 41.828125 6.738281 41.570312 7.25 41.109375 C 7.714844 40.574219 7.894531 39.847656 7.894531 37.609375 Z M 20.714844 36.601562 C 20.714844 37.558594 20.714844 38.417969 20.789062 39.15625 L 19.261719 39.15625 L 19.160156 37.636719 C 18.839844 38.175781 18.386719 38.621094 17.835938 38.925781 C 17.289062 39.230469 16.671875 39.386719 16.042969 39.375 C 14.554688 39.375 12.785156 38.570312 12.785156 35.285156 L 12.785156 29.828125 L 14.503906 29.828125 L 14.503906 34.941406 C 14.503906 36.71875 15.054688 37.90625 16.609375 37.90625 C 16.925781 37.910156 17.242188 37.847656 17.539062 37.726562 C 17.835938 37.609375 18.105469 37.429688 18.328125 37.203125 C 18.554688 36.980469 18.734375 36.710938 18.855469 36.417969 C 18.976562 36.125 19.035156 35.808594 19.03125 35.492188 L 19.03125 29.765625 L 20.75 29.765625 L 20.75 36.550781 Z M 23.972656 32.867188 C 23.972656 31.679688 23.972656 30.710938 23.894531 29.828125 L 25.433594 29.828125 L 25.511719 31.425781 C 25.855469 30.847656 26.347656 30.375 26.941406 30.058594 C 27.53125 29.734375 28.199219 29.582031 28.871094 29.609375 C 31.15625 29.609375 32.875 31.515625 32.875 34.351562 C 32.875 37.699219 30.808594 39.363281 28.578125 39.363281 C 28.007812 39.386719 27.4375 39.265625 26.925781 39.007812 C 26.417969 38.75 25.980469 38.367188 25.664062 37.890625 L 25.664062 43.003906 L 23.972656 43.003906 Z M 25.664062 35.363281 C 25.667969 35.59375 25.695312 35.824219 25.742188 36.050781 C 25.886719 36.617188 26.21875 37.121094 26.683594 37.480469 C 27.148438 37.835938 27.71875 38.03125 28.308594 38.03125 C 30.117188 38.03125 31.179688 36.5625 31.179688 34.429688 C 31.179688 32.5625 30.183594 30.964844 28.371094 30.964844 C 27.65625 31.023438 26.984375 31.339844 26.488281 31.855469 C 25.988281 32.371094 25.695312 33.050781 25.664062 33.765625 Z M 35.9375 29.820312 L 38.003906 35.328125 C 38.21875 35.941406 38.453125 36.679688 38.605469 37.230469 C 38.785156 36.667969 38.980469 35.953125 39.207031 35.289062 L 41.082031 29.820312 L 42.890625 29.820312 L 40.324219 36.464844 C 39.042969 39.660156 38.257812 41.308594 37.078125 42.304688 C 36.484375 42.84375 35.761719 43.222656 34.976562 43.402344 L 34.550781 41.972656 C 35.101562 41.792969 35.613281 41.511719 36.050781 41.140625 C 36.679688 40.632812 37.175781 39.984375 37.503906 39.25 C 37.574219 39.125 37.621094 38.984375 37.644531 38.839844 C 37.628906 38.6875 37.589844 38.535156 37.527344 38.394531 L 34.039062 29.796875 L 35.914062 29.796875 Z M 47.453125 27.140625 L 47.453125 29.820312 L 49.917969 29.820312 L 49.917969 31.101562 L 47.453125 31.101562 L 47.453125 36.132812 C 47.453125 37.285156 47.789062 37.949219 48.738281 37.949219 C 49.074219 37.957031 49.414062 37.917969 49.738281 37.835938 L 49.8125 39.113281 C 49.324219 39.28125 48.808594 39.359375 48.289062 39.34375 C 47.945312 39.363281 47.601562 39.3125 47.28125 39.1875 C 46.957031 39.0625 46.667969 38.871094 46.425781 38.628906 C 45.90625 37.929688 45.667969 37.0625 45.761719 36.199219 L 45.761719 31.089844 L 44.296875 31.089844 L 44.296875 29.808594 L 45.785156 29.808594 L 45.785156 27.535156 Z M 53.082031 34.789062 C 53.050781 35.21875 53.109375 35.65625 53.261719 36.066406 C 53.410156 36.472656 53.648438 36.84375 53.957031 37.152344 C 54.265625 37.457031 54.640625 37.695312 55.050781 37.84375 C 55.457031 37.996094 55.894531 38.054688 56.332031 38.019531 C 57.210938 38.039062 58.085938 37.875 58.894531 37.535156 L 59.191406 38.8125 C 58.195312 39.222656 57.125 39.417969 56.046875 39.386719 C 55.421875 39.429688 54.792969 39.335938 54.203125 39.113281 C 53.617188 38.894531 53.082031 38.546875 52.640625 38.097656 C 52.199219 37.652344 51.859375 37.117188 51.648438 36.527344 C 51.433594 35.9375 51.351562 35.308594 51.40625 34.683594 C 51.40625 31.875 53.082031 29.652344 55.828125 29.652344 C 58.90625 29.652344 59.679688 32.332031 59.679688 34.046875 C 59.695312 34.3125 59.695312 34.574219 59.679688 34.839844 L 53.042969 34.839844 Z M 58.113281 33.507812 C 58.164062 33.167969 58.136719 32.820312 58.039062 32.488281 C 57.945312 32.15625 57.777344 31.851562 57.550781 31.589844 C 57.324219 31.328125 57.046875 31.117188 56.730469 30.972656 C 56.414062 30.828125 56.074219 30.753906 55.726562 30.75 C 55.023438 30.800781 54.363281 31.113281 53.875 31.625 C 53.390625 32.132812 53.113281 32.804688 53.097656 33.507812 Z M 62.289062 32.726562 C 62.289062 31.625 62.289062 30.679688 62.210938 29.8125 L 63.75 29.8125 L 63.75 31.640625 L 63.828125 31.640625 C 63.988281 31.078125 64.320312 30.574219 64.78125 30.210938 C 65.242188 29.84375 65.804688 29.628906 66.394531 29.597656 C 66.554688 29.574219 66.71875 29.574219 66.878906 29.597656 L 66.878906 31.191406 C 66.683594 31.171875 66.484375 31.171875 66.289062 31.191406 C 65.707031 31.214844 65.152344 31.449219 64.730469 31.847656 C 64.304688 32.246094 64.046875 32.789062 63.992188 33.367188 C 63.945312 33.628906 63.917969 33.890625 63.917969 34.15625 L 63.917969 39.125 L 62.222656 39.125 L 62.222656 32.738281 Z M 62.289062 32.726562 " fill-opacity="1" fill-rule="nonzero"/></g><path fill="#767677" d="M 61.535156 4.152344 C 61.585938 5.011719 61.382812 5.867188 60.945312 6.605469 C 60.507812 7.347656 59.859375 7.945312 59.082031 8.320312 C 58.304688 8.691406 57.429688 8.828125 56.578125 8.703125 C 55.722656 8.582031 54.921875 8.210938 54.28125 7.636719 C 53.640625 7.058594 53.183594 6.304688 52.976562 5.472656 C 52.765625 4.636719 52.808594 3.761719 53.101562 2.953125 C 53.390625 2.140625 53.917969 1.4375 54.617188 0.929688 C 55.308594 0.417969 56.144531 0.125 57.003906 0.0898438 C 57.570312 0.0585938 58.136719 0.140625 58.667969 0.328125 C 59.203125 0.515625 59.695312 0.804688 60.117188 1.183594 C 60.539062 1.558594 60.882812 2.015625 61.121094 2.527344 C 61.367188 3.035156 61.503906 3.589844 61.535156 4.152344 Z M 61.535156 4.152344 " fill-opacity="1" fill-rule="nonzero"/><path fill="#f37726" d="M 36.164062 54.195312 C 24.621094 54.195312 14.472656 50.070312 9.226562 43.976562 C 11.261719 49.457031 14.933594 54.1875 19.75 57.527344 C 24.566406 60.867188 30.296875 62.660156 36.164062 62.660156 C 42.035156 62.660156 47.765625 60.867188 52.578125 57.527344 C 57.398438 54.1875 61.070312 49.457031 63.105469 43.976562 C 57.871094 50.070312 47.765625 54.195312 36.164062 54.195312 Z M 36.164062 54.195312 " fill-opacity="1" fill-rule="nonzero"/><path fill="#f37726" d="M 36.164062 14.5625 C 47.710938 14.5625 57.859375 18.691406 63.105469 24.785156 C 61.070312 19.300781 57.398438 14.570312 52.578125 11.230469 C 47.765625 7.890625 42.035156 6.097656 36.164062 6.097656 C 30.296875 6.097656 24.566406 7.890625 19.75 11.230469 C 14.933594 14.570312 11.261719 19.300781 9.226562 24.785156 C 14.472656 18.679688 24.570312 14.5625 36.164062 14.5625 Z M 36.164062 14.5625 " fill-opacity="1" fill-rule="nonzero"/><path fill="#9e9e9e" d="M 20.273438 66.058594 C 20.339844 67.136719 20.082031 68.214844 19.535156 69.152344 C 18.984375 70.085938 18.167969 70.835938 17.1875 71.308594 C 16.210938 71.78125 15.113281 71.949219 14.035156 71.800781 C 12.957031 71.644531 11.953125 71.179688 11.140625 70.453125 C 10.332031 69.730469 9.757812 68.78125 9.492188 67.734375 C 9.226562 66.683594 9.28125 65.574219 9.648438 64.554688 C 10.015625 63.535156 10.679688 62.648438 11.554688 62.007812 C 12.429688 61.363281 13.476562 60.992188 14.5625 60.945312 C 15.273438 60.910156 15.988281 61.011719 16.660156 61.246094 C 17.332031 61.484375 17.949219 61.851562 18.480469 62.324219 C 19.011719 62.796875 19.441406 63.375 19.75 64.015625 C 20.054688 64.652344 20.234375 65.347656 20.273438 66.058594 Z M 20.273438 66.058594 " fill-opacity="1" fill-rule="nonzero"/><path fill="#616262" d="M 10.539062 13.175781 C 9.914062 13.191406 9.300781 13.023438 8.773438 12.695312 C 8.246094 12.367188 7.828125 11.890625 7.574219 11.324219 C 7.316406 10.757812 7.234375 10.132812 7.335938 9.519531 C 7.4375 8.910156 7.71875 8.339844 8.144531 7.886719 C 8.570312 7.433594 9.117188 7.117188 9.722656 6.972656 C 10.328125 6.832031 10.964844 6.871094 11.546875 7.085938 C 12.132812 7.300781 12.636719 7.683594 13.003906 8.183594 C 13.371094 8.6875 13.578125 9.285156 13.605469 9.902344 C 13.628906 10.742188 13.320312 11.554688 12.746094 12.167969 C 12.171875 12.777344 11.378906 13.140625 10.539062 13.175781 Z M 10.539062 13.175781 " fill-opacity="1" fill-rule="nonzero"/></svg>