<svg xmlns="http://www.w3.org/2000/svg" xmlns:xlink="http://www.w3.org/1999/xlink" width="500" zoomAndPan="magnify" viewBox="0 0 375 374.999991" height="500" preserveAspectRatio="xMidYMid meet" version="1.0"><defs><clipPath id="0246b19ab0"><path d="M 123.683594 169 L 251.183594 169 L 251.183594 203 L 123.683594 203 Z M 123.683594 169 " clip-rule="nonzero"/></clipPath><clipPath id="52768b1495"><path d="M 222 112.5 L 241 112.5 L 241 131 L 222 131 Z M 222 112.5 " clip-rule="nonzero"/></clipPath><clipPath id="51927c9b3d"><path d="M 131 239 L 155 239 L 155 262.5 L 131 262.5 Z M 131 239 " clip-rule="nonzero"/></clipPath></defs><g clip-path="url(#0246b19ab0)"><path fill="#4e4e4e" d="M 128.917969 190.855469 L 128.917969 174.480469 L 132.480469 174.480469 L 132.480469 192.105469 C 132.648438 193.523438 132.527344 194.964844 132.121094 196.339844 C 131.722656 197.707031 131.046875 198.988281 130.140625 200.09375 C 128.457031 201.546875 126.300781 202.332031 124.078125 202.300781 L 123.703125 199.636719 C 125.140625 199.644531 126.523438 199.109375 127.585938 198.148438 C 128.546875 197.027344 128.917969 195.511719 128.917969 190.855469 Z M 155.496094 188.753906 C 155.496094 190.75 155.496094 192.535156 155.65625 194.078125 L 152.492188 194.078125 L 152.277344 190.910156 C 151.617188 192.035156 150.667969 192.960938 149.535156 193.59375 C 148.398438 194.230469 147.117188 194.554688 145.816406 194.535156 C 142.730469 194.535156 139.058594 192.855469 139.058594 186.011719 L 139.058594 174.640625 L 142.625 174.640625 L 142.625 185.296875 C 142.625 188.996094 143.765625 191.46875 146.984375 191.46875 C 147.648438 191.480469 148.304688 191.347656 148.917969 191.097656 C 149.53125 190.847656 150.085938 190.480469 150.554688 190.007812 C 151.023438 189.542969 151.394531 188.984375 151.644531 188.371094 C 151.894531 187.761719 152.019531 187.101562 152.011719 186.441406 L 152.011719 174.511719 L 155.574219 174.511719 L 155.574219 188.648438 Z M 162.25 180.976562 C 162.25 178.5 162.25 176.476562 162.09375 174.640625 L 165.285156 174.640625 L 165.441406 177.972656 C 166.15625 176.765625 167.179688 175.78125 168.40625 175.117188 C 169.632812 174.445312 171.015625 174.128906 172.410156 174.1875 C 177.144531 174.1875 180.710938 178.15625 180.710938 184.066406 C 180.710938 191.039062 176.429688 194.503906 171.800781 194.503906 C 170.617188 194.554688 169.4375 194.304688 168.378906 193.765625 C 167.320312 193.230469 166.421875 192.429688 165.761719 191.4375 L 165.761719 202.09375 L 162.25 202.09375 Z M 165.761719 186.171875 C 165.773438 186.648438 165.824219 187.136719 165.921875 187.605469 C 166.222656 188.789062 166.910156 189.835938 167.875 190.585938 C 168.835938 191.328125 170.023438 191.734375 171.242188 191.734375 C 174.992188 191.734375 177.199219 188.667969 177.199219 184.226562 C 177.199219 180.339844 175.125 177.011719 171.375 177.011719 C 169.890625 177.132812 168.5 177.792969 167.46875 178.867188 C 166.433594 179.941406 165.828125 181.351562 165.761719 182.839844 Z M 187.058594 174.621094 L 191.34375 186.101562 C 191.792969 187.375 192.269531 188.917969 192.589844 190.066406 C 192.964844 188.894531 193.363281 187.40625 193.839844 186.019531 L 197.726562 174.621094 L 201.476562 174.621094 L 196.15625 188.46875 C 193.496094 195.125 191.871094 198.558594 189.425781 200.632812 C 188.195312 201.761719 186.691406 202.550781 185.066406 202.921875 L 184.1875 199.941406 C 185.324219 199.566406 186.382812 198.984375 187.296875 198.214844 C 188.59375 197.152344 189.625 195.804688 190.304688 194.273438 C 190.449219 194.007812 190.546875 193.71875 190.597656 193.417969 C 190.566406 193.097656 190.488281 192.785156 190.359375 192.488281 L 183.121094 174.570312 L 187.007812 174.570312 Z M 210.933594 169.039062 L 210.933594 174.628906 L 216.042969 174.628906 L 216.042969 177.292969 L 210.933594 177.292969 L 210.933594 187.78125 C 210.933594 190.179688 211.628906 191.558594 213.597656 191.558594 C 214.296875 191.574219 214.996094 191.496094 215.667969 191.324219 L 215.828125 193.984375 C 214.816406 194.339844 213.742188 194.5 212.667969 194.464844 C 211.953125 194.507812 211.238281 194.398438 210.574219 194.140625 C 209.90625 193.882812 209.304688 193.484375 208.808594 192.972656 C 207.722656 191.523438 207.226562 189.714844 207.421875 187.914062 L 207.421875 177.265625 L 204.390625 177.265625 L 204.390625 174.601562 L 207.476562 174.601562 L 207.476562 169.863281 Z M 222.605469 184.976562 C 222.535156 185.875 222.660156 186.785156 222.976562 187.636719 C 223.285156 188.484375 223.777344 189.253906 224.417969 189.898438 C 225.058594 190.539062 225.832031 191.03125 226.679688 191.34375 C 227.53125 191.660156 228.433594 191.785156 229.335938 191.710938 C 231.160156 191.75 232.972656 191.40625 234.65625 190.699219 L 235.265625 193.359375 C 233.203125 194.214844 230.984375 194.617188 228.753906 194.558594 C 227.449219 194.648438 226.144531 194.453125 224.925781 193.988281 C 223.710938 193.527344 222.601562 192.804688 221.6875 191.875 C 220.773438 190.945312 220.070312 189.828125 219.628906 188.601562 C 219.183594 187.371094 219.015625 186.058594 219.125 184.761719 C 219.125 178.90625 222.605469 174.273438 228.296875 174.273438 C 234.679688 174.273438 236.28125 179.859375 236.28125 183.429688 C 236.3125 183.980469 236.3125 184.53125 236.28125 185.082031 L 222.527344 185.082031 Z M 233.03125 182.3125 C 233.136719 181.601562 233.082031 180.875 232.882812 180.1875 C 232.683594 179.492188 232.332031 178.855469 231.871094 178.3125 C 231.398438 177.765625 230.820312 177.328125 230.167969 177.027344 C 229.511719 176.722656 228.804688 176.566406 228.089844 176.5625 C 226.625 176.667969 225.257812 177.316406 224.25 178.382812 C 223.238281 179.441406 222.664062 180.847656 222.636719 182.3125 Z M 241.6875 180.675781 C 241.6875 178.386719 241.6875 176.417969 241.527344 174.605469 L 244.71875 174.605469 L 244.71875 178.417969 L 244.878906 178.417969 C 245.214844 177.242188 245.902344 176.195312 246.855469 175.4375 C 247.8125 174.671875 248.980469 174.222656 250.199219 174.15625 C 250.53125 174.113281 250.871094 174.113281 251.207031 174.15625 L 251.207031 177.480469 C 250.800781 177.4375 250.386719 177.4375 249.984375 177.480469 C 248.773438 177.53125 247.625 178.015625 246.753906 178.847656 C 245.875 179.679688 245.332031 180.804688 245.222656 182.011719 C 245.125 182.554688 245.070312 183.105469 245.0625 183.660156 L 245.0625 194.015625 L 241.554688 194.015625 L 241.554688 180.707031 Z M 241.6875 180.675781 " fill-opacity="1" fill-rule="nonzero"/></g><g clip-path="url(#52768b1495)"><path fill="#767677" d="M 240.125 121.140625 C 240.234375 122.929688 239.808594 124.710938 238.902344 126.257812 C 237.996094 127.804688 236.652344 129.042969 235.039062 129.824219 C 233.425781 130.601562 231.621094 130.878906 229.847656 130.628906 C 228.074219 130.375 226.421875 129.597656 225.085938 128.398438 C 223.757812 127.199219 222.816406 125.628906 222.378906 123.890625 C 221.945312 122.15625 222.035156 120.324219 222.640625 118.640625 C 223.246094 116.953125 224.339844 115.484375 225.78125 114.421875 C 227.21875 113.363281 228.949219 112.753906 230.734375 112.675781 C 231.910156 112.609375 233.082031 112.78125 234.1875 113.171875 C 235.296875 113.5625 236.3125 114.167969 237.1875 114.953125 C 238.0625 115.742188 238.769531 116.691406 239.269531 117.753906 C 239.773438 118.816406 240.066406 119.96875 240.125 121.140625 Z M 240.125 121.140625 " fill-opacity="1" fill-rule="nonzero"/></g><path fill="#f37726" d="M 187.53125 225.414062 C 163.597656 225.414062 142.558594 216.816406 131.683594 204.117188 C 135.902344 215.539062 143.515625 225.394531 153.503906 232.359375 C 163.488281 239.316406 175.367188 243.050781 187.53125 243.050781 C 199.703125 243.050781 211.578125 239.316406 221.5625 232.359375 C 231.550781 225.394531 239.164062 215.539062 243.386719 204.117188 C 232.535156 216.816406 211.578125 225.414062 187.53125 225.414062 Z M 187.53125 225.414062 " fill-opacity="1" fill-rule="nonzero"/><path fill="#f37726" d="M 187.53125 142.835938 C 211.46875 142.835938 232.507812 151.433594 243.386719 164.132812 C 239.164062 152.707031 231.550781 142.851562 221.5625 135.890625 C 211.578125 128.929688 199.703125 125.199219 187.53125 125.199219 C 175.367188 125.199219 163.488281 128.929688 153.503906 135.890625 C 143.515625 142.851562 135.902344 152.707031 131.679688 164.132812 C 142.558594 151.40625 163.492188 142.835938 187.53125 142.835938 Z M 187.53125 142.835938 " fill-opacity="1" fill-rule="nonzero"/><g clip-path="url(#51927c9b3d)"><path fill="#9e9e9e" d="M 154.582031 250.128906 C 154.722656 252.378906 154.1875 254.625 153.050781 256.574219 C 151.914062 258.523438 150.222656 260.089844 148.191406 261.066406 C 146.160156 262.050781 143.882812 262.40625 141.652344 262.09375 C 139.417969 261.773438 137.332031 260.796875 135.65625 259.289062 C 133.976562 257.777344 132.789062 255.804688 132.234375 253.617188 C 131.683594 251.429688 131.792969 249.125 132.554688 247 C 133.316406 244.875 134.691406 243.027344 136.507812 241.6875 C 138.320312 240.347656 140.492188 239.578125 142.746094 239.476562 C 144.222656 239.402344 145.699219 239.613281 147.09375 240.105469 C 148.484375 240.597656 149.769531 241.359375 150.867188 242.347656 C 151.964844 243.335938 152.859375 244.535156 153.496094 245.871094 C 154.136719 247.199219 154.503906 248.648438 154.582031 250.128906 Z M 154.582031 250.128906 " fill-opacity="1" fill-rule="nonzero"/></g><path fill="#616262" d="M 134.402344 139.941406 C 133.109375 139.976562 131.839844 139.628906 130.746094 138.945312 C 129.652344 138.257812 128.785156 137.261719 128.257812 136.085938 C 127.726562 134.910156 127.554688 133.601562 127.765625 132.324219 C 127.976562 131.050781 128.558594 129.867188 129.4375 128.925781 C 130.320312 127.980469 131.457031 127.316406 132.714844 127.019531 C 133.96875 126.722656 135.285156 126.804688 136.496094 127.253906 C 137.703125 127.703125 138.753906 128.5 139.511719 129.542969 C 140.273438 130.589844 140.703125 131.835938 140.757812 133.125 C 140.808594 134.871094 140.167969 136.5625 138.980469 137.839844 C 137.789062 139.117188 136.144531 139.871094 134.402344 139.941406 Z M 134.402344 139.941406 " fill-opacity="1" fill-rule="nonzero"/></svg>