<svg xmlns="http://www.w3.org/2000/svg" xmlns:xlink="http://www.w3.org/1999/xlink" width="153" zoomAndPan="magnify" viewBox="0 0 115.5 43.499998" height="57" preserveAspectRatio="xMidYMid meet" version="1.0"><defs><clipPath id="8aa2af1292"><path d="M 0.410156 0 L 114.597656 0 L 114.597656 43.003906 L 0.410156 43.003906 Z M 0.410156 0 " clip-rule="nonzero"/></clipPath><clipPath id="942ecf0a52"><path d="M 7.707031 5 L 40 5 L 40 37.601562 L 7.707031 37.601562 Z M 7.707031 5 " clip-rule="nonzero"/></clipPath><clipPath id="a64e835cf2"><path d="M 47 15 L 107.0625 15 L 107.0625 28 L 47 28 Z M 47 15 " clip-rule="nonzero"/></clipPath></defs><g clip-path="url(#8aa2af1292)"><path fill="#ffffff" d="M 0.410156 0 L 114.597656 0 L 114.597656 43.003906 L 0.410156 43.003906 Z M 0.410156 0 " fill-opacity="1" fill-rule="nonzero"/><path fill="#ffffff" d="M 0.410156 0 L 114.597656 0 L 114.597656 43.003906 L 0.410156 43.003906 Z M 0.410156 0 " fill-opacity="1" fill-rule="nonzero"/></g><g clip-path="url(#942ecf0a52)"><path fill="#333333" d="M 9.570312 31.253906 C 8.53125 31.253906 7.6875 30.410156 7.6875 29.371094 L 7.6875 24.066406 C 7.6875 23.027344 8.53125 22.183594 9.570312 22.183594 C 9.820312 22.183594 10.058594 22.230469 10.292969 22.328125 C 10.523438 22.421875 10.726562 22.558594 10.902344 22.734375 C 11.078125 22.914062 11.214844 23.117188 11.308594 23.347656 C 11.40625 23.578125 11.453125 23.816406 11.453125 24.066406 L 11.453125 29.371094 C 11.453125 30.410156 10.609375 31.253906 9.570312 31.253906 Z M 15.632812 33.289062 C 14.59375 33.289062 13.75 32.445312 13.75 31.40625 L 13.75 22.035156 C 13.75 20.992188 14.59375 20.152344 15.632812 20.152344 C 16.675781 20.152344 17.519531 20.996094 17.519531 22.035156 L 17.519531 31.40625 C 17.519531 32.445312 16.671875 33.289062 15.632812 33.289062 Z M 21.695312 35.277344 C 20.65625 35.277344 19.8125 34.433594 19.8125 33.394531 L 19.8125 20.035156 C 19.8125 18.992188 20.65625 18.152344 21.695312 18.152344 C 22.734375 18.152344 23.578125 18.996094 23.578125 20.035156 L 23.578125 33.390625 C 23.578125 34.433594 22.738281 35.273438 21.695312 35.273438 Z M 37.589844 13.457031 L 11.296875 5.59375 C 10.007812 5.191406 8.84375 5.996094 8.84375 7.242188 L 8.84375 20.371094 C 9.082031 20.324219 9.328125 20.300781 9.570312 20.300781 C 9.816406 20.300781 10.058594 20.324219 10.300781 20.371094 L 10.300781 7.253906 C 10.300781 7.164062 10.300781 6.957031 10.625 6.957031 C 10.710938 6.960938 10.796875 6.972656 10.878906 7 L 37.175781 14.867188 C 37.746094 15.035156 38.171875 15.617188 38.171875 16.023438 L 38.171875 32.847656 C 38.171875 32.945312 38.171875 33.140625 37.847656 33.140625 C 37.761719 33.140625 37.675781 33.128906 37.59375 33.101562 L 31.527344 31.289062 L 31.527344 32.808594 L 37.160156 34.5 C 37.378906 34.566406 37.605469 34.601562 37.835938 34.601562 C 38.070312 34.613281 38.300781 34.574219 38.523438 34.492188 C 38.746094 34.40625 38.941406 34.28125 39.109375 34.113281 C 39.277344 33.945312 39.40625 33.753906 39.496094 33.535156 C 39.582031 33.3125 39.621094 33.085938 39.613281 32.847656 L 39.613281 16.007812 C 39.613281 14.917969 38.71875 13.792969 37.574219 13.453125 Z M 27.757812 37.367188 C 26.71875 37.367188 25.875 36.523438 25.875 35.480469 L 25.875 17.949219 C 25.875 16.910156 26.71875 16.066406 27.757812 16.066406 C 28.796875 16.066406 29.640625 16.910156 29.640625 17.949219 L 29.640625 35.496094 C 29.640625 36.539062 28.800781 37.378906 27.757812 37.378906 Z M 27.757812 37.367188 " fill-opacity="1" fill-rule="nonzero"/></g><g clip-path="url(#a64e835cf2)"><path fill="#333333" d="M 48.367188 22.753906 L 48.367188 27.160156 L 47 27.160156 L 47 15.503906 L 50.207031 15.503906 C 51.457031 15.503906 52.425781 15.808594 53.101562 16.414062 C 53.78125 17.019531 54.132812 17.875 54.132812 18.980469 C 54.132812 20.085938 53.753906 20.992188 52.988281 21.695312 C 52.226562 22.402344 51.195312 22.753906 49.90625 22.753906 Z M 48.367188 16.738281 L 48.367188 21.515625 L 49.800781 21.515625 C 50.746094 21.515625 51.464844 21.304688 51.960938 20.871094 C 52.457031 20.441406 52.707031 19.832031 52.707031 19.046875 C 52.707031 17.507812 51.796875 16.738281 49.972656 16.738281 Z M 59.253906 27.355469 C 58.019531 27.355469 57.035156 26.964844 56.300781 26.1875 C 55.5625 25.410156 55.195312 24.378906 55.195312 23.097656 C 55.195312 21.699219 55.570312 20.605469 56.34375 19.820312 C 57.121094 19.035156 58.136719 18.632812 59.441406 18.632812 C 60.683594 18.632812 61.652344 19.003906 62.351562 19.777344 C 63.050781 20.550781 63.398438 21.601562 63.398438 22.945312 C 63.398438 24.277344 63.019531 25.339844 62.269531 26.136719 C 61.515625 26.9375 60.507812 27.335938 59.253906 27.335938 Z M 59.351562 19.765625 C 58.492188 19.765625 57.8125 20.054688 57.3125 20.636719 C 56.816406 21.21875 56.566406 22.023438 56.566406 23.046875 C 56.566406 24.035156 56.816406 24.8125 57.3125 25.378906 C 57.808594 25.949219 58.492188 26.234375 59.339844 26.234375 C 60.203125 26.234375 60.867188 25.953125 61.332031 25.394531 C 61.796875 24.835938 62.027344 24.042969 62.027344 23.015625 C 62.027344 21.972656 61.792969 21.171875 61.332031 20.609375 C 60.867188 20.042969 60.203125 19.761719 59.339844 19.761719 Z M 75.816406 18.835938 L 73.316406 27.15625 L 71.929688 27.15625 L 70.210938 21.199219 C 70.148438 20.972656 70.105469 20.714844 70.082031 20.425781 L 70.050781 20.425781 C 70.019531 20.679688 69.960938 20.929688 69.878906 21.171875 L 68.015625 27.136719 L 66.679688 27.136719 L 64.152344 18.8125 L 65.554688 18.8125 L 67.28125 25.074219 C 67.335938 25.261719 67.375 25.511719 67.394531 25.820312 L 67.460938 25.820312 C 67.480469 25.5625 67.53125 25.304688 67.609375 25.058594 L 69.53125 18.8125 L 70.75 18.8125 L 72.476562 25.085938 C 72.53125 25.289062 72.574219 25.539062 72.601562 25.835938 L 72.664062 25.835938 C 72.675781 25.625 72.722656 25.375 72.804688 25.085938 L 74.496094 18.8125 L 75.816406 18.8125 Z M 83.828125 23.332031 L 77.929688 23.332031 C 77.949219 24.257812 78.210938 24.972656 78.679688 25.476562 C 79.148438 25.980469 79.8125 26.222656 80.640625 26.222656 C 81.578125 26.222656 82.441406 25.914062 83.230469 25.292969 L 83.230469 26.546875 C 82.496094 27.078125 81.527344 27.34375 80.320312 27.34375 C 79.144531 27.34375 78.21875 26.964844 77.542969 26.207031 C 76.871094 25.453125 76.535156 24.390625 76.535156 23.019531 C 76.535156 21.714844 76.902344 20.667969 77.636719 19.851562 C 78.375 19.039062 79.285156 18.628906 80.378906 18.628906 C 81.46875 18.628906 82.3125 18.984375 82.910156 19.6875 C 83.507812 20.390625 83.808594 21.371094 83.808594 22.621094 L 83.808594 23.320312 Z M 82.457031 22.203125 C 82.453125 21.433594 82.265625 20.832031 81.902344 20.40625 C 81.535156 19.980469 81.023438 19.753906 80.375 19.753906 C 79.738281 19.742188 79.203125 19.96875 78.769531 20.425781 C 78.332031 20.878906 78.058594 21.464844 77.953125 22.191406 Z M 90.117188 20.183594 C 89.882812 20.007812 89.554688 19.917969 89.105469 19.917969 C 88.542969 19.917969 88.058594 20.183594 87.675781 20.722656 C 87.292969 21.257812 87.101562 21.988281 87.101562 22.917969 L 87.101562 27.160156 L 85.765625 27.160156 L 85.765625 18.835938 L 87.101562 18.835938 L 87.101562 20.550781 L 87.132812 20.550781 C 87.324219 19.964844 87.617188 19.511719 88.003906 19.179688 C 88.394531 18.851562 88.832031 18.691406 89.316406 18.691406 C 89.664062 18.691406 89.929688 18.726562 90.117188 18.804688 Z M 96.3125 27.160156 L 96.3125 15.503906 L 99.636719 15.503906 C 100.648438 15.503906 101.449219 15.75 102.042969 16.242188 C 102.632812 16.734375 102.929688 17.378906 102.929688 18.167969 C 102.929688 18.820312 102.75 19.402344 102.390625 19.894531 C 102.03125 20.382812 101.539062 20.726562 100.910156 20.933594 L 100.910156 20.964844 C 101.695312 21.058594 102.324219 21.355469 102.796875 21.855469 C 103.269531 22.355469 103.503906 23.007812 103.503906 23.808594 C 103.503906 24.808594 103.148438 25.613281 102.429688 26.234375 C 101.714844 26.851562 100.808594 27.160156 99.71875 27.160156 Z M 97.683594 16.742188 L 97.683594 20.496094 L 99.082031 20.496094 C 99.832031 20.496094 100.421875 20.316406 100.851562 19.957031 C 101.28125 19.597656 101.503906 19.085938 101.503906 18.429688 C 101.503906 17.300781 100.757812 16.730469 99.265625 16.730469 Z M 97.683594 21.730469 L 97.683594 25.925781 L 99.550781 25.925781 C 100.355469 25.925781 100.976562 25.734375 101.421875 25.367188 C 101.863281 24.996094 102.074219 24.46875 102.074219 23.804688 C 102.074219 22.429688 101.132812 21.742188 99.253906 21.742188 Z M 107.074219 27.160156 L 105.707031 27.160156 L 105.707031 15.503906 L 107.074219 15.503906 Z M 107.074219 27.160156 " fill-opacity="1" fill-rule="nonzero"/></g></svg>