<svg xmlns="http://www.w3.org/2000/svg" xmlns:xlink="http://www.w3.org/1999/xlink" width="500" zoomAndPan="magnify" viewBox="0 0 375 374.999991" height="500" preserveAspectRatio="xMidYMid meet" version="1.0"><defs><clipPath id="2ca2166b15"><path d="M 37.5 139 L 134 139 L 134 237 L 37.5 237 Z M 37.5 139 " clip-rule="nonzero"/></clipPath><clipPath id="2fa153069b"><path d="M 156 170 L 337.5 170 L 337.5 207 L 156 207 Z M 156 170 " clip-rule="nonzero"/></clipPath></defs><g clip-path="url(#2ca2166b15)"><path fill="#333333" d="M 43.128906 217.875 C 39.988281 217.875 37.441406 215.316406 37.441406 212.160156 L 37.441406 196.0625 C 37.441406 192.90625 39.992188 190.347656 43.128906 190.347656 C 43.503906 190.351562 43.871094 190.386719 44.238281 190.460938 C 44.605469 190.535156 44.960938 190.644531 45.304688 190.789062 C 45.648438 190.933594 45.976562 191.109375 46.289062 191.320312 C 46.597656 191.527344 46.886719 191.765625 47.148438 192.027344 C 47.414062 192.292969 47.648438 192.582031 47.855469 192.894531 C 48.0625 193.207031 48.238281 193.535156 48.382812 193.878906 C 48.527344 194.226562 48.632812 194.582031 48.707031 194.949219 C 48.78125 195.316406 48.816406 195.6875 48.820312 196.0625 L 48.820312 212.164062 C 48.820312 215.320312 46.265625 217.878906 43.128906 217.878906 Z M 61.433594 224.046875 C 58.292969 224.046875 55.75 221.488281 55.75 218.332031 L 55.75 189.902344 C 55.75 186.742188 58.292969 184.1875 61.433594 184.1875 C 64.578125 184.1875 67.125 186.746094 67.125 189.902344 L 67.125 218.332031 C 67.125 221.492188 64.574219 224.046875 61.433594 224.046875 Z M 79.742188 230.082031 C 76.597656 230.082031 74.054688 227.523438 74.054688 224.367188 L 74.054688 183.835938 C 74.054688 180.675781 76.605469 178.121094 79.742188 178.121094 C 82.875 178.121094 85.425781 180.679688 85.425781 183.835938 L 85.425781 224.359375 C 85.425781 227.519531 82.882812 230.074219 79.742188 230.074219 Z M 127.734375 163.878906 L 48.34375 140.015625 C 44.449219 138.796875 40.933594 141.234375 40.933594 145.023438 L 40.933594 184.855469 C 41.660156 184.707031 42.390625 184.636719 43.132812 184.632812 C 43.875 184.636719 44.609375 184.707031 45.335938 184.855469 L 45.335938 145.050781 C 45.335938 144.78125 45.335938 144.15625 46.308594 144.15625 C 46.574219 144.160156 46.832031 144.199219 47.085938 144.28125 L 126.476562 168.148438 C 128.203125 168.667969 129.484375 170.429688 129.484375 171.660156 L 129.484375 222.714844 C 129.484375 223.007812 129.484375 223.601562 128.511719 223.601562 C 128.246094 223.601562 127.988281 223.558594 127.738281 223.476562 L 109.421875 217.980469 L 109.421875 222.589844 L 126.433594 227.71875 C 127.097656 227.921875 127.777344 228.027344 128.46875 228.03125 C 128.824219 228.046875 129.175781 228.027344 129.527344 227.972656 C 129.875 227.914062 130.21875 227.820312 130.546875 227.695312 C 130.878906 227.566406 131.195312 227.40625 131.492188 227.214844 C 131.789062 227.019531 132.066406 226.800781 132.316406 226.550781 C 132.570312 226.300781 132.792969 226.027344 132.988281 225.730469 C 133.1875 225.433594 133.351562 225.121094 133.480469 224.789062 C 133.613281 224.460938 133.707031 224.121094 133.769531 223.769531 C 133.832031 223.417969 133.855469 223.066406 133.84375 222.710938 L 133.84375 171.613281 C 133.84375 168.304688 131.144531 164.898438 127.6875 163.863281 Z M 98.046875 236.417969 C 94.902344 236.417969 92.359375 233.859375 92.359375 230.703125 L 92.359375 177.511719 C 92.359375 174.355469 94.910156 171.792969 98.046875 171.792969 C 101.179688 171.792969 103.734375 174.351562 103.734375 177.511719 L 103.734375 230.75 C 103.734375 233.910156 101.191406 236.464844 98.046875 236.464844 Z M 98.046875 236.417969 " fill-opacity="1" fill-rule="nonzero"/></g><g clip-path="url(#2fa153069b)"><path fill="#333333" d="M 160.273438 192.085938 L 160.273438 205.449219 L 156.140625 205.449219 L 156.140625 170.082031 L 165.832031 170.082031 C 169.601562 170.082031 172.523438 171.003906 174.574219 172.84375 C 176.621094 174.6875 177.683594 177.285156 177.683594 180.636719 C 177.683594 183.992188 176.53125 186.738281 174.226562 188.875 C 171.917969 191.011719 168.8125 192.082031 164.921875 192.082031 L 160.273438 192.082031 Z M 160.273438 173.832031 L 160.273438 188.332031 L 164.601562 188.332031 C 167.453125 188.332031 169.628906 187.679688 171.125 186.371094 C 172.625 185.0625 173.375 183.21875 173.375 180.835938 C 173.375 176.171875 170.625 173.832031 165.117188 173.832031 Z M 193.140625 206.042969 C 189.417969 206.042969 186.445312 204.863281 184.222656 202.503906 C 182 200.144531 180.890625 197.019531 180.890625 193.121094 C 180.890625 188.878906 182.019531 185.5625 184.359375 183.183594 C 186.699219 180.800781 189.765625 179.578125 193.703125 179.578125 C 197.457031 179.578125 200.386719 180.707031 202.496094 183.054688 C 204.601562 185.402344 205.652344 188.589844 205.652344 192.667969 C 205.652344 196.703125 204.515625 199.925781 202.246094 202.351562 C 199.976562 204.777344 196.929688 205.988281 193.140625 205.988281 Z M 193.433594 183.011719 C 190.839844 183.011719 188.792969 183.894531 187.285156 185.664062 C 185.777344 187.429688 185.023438 189.867188 185.023438 192.976562 C 185.023438 195.964844 185.785156 198.328125 187.28125 200.050781 C 188.773438 201.777344 190.847656 202.640625 193.402344 202.640625 C 196.011719 202.640625 198.015625 201.792969 199.414062 200.097656 C 200.816406 198.402344 201.519531 195.996094 201.519531 192.871094 C 201.519531 189.71875 200.8125 187.28125 199.414062 185.570312 C 198.015625 183.863281 196.011719 183.007812 193.402344 183.007812 Z M 243.148438 180.195312 L 235.597656 205.445312 L 231.421875 205.445312 L 226.230469 187.367188 C 226.035156 186.679688 225.90625 185.898438 225.835938 185.019531 L 225.738281 185.019531 C 225.644531 185.792969 225.472656 186.546875 225.222656 187.28125 L 219.59375 205.378906 L 215.558594 205.378906 L 207.9375 180.128906 L 212.164062 180.128906 L 217.382812 199.121094 C 217.546875 199.695312 217.664062 200.449219 217.726562 201.390625 L 217.921875 201.390625 C 217.984375 200.601562 218.132812 199.828125 218.367188 199.070312 L 224.167969 180.125 L 227.855469 180.125 L 233.074219 199.164062 C 233.234375 199.773438 233.359375 200.53125 233.4375 201.433594 L 233.636719 201.433594 C 233.671875 200.792969 233.804688 200.039062 234.054688 199.164062 L 239.167969 180.125 L 243.152344 180.125 Z M 267.339844 193.835938 L 249.53125 193.835938 C 249.59375 196.644531 250.375 198.816406 251.792969 200.34375 C 253.207031 201.871094 255.21875 202.605469 257.710938 202.605469 C 260.550781 202.605469 263.152344 201.671875 265.535156 199.792969 L 265.535156 203.589844 C 263.320312 205.203125 260.394531 206.007812 256.753906 206.007812 C 253.195312 206.007812 250.402344 204.859375 248.367188 202.566406 C 246.335938 200.273438 245.316406 197.050781 245.316406 192.890625 C 245.316406 188.929688 246.429688 185.757812 248.648438 183.28125 C 250.871094 180.808594 253.628906 179.570312 256.925781 179.570312 C 260.222656 179.570312 262.769531 180.640625 264.574219 182.777344 C 266.378906 184.910156 267.28125 187.882812 267.28125 191.683594 L 267.28125 193.804688 Z M 263.203125 190.40625 C 263.1875 188.074219 262.628906 186.25 261.523438 184.957031 C 260.414062 183.667969 258.875 182.980469 256.910156 182.980469 C 255.996094 182.964844 255.117188 183.132812 254.273438 183.488281 C 253.433594 183.84375 252.695312 184.355469 252.066406 185.023438 C 250.742188 186.390625 249.917969 188.171875 249.605469 190.375 Z M 286.324219 184.289062 C 285.621094 183.746094 284.632812 183.472656 283.273438 183.472656 C 281.582031 183.472656 280.117188 184.289062 278.960938 185.914062 C 277.804688 187.539062 277.226562 189.761719 277.226562 192.574219 L 277.226562 205.449219 L 273.195312 205.449219 L 273.195312 180.195312 L 277.226562 180.195312 L 277.226562 185.398438 L 277.324219 185.398438 C 277.898438 183.625 278.777344 182.242188 279.957031 181.242188 C 281.132812 180.246094 282.453125 179.753906 283.917969 179.753906 C 284.964844 179.753906 285.765625 179.867188 286.328125 180.097656 L 286.328125 184.289062 Z M 305.042969 205.449219 L 305.042969 170.082031 L 315.078125 170.082031 C 318.128906 170.082031 320.550781 170.832031 322.332031 172.328125 C 324.117188 173.824219 325.011719 175.773438 325.011719 178.171875 C 325.011719 180.152344 324.472656 181.917969 323.386719 183.402344 C 322.304688 184.886719 320.816406 185.933594 318.914062 186.5625 L 318.914062 186.65625 C 321.289062 186.941406 323.191406 187.835938 324.617188 189.359375 C 326.042969 190.878906 326.753906 192.855469 326.753906 195.289062 C 326.753906 198.3125 325.675781 200.761719 323.511719 202.640625 C 321.347656 204.515625 318.617188 205.449219 315.320312 205.449219 Z M 309.175781 173.835938 L 309.175781 185.234375 L 313.402344 185.234375 C 315.664062 185.234375 317.449219 184.683594 318.742188 183.59375 C 320.035156 182.5 320.714844 180.957031 320.714844 178.96875 C 320.714844 175.53125 318.460938 173.8125 313.949219 173.8125 Z M 309.175781 188.980469 L 309.175781 201.707031 L 314.8125 201.707031 C 317.238281 201.707031 319.121094 201.128906 320.457031 200.011719 C 321.796875 198.890625 322.433594 197.285156 322.433594 195.277344 C 322.433594 191.101562 319.597656 189.011719 313.921875 189.011719 Z M 337.527344 205.449219 L 333.398438 205.449219 L 333.398438 170.082031 L 337.527344 170.082031 Z M 337.527344 205.449219 " fill-opacity="1" fill-rule="nonzero"/></g></svg>