<svg xmlns="http://www.w3.org/2000/svg" xmlns:xlink="http://www.w3.org/1999/xlink" width="500" zoomAndPan="magnify" viewBox="0 0 375 374.999991" height="500" preserveAspectRatio="xMidYMid meet" version="1.0"><defs><clipPath id="0001dba03b"><path d="M 140 127 L 250.21875 127 L 250.21875 262.5 L 140 262.5 Z M 140 127 " clip-rule="nonzero"/></clipPath><clipPath id="ac2629f203"><path d="M 125 112.5 L 236 112.5 L 236 248 L 125 248 Z M 125 112.5 " clip-rule="nonzero"/></clipPath><clipPath id="a2a5493459"><path d="M 135 112.5 L 236 112.5 L 236 238 L 135 238 Z M 135 112.5 " clip-rule="nonzero"/></clipPath><clipPath id="15071f28d5"><path d="M 145 112.5 L 236 112.5 L 236 228 L 145 228 Z M 145 112.5 " clip-rule="nonzero"/></clipPath><clipPath id="de78b02490"><path d="M 125 112.5 L 236 112.5 L 236 153 L 125 153 Z M 125 112.5 " clip-rule="nonzero"/></clipPath><clipPath id="637b2145f2"><path d="M 135 112.5 L 236 112.5 L 236 153 L 135 153 Z M 135 112.5 " clip-rule="nonzero"/></clipPath><clipPath id="d4b1d47ede"><path d="M 205 112.5 L 236 112.5 L 236 143 L 205 143 Z M 205 112.5 " clip-rule="nonzero"/></clipPath></defs><g clip-path="url(#0001dba03b)"><path fill="#3385ca" d="M 140.023438 252.5 C 140.023438 258.023438 144.507812 262.5 150.039062 262.5 L 240.171875 262.5 C 245.703125 262.5 250.1875 258.023438 250.1875 252.5 L 250.1875 137.5 C 250.1875 131.976562 245.703125 127.5 240.171875 127.5 L 150.039062 127.5 C 144.507812 127.5 140.023438 131.976562 140.023438 137.5 Z M 140.023438 252.5 " fill-opacity="1" fill-rule="nonzero"/></g><g clip-path="url(#ac2629f203)"><path fill="#efe7e4" d="M 235.164062 142.5 L 235.164062 237.5 C 235.164062 243.023438 230.679688 247.5 225.148438 247.5 L 135.015625 247.5 C 129.484375 247.5 125 243.023438 125 237.5 L 125 122.5 C 125 116.976562 129.484375 112.5 135.015625 112.5 L 205.121094 112.5 Z M 235.164062 142.5 " fill-opacity="1" fill-rule="nonzero"/></g><g clip-path="url(#a2a5493459)"><path fill="#f6f1f1" d="M 205.121094 112.5 L 135.015625 112.5 L 135.015625 227.5 C 135.015625 233.023438 139.5 237.5 145.03125 237.5 L 235.164062 237.5 L 235.164062 142.5 Z M 205.121094 112.5 " fill-opacity="1" fill-rule="nonzero"/></g><g clip-path="url(#15071f28d5)"><path fill="#faf7f7" d="M 145.03125 112.5 L 145.03125 217.5 C 145.03125 223.023438 149.515625 227.5 155.046875 227.5 L 235.164062 227.5 L 235.164062 142.5 L 205.121094 112.5 Z M 145.03125 112.5 " fill-opacity="1" fill-rule="nonzero"/></g><path fill="#0067bd" d="M 207.625 222.5 C 207.625 226.640625 195.292969 230 180.082031 230 C 164.871094 230 152.542969 226.640625 152.542969 222.5 L 152.542969 177.5 C 152.542969 173.359375 164.871094 170 180.082031 170 C 195.292969 170 207.625 173.359375 207.625 177.5 Z M 207.625 222.5 " fill-opacity="1" fill-rule="nonzero"/><path fill="#3385ca" d="M 207.625 207.5 C 207.625 211.640625 195.292969 215 180.082031 215 C 164.871094 215 152.542969 211.640625 152.542969 207.5 L 152.542969 192.5 C 152.542969 196.640625 164.871094 200 180.082031 200 C 195.292969 200 207.625 196.640625 207.625 192.5 Z M 207.625 207.5 " fill-opacity="1" fill-rule="nonzero"/><g clip-path="url(#de78b02490)"><path fill="#0067bd" d="M 135.015625 112.5 C 129.484375 112.5 125 116.976562 125 122.5 L 125 152.5 L 235.164062 152.5 L 235.164062 142.5 L 205.121094 112.5 Z M 135.015625 112.5 " fill-opacity="1" fill-rule="nonzero"/></g><g clip-path="url(#637b2145f2)"><path fill="#5c9dd5" d="M 135.015625 122.5 L 135.015625 152.5 L 235.164062 152.5 L 235.164062 142.5 L 205.121094 112.5 L 145.03125 112.5 C 139.5 112.5 135.015625 116.976562 135.015625 122.5 Z M 135.015625 122.5 " fill-opacity="1" fill-rule="nonzero"/></g><g clip-path="url(#d4b1d47ede)"><path fill="#7db1dd" d="M 235.164062 142.5 L 215.136719 142.5 C 209.605469 142.5 205.121094 138.023438 205.121094 132.5 L 205.121094 112.5 Z M 235.164062 142.5 " fill-opacity="1" fill-rule="nonzero"/></g><path fill="#ffffff" d="M 140.023438 145 C 135.882812 145 132.511719 141.636719 132.511719 137.5 C 132.511719 136.117188 133.632812 135 135.015625 135 C 136.398438 135 137.519531 136.117188 137.519531 137.5 C 137.519531 138.878906 138.644531 140 140.023438 140 C 141.402344 140 142.527344 138.878906 142.527344 137.5 C 142.527344 136.121094 141.402344 135 140.023438 135 C 135.882812 135 132.511719 131.636719 132.511719 127.5 C 132.511719 123.363281 135.882812 120 140.023438 120 C 144.164062 120 147.535156 123.363281 147.535156 127.5 C 147.535156 128.882812 146.410156 130 145.03125 130 C 143.648438 130 142.527344 128.882812 142.527344 127.5 C 142.527344 126.121094 141.402344 125 140.023438 125 C 138.644531 125 137.519531 126.121094 137.519531 127.5 C 137.519531 128.878906 138.644531 130 140.023438 130 C 144.164062 130 147.535156 133.363281 147.535156 137.5 C 147.535156 141.636719 144.164062 145 140.023438 145 Z M 140.023438 145 " fill-opacity="1" fill-rule="nonzero"/><path fill="#ffffff" d="M 185.089844 145 L 175.074219 145 C 173.691406 145 172.570312 143.882812 172.570312 142.5 L 172.570312 122.5 C 172.570312 121.117188 173.691406 120 175.074219 120 C 176.457031 120 177.578125 121.117188 177.578125 122.5 L 177.578125 140 L 185.089844 140 C 186.472656 140 187.59375 141.117188 187.59375 142.5 C 187.59375 143.882812 186.472656 145 185.089844 145 Z M 185.089844 145 " fill-opacity="1" fill-rule="nonzero"/><path fill="#ffffff" d="M 170.066406 130 C 170.066406 124.484375 165.574219 120 160.050781 120 C 154.527344 120 150.039062 124.484375 150.039062 130 L 150.039062 135 C 150.039062 140.515625 154.527344 145 160.050781 145 C 161.90625 145 163.617188 144.460938 165.109375 143.582031 L 165.792969 144.265625 C 166.28125 144.753906 166.921875 145 167.5625 145 C 168.203125 145 168.84375 144.753906 169.332031 144.265625 C 170.3125 143.289062 170.3125 141.710938 169.332031 140.734375 L 168.648438 140.046875 C 169.527344 138.558594 170.066406 136.851562 170.066406 135 Z M 164.328125 135.734375 C 163.347656 134.753906 161.765625 134.753906 160.785156 135.734375 C 159.808594 136.710938 159.808594 138.289062 160.785156 139.265625 L 161.332031 139.8125 C 160.921875 139.921875 160.5 140 160.050781 140 C 157.289062 140 155.046875 137.757812 155.046875 135 L 155.046875 130 C 155.046875 127.242188 157.289062 125 160.050781 125 C 162.8125 125 165.058594 127.242188 165.058594 130 L 165.058594 135 C 165.058594 135.445312 164.980469 135.867188 164.871094 136.277344 Z M 164.328125 135.734375 " fill-opacity="1" fill-rule="nonzero"/><path fill="#66a4d7" d="M 180.082031 170 C 164.871094 170 152.542969 173.359375 152.542969 177.5 L 152.542969 192.5 C 152.542969 196.640625 164.871094 200 180.082031 200 C 195.292969 200 207.625 196.640625 207.625 192.5 L 207.625 177.5 C 207.625 173.359375 195.292969 170 180.082031 170 Z M 180.082031 170 " fill-opacity="1" fill-rule="nonzero"/><path fill="#a3c8e7" d="M 207.625 177.5 C 207.625 177.746094 207.578125 177.992188 207.492188 178.234375 C 207.402344 178.480469 207.269531 178.722656 207.09375 178.964844 C 206.917969 179.203125 206.699219 179.441406 206.4375 179.675781 C 206.175781 179.914062 205.871094 180.144531 205.527344 180.371094 C 205.183594 180.597656 204.796875 180.820312 204.371094 181.035156 C 203.945312 181.253906 203.484375 181.460938 202.980469 181.667969 C 202.480469 181.871094 201.945312 182.066406 201.371094 182.257812 C 200.800781 182.449219 200.195312 182.628906 199.558594 182.804688 C 198.917969 182.976562 198.25 183.140625 197.554688 183.296875 C 196.855469 183.453125 196.132812 183.597656 195.382812 183.734375 C 194.632812 183.871094 193.859375 184 193.066406 184.113281 C 192.269531 184.230469 191.457031 184.335938 190.621094 184.429688 C 189.789062 184.523438 188.941406 184.605469 188.078125 184.675781 C 187.214844 184.75 186.339844 184.808594 185.457031 184.855469 C 184.570312 184.902344 183.679688 184.941406 182.78125 184.964844 C 181.882812 184.988281 180.984375 185 180.082031 185 C 179.179688 185 178.28125 184.988281 177.382812 184.964844 C 176.484375 184.941406 175.59375 184.902344 174.710938 184.855469 C 173.824219 184.808594 172.949219 184.75 172.085938 184.675781 C 171.222656 184.605469 170.375 184.523438 169.542969 184.429688 C 168.710938 184.335938 167.894531 184.230469 167.101562 184.113281 C 166.304688 184 165.53125 183.871094 164.78125 183.734375 C 164.03125 183.597656 163.308594 183.453125 162.609375 183.296875 C 161.914062 183.140625 161.246094 182.976562 160.609375 182.804688 C 159.96875 182.628906 159.363281 182.449219 158.792969 182.257812 C 158.21875 182.066406 157.683594 181.871094 157.183594 181.667969 C 156.683594 181.460938 156.21875 181.253906 155.792969 181.035156 C 155.367188 180.820312 154.984375 180.597656 154.636719 180.371094 C 154.292969 180.144531 153.988281 179.914062 153.726562 179.675781 C 153.464844 179.441406 153.246094 179.203125 153.070312 178.964844 C 152.894531 178.722656 152.761719 178.480469 152.675781 178.234375 C 152.585938 177.992188 152.542969 177.746094 152.542969 177.5 C 152.542969 177.253906 152.585938 177.007812 152.675781 176.765625 C 152.761719 176.519531 152.894531 176.277344 153.070312 176.035156 C 153.246094 175.796875 153.464844 175.558594 153.726562 175.324219 C 153.988281 175.085938 154.292969 174.855469 154.636719 174.628906 C 154.984375 174.402344 155.367188 174.179688 155.792969 173.964844 C 156.21875 173.746094 156.683594 173.539062 157.183594 173.332031 C 157.683594 173.128906 158.21875 172.933594 158.792969 172.742188 C 159.363281 172.550781 159.96875 172.371094 160.609375 172.195312 C 161.246094 172.023438 161.914062 171.859375 162.609375 171.703125 C 163.308594 171.546875 164.03125 171.402344 164.78125 171.265625 C 165.53125 171.128906 166.304688 171 167.101562 170.886719 C 167.894531 170.769531 168.710938 170.664062 169.542969 170.570312 C 170.375 170.476562 171.222656 170.394531 172.085938 170.324219 C 172.949219 170.25 173.824219 170.191406 174.710938 170.144531 C 175.59375 170.097656 176.484375 170.058594 177.382812 170.035156 C 178.28125 170.011719 179.179688 170 180.082031 170 C 180.984375 170 181.882812 170.011719 182.78125 170.035156 C 183.679688 170.058594 184.570312 170.097656 185.457031 170.144531 C 186.339844 170.191406 187.214844 170.25 188.078125 170.324219 C 188.941406 170.394531 189.789062 170.476562 190.621094 170.570312 C 191.457031 170.664062 192.269531 170.769531 193.066406 170.886719 C 193.859375 171 194.632812 171.128906 195.382812 171.265625 C 196.132812 171.402344 196.855469 171.546875 197.554688 171.703125 C 198.25 171.859375 198.917969 172.023438 199.558594 172.195312 C 200.195312 172.371094 200.800781 172.550781 201.371094 172.742188 C 201.945312 172.933594 202.480469 173.128906 202.980469 173.332031 C 203.484375 173.539062 203.945312 173.746094 204.371094 173.964844 C 204.796875 174.179688 205.183594 174.402344 205.527344 174.628906 C 205.871094 174.855469 206.175781 175.085938 206.4375 175.324219 C 206.699219 175.558594 206.917969 175.796875 207.09375 176.035156 C 207.269531 176.277344 207.402344 176.519531 207.492188 176.765625 C 207.578125 177.007812 207.625 177.253906 207.625 177.5 Z M 207.625 177.5 " fill-opacity="1" fill-rule="nonzero"/></svg>